<svg width="16" height="17" viewBox="0 0 16 17" fill="none" xmlns="http://www.w3.org/2000/svg">
<g id="adjustments">
<path id="Icon" d="M8.00004 4.5013V3.16797M8.00004 4.5013C7.26366 4.5013 6.6667 5.09826 6.6667 5.83464C6.6667 6.57102 7.26366 7.16797 8.00004 7.16797M8.00004 4.5013C8.73642 4.5013 9.33337 5.09826 9.33337 5.83464C9.33337 6.57102 8.73642 7.16797 8.00004 7.16797M4.00004 12.5013C4.73642 12.5013 5.33337 11.9043 5.33337 11.168C5.33337 10.4316 4.73642 9.83464 4.00004 9.83464M4.00004 12.5013C3.26366 12.5013 2.6667 11.9043 2.6667 11.168C2.6667 10.4316 3.26366 9.83464 4.00004 9.83464M4.00004 12.5013V13.8346M4.00004 9.83464V3.16797M8.00004 7.16797V13.8346M12 12.5013C12.7364 12.5013 13.3334 11.9043 13.3334 11.168C13.3334 10.4316 12.7364 9.83464 12 9.83464M12 12.5013C11.2637 12.5013 10.6667 11.9043 10.6667 11.168C10.6667 10.4316 11.2637 9.83464 12 9.83464M12 12.5013V13.8346M12 9.83464V3.16797" stroke="#545F71" stroke-width="1.6" stroke-linecap="round" stroke-linejoin="round"/>
</g>
</svg>
