<svg width="17" height="16" viewBox="0 0 17 16" fill="none" xmlns="http://www.w3.org/2000/svg">
<g clip-path="url(#clip0_3682_774)">
<path d="M14.9348 2.26074H2.06522C1.20216 2.26074 0.5 2.9629 0.5 3.82596C0.5 4.01512 0.5 12.0068 0.5 12.1738C0.5 13.0368 1.20216 13.739 2.06522 13.739H14.9348C15.7978 13.739 16.5 13.0368 16.5 12.1738C16.5 11.8703 16.5 4.3443 16.5 3.82596C16.5 2.9629 15.7978 2.26074 14.9348 2.26074ZM9.02175 6.5244C9.62903 6.73977 10.0652 7.31971 10.0652 7.99987C10.0652 8.68002 9.629 9.25996 9.02175 9.47534V6.5244ZM1.54347 5.9129H2.06522C2.35291 5.9129 2.58697 6.14696 2.58697 6.43465V9.56509C2.58697 9.85277 2.35291 10.0868 2.06522 10.0868H1.54347V5.9129ZM7.97825 9.47534C7.37097 9.25996 6.93478 8.68002 6.93478 7.99987C6.93478 7.31971 7.371 6.73977 7.97825 6.5244V9.47534ZM7.97825 5.44365C6.78897 5.68602 5.89128 6.74002 5.89128 7.99987C5.89128 9.25971 6.78894 10.3137 7.97825 10.5561V12.6955H2.06522C1.77753 12.6955 1.54347 12.4615 1.54347 12.1738V11.1303H2.06522C2.92828 11.1303 3.63044 10.4281 3.63044 9.56509V6.43465C3.63044 5.57159 2.92828 4.86943 2.06522 4.86943H1.54347V3.82596C1.54347 3.53827 1.77753 3.30421 2.06522 3.30421H7.97825V5.44365ZM15.4565 10.0868H14.9348C14.6471 10.0868 14.413 9.85277 14.413 9.56509V6.43465C14.413 6.14696 14.6471 5.9129 14.9348 5.9129H15.4565V10.0868ZM15.4565 4.86943H14.9348C14.0717 4.86943 13.3696 5.57159 13.3696 6.43465V9.56509C13.3696 10.4281 14.0717 11.1303 14.9348 11.1303H15.4565V12.1738C15.4565 12.4615 15.2225 12.6955 14.9348 12.6955H9.02175V10.5561C10.211 10.3137 11.1087 9.25971 11.1087 7.99987C11.1087 6.74002 10.2111 5.68605 9.02175 5.44365V3.30421H14.9348C15.2225 3.30421 15.4565 3.53827 15.4565 3.82596V4.86943Z" fill="white"/>
</g>
<defs>
<clipPath id="clip0_3682_774">
<rect width="16" height="16" fill="white" transform="translate(0.5)"/>
</clipPath>
</defs>
</svg>
