<svg width="205" height="150" viewBox="0 0 205 150" fill="none" xmlns="http://www.w3.org/2000/svg">
<path opacity="0.1" d="M204.687 3.53895C204.687 1.58444 203.103 -6.92584e-08 201.149 -1.54693e-07L3.85146 -8.77882e-06C1.89694 -8.86426e-06 0.3125 1.58444 0.3125 3.53895L0.312494 146.461C0.312494 148.416 1.89694 150 3.85145 150L201.149 150C203.103 150 204.687 148.416 204.687 146.461L204.687 3.53895ZM196.227 145.562C196.895 143.676 198.384 142.183 200.264 141.513L200.264 144.382C200.264 145.034 199.736 145.562 199.084 145.562L196.227 145.562ZM200.264 90.5325L189.647 90.5325L189.647 59.4675L200.264 59.4675L200.264 90.5325ZM200.264 55.0296L188.762 55.0296C186.808 55.0296 185.223 56.614 185.223 58.5685L185.223 91.4314C185.223 93.386 186.808 94.9704 188.762 94.9704L200.264 94.9704L200.264 110.059L169.298 110.059L169.298 99.1132L169.298 50.8868L169.298 39.9408L200.264 39.9408L200.264 55.0296ZM164.874 92.6636C158.416 89.2513 154.257 82.4964 154.257 75C154.257 67.5035 158.416 60.7487 164.874 57.3364L164.874 92.6636ZM164.874 52.4459C155.816 56.195 149.834 65.0623 149.834 75C149.834 84.9377 155.816 93.805 164.874 97.5541L164.874 110.958C164.874 112.913 166.459 114.497 168.413 114.497L200.264 114.497L200.264 136.91C195.937 137.794 192.521 141.221 191.639 145.562L104.712 145.562L104.712 94.8444C114.651 93.7367 122.407 85.2617 122.407 75C122.407 64.7383 114.651 56.2638 104.712 55.1556L104.712 4.43787L191.639 4.43787C192.521 8.77855 195.937 12.2059 200.264 13.0904L200.264 35.503L168.413 35.503C166.459 35.503 164.874 37.0874 164.874 39.0419L164.874 52.4459ZM104.712 59.6285C112.205 60.7087 117.983 67.1889 117.983 75C117.983 82.8111 112.205 89.2913 104.712 90.3714L104.712 59.6285ZM100.288 90.3714C92.7953 89.2913 87.017 82.8111 87.017 75C87.017 67.1889 92.7953 60.7087 100.288 59.6285L100.288 90.3714ZM200.264 8.48743C198.384 7.81775 196.895 6.32396 196.227 4.43787L199.084 4.43787C199.736 4.43787 200.264 4.96602 200.264 5.61752L200.264 8.48743ZM8.77283 4.43786C8.1053 6.32396 6.61627 7.8173 4.73619 8.48742L4.73619 5.61752C4.73619 4.96601 5.26434 4.43786 5.91585 4.43786L8.77283 4.43786ZM4.73619 59.4674L15.3531 59.4674L15.3531 90.5325L4.73619 90.5325L4.73619 59.4674ZM4.73619 94.9704L19.7768 94.9704L19.7768 55.0296L4.73619 55.0296L4.73619 39.9408L35.7021 39.9408L35.7021 50.8868L35.7021 99.1132L35.7021 110.059L4.73619 110.059L4.73619 94.9704ZM40.1258 57.3364C46.5835 60.7487 50.7427 67.5035 50.7427 75C50.7427 82.4964 46.5835 89.2513 40.1258 92.6636L40.1258 57.3364ZM40.1258 97.5541C49.1842 93.805 55.1664 84.9377 55.1664 75C55.1664 65.0623 49.1842 56.195 40.1258 52.4458L40.1258 39.0419C40.1258 37.0874 38.5414 35.5029 36.5869 35.5029L4.73619 35.5029L4.73619 13.0904C9.06302 12.2059 12.4794 8.77854 13.3611 4.43786L100.288 4.43786L100.288 55.1556C90.349 56.2633 82.5933 64.7383 82.5933 75C82.5933 85.2617 90.349 93.7362 100.288 94.8444L100.288 145.562L13.3611 145.562C12.4794 141.221 9.06301 137.794 4.73618 136.91L4.73619 114.497L36.5868 114.497C38.5414 114.497 40.1258 112.913 40.1258 110.958L40.1258 97.5541ZM4.73618 141.513C6.61627 142.182 8.10485 143.676 8.77282 145.562L5.91584 145.562C5.26434 145.562 4.73618 145.034 4.73618 144.382L4.73618 141.513Z" fill="black"/>
</svg>
