<svg width="16" height="16" viewBox="0 0 16 16" fill="none" xmlns="http://www.w3.org/2000/svg">
<g id="bell">
<path id="Icon" d="M10 11.3333H13.3334L12.3967 10.3967C12.1427 10.1427 12 9.79819 12 9.43897V7.33334C12 5.59171 10.8869 4.11006 9.33335 3.56094V3.33333C9.33335 2.59695 8.7364 2 8.00002 2C7.26364 2 6.66669 2.59695 6.66669 3.33333V3.56094C5.1131 4.11006 4.00002 5.59171 4.00002 7.33334V9.43897C4.00002 9.79819 3.85732 10.1427 3.60331 10.3967L2.66669 11.3333H6.00002M10 11.3333V12C10 13.1046 9.10459 14 8.00002 14C6.89545 14 6.00002 13.1046 6.00002 12V11.3333M10 11.3333H6.00002" stroke="white" stroke-width="1.5" stroke-linecap="round" stroke-linejoin="round"/>
</g>
</svg>
