<svg width="16" height="17" viewBox="0 0 16 17" fill="none" xmlns="http://www.w3.org/2000/svg">
<g id="Capa_1" clip-path="url(#clip0_5912_40408)">
<path id="Vector" d="M15.375 7.875H14.7421C14.4473 4.63338 11.866 2.05259 8.625 1.75784V1.125C8.625 0.779813 8.34519 0.5 8 0.5C7.65481 0.5 7.375 0.779813 7.375 1.125V1.75784C4.13338 2.05266 1.55259 4.63397 1.25787 7.875H0.625C0.279813 7.875 0 8.15481 0 8.5C0 8.84519 0.279813 9.125 0.625 9.125H1.25787C1.55266 12.3666 4.13397 14.9474 7.375 15.2422V15.875C7.375 16.2202 7.65481 16.5 8 16.5C8.34519 16.5 8.625 16.2202 8.625 15.875V15.2422C11.8666 14.9473 14.4474 12.366 14.7421 9.125H15.375C15.7202 9.125 16 8.84519 16 8.5C16 8.15481 15.7202 7.875 15.375 7.875ZM8.625 13.9853V13.4167C8.625 13.0715 8.34519 12.7917 8 12.7917C7.65481 12.7917 7.375 13.0715 7.375 13.4167V13.9853C4.82925 13.6971 2.80294 11.6707 2.51475 9.125H3.08331C3.4285 9.125 3.70831 8.84519 3.70831 8.5C3.70831 8.15481 3.4285 7.875 3.08331 7.875H2.51475C2.80294 5.32925 4.82925 3.30294 7.375 3.01475V3.58331C7.375 3.9285 7.65481 4.20831 8 4.20831C8.34519 4.20831 8.625 3.9285 8.625 3.58331V3.01475C11.1707 3.30294 13.1971 5.32925 13.4853 7.875H12.9167C12.5715 7.875 12.2917 8.15481 12.2917 8.5C12.2917 8.84519 12.5715 9.125 12.9167 9.125H13.4853C13.1971 11.6707 11.1707 13.6971 8.625 13.9853ZM8 5.41666C6.29984 5.41666 4.91666 6.79984 4.91666 8.5C4.91666 10.2002 6.29984 11.5833 8 11.5833C9.70016 11.5833 11.0833 10.2002 11.0833 8.5C11.0833 6.79984 9.70016 5.41666 8 5.41666ZM8 10.3333C6.98909 10.3333 6.16666 9.51091 6.16666 8.5C6.16666 7.48909 6.98909 6.66666 8 6.66666C9.01091 6.66666 9.83334 7.48909 9.83334 8.5C9.83334 9.51091 9.01091 10.3333 8 10.3333Z" fill="#545F71"/>
</g>
<defs>
<clipPath id="clip0_5912_40408">
<rect width="16" height="16" fill="white" transform="translate(0 0.5)"/>
</clipPath>
</defs>
</svg>
