<svg width="16" height="16" viewBox="0 0 16 16" fill="none" xmlns="http://www.w3.org/2000/svg">
<g id="Capa_1">
<path id="Vector" d="M6.87044 3.46094C4.84147 3.46094 3.11928 4.79928 2.54003 6.63947C2.28062 6.46622 1.96928 6.36497 1.63462 6.36497C0.733281 6.365 0 7.09828 0 7.99963C0 8.90097 0.733281 9.63425 1.63462 9.63425C1.96928 9.63425 2.28066 9.533 2.54003 9.35975C3.11928 11.2 4.84144 12.5383 6.87044 12.5383C9.25531 12.5383 11.2164 10.6895 11.3958 8.34978L16 6.93119V3.46094H6.87044ZM1.63462 8.69675C1.25022 8.69675 0.9375 8.384 0.9375 7.99963C0.9375 7.61522 1.25022 7.3025 1.63462 7.3025C2.01903 7.3025 2.33175 7.61522 2.33175 7.99963C2.33175 8.384 2.01903 8.69675 1.63462 8.69675ZM15.0625 6.23903L11.4091 7.36469V6.70019C11.4091 6.4413 11.1993 6.23144 10.9404 6.23144C10.6815 6.23144 10.4716 6.4413 10.4716 6.70019V7.99963C10.4716 9.98534 8.85616 11.6008 6.87044 11.6008C4.88472 11.6008 3.26925 9.98534 3.26925 7.99963C3.26925 6.01391 4.88472 4.39844 6.87044 4.39844H15.0625V6.23903Z" fill="#545F71"/>
<circle id="Ellipse 3" cx="7" cy="7.99805" r="1" fill="#545F71"/>
</g>
</svg>
