<svg width="16" height="16" viewBox="0 0 16 16" fill="none" xmlns="http://www.w3.org/2000/svg">
<g id="Layer_1">
<g id="Group">
<g id="Group_2">
<path id="Vector" d="M14.4348 2.26074H1.56522C0.702156 2.26074 0 2.9629 0 3.82596C0 4.01512 0 12.0068 0 12.1738C0 13.0368 0.702156 13.739 1.56522 13.739H14.4348C15.2978 13.739 16 13.0368 16 12.1738C16 11.8703 16 4.3443 16 3.82596C16 2.9629 15.2978 2.26074 14.4348 2.26074ZM8.52175 6.5244C9.12903 6.73977 9.56522 7.31971 9.56522 7.99987C9.56522 8.68002 9.129 9.25996 8.52175 9.47534V6.5244ZM1.04347 5.9129H1.56522C1.85291 5.9129 2.08697 6.14696 2.08697 6.43465V9.56509C2.08697 9.85277 1.85291 10.0868 1.56522 10.0868H1.04347V5.9129ZM7.47825 9.47534C6.87097 9.25996 6.43478 8.68002 6.43478 7.99987C6.43478 7.31971 6.871 6.73977 7.47825 6.5244V9.47534ZM7.47825 5.44365C6.28897 5.68602 5.39128 6.74002 5.39128 7.99987C5.39128 9.25971 6.28894 10.3137 7.47825 10.5561V12.6955H1.56522C1.27753 12.6955 1.04347 12.4615 1.04347 12.1738V11.1303H1.56522C2.42828 11.1303 3.13044 10.4281 3.13044 9.56509V6.43465C3.13044 5.57159 2.42828 4.86943 1.56522 4.86943H1.04347V3.82596C1.04347 3.53827 1.27753 3.30421 1.56522 3.30421H7.47825V5.44365ZM14.9565 10.0868H14.4348C14.1471 10.0868 13.913 9.85277 13.913 9.56509V6.43465C13.913 6.14696 14.1471 5.9129 14.4348 5.9129H14.9565V10.0868ZM14.9565 4.86943H14.4348C13.5717 4.86943 12.8696 5.57159 12.8696 6.43465V9.56509C12.8696 10.4281 13.5717 11.1303 14.4348 11.1303H14.9565V12.1738C14.9565 12.4615 14.7225 12.6955 14.4348 12.6955H8.52175V10.5561C9.71103 10.3137 10.6087 9.25971 10.6087 7.99987C10.6087 6.74002 9.71106 5.68605 8.52175 5.44365V3.30421H14.4348C14.7225 3.30421 14.9565 3.53827 14.9565 3.82596V4.86943Z" fill="#ACB4C0"/>
</g>
</g>
</g>
</svg>
