<svg width="17" height="16" viewBox="0 0 17 16" fill="none" xmlns="http://www.w3.org/2000/svg">
<g id="check-circle">
<path id="Vector" d="M8.5 2C7.31331 2 6.15328 2.35189 5.16658 3.01118C4.17989 3.67047 3.41085 4.60754 2.95673 5.7039C2.5026 6.80025 2.38378 8.00665 2.61529 9.17054C2.8468 10.3344 3.41825 11.4035 4.25736 12.2426C5.09648 13.0818 6.16557 13.6532 7.32946 13.8847C8.49335 14.1162 9.69975 13.9974 10.7961 13.5433C11.8925 13.0891 12.8295 12.3201 13.4888 11.3334C14.1481 10.3467 14.5 9.18669 14.5 8C14.4983 6.40924 13.8656 4.88413 12.7407 3.75929C11.6159 2.63445 10.0908 2.00175 8.5 2ZM10.7242 7.2242L8.3242 9.6242C8.21169 9.73668 8.0591 9.79987 7.9 9.79987C7.7409 9.79987 7.58832 9.73668 7.4758 9.6242L6.2758 8.4242C6.16651 8.31104 6.10603 8.15948 6.1074 8.00216C6.10876 7.84484 6.17187 7.69435 6.28311 7.58311C6.39436 7.47186 6.54484 7.40876 6.70216 7.40739C6.85948 7.40603 7.01104 7.4665 7.1242 7.5758L7.9 8.3516L9.8758 6.3758C9.98896 6.2665 10.1405 6.20603 10.2978 6.20739C10.4552 6.20876 10.6056 6.27186 10.7169 6.38311C10.8281 6.49435 10.8912 6.64484 10.8926 6.80216C10.894 6.95948 10.8335 7.11104 10.7242 7.2242Z" fill="black"/>
</g>
</svg>
