<svg width="16" height="16" viewBox="0 0 16 16" fill="none" xmlns="http://www.w3.org/2000/svg">
<path d="M8.01151 10.6668C7.76399 10.6668 7.52664 10.5733 7.35164 10.4069L3.61831 6.85863C3.52917 6.7768 3.45806 6.67892 3.40915 6.57069C3.36023 6.46246 3.33449 6.34606 3.33341 6.22828C3.33233 6.11049 3.35595 5.99368 3.40288 5.88466C3.4498 5.77565 3.51911 5.6766 3.60674 5.59331C3.69437 5.51002 3.79858 5.44416 3.91329 5.39955C4.02799 5.35495 4.15089 5.33251 4.27482 5.33353C4.39874 5.33455 4.52122 5.35902 4.63509 5.40551C4.74896 5.45201 4.85195 5.51958 4.93804 5.60431L8.01151 8.52544L11.085 5.60431C11.261 5.44272 11.4968 5.35331 11.7415 5.35533C11.9862 5.35735 12.2203 5.45064 12.3933 5.61512C12.5664 5.77959 12.6645 6.00207 12.6667 6.23466C12.6688 6.46725 12.5747 6.69133 12.4047 6.85863L8.67138 10.4069C8.49638 10.5733 8.25902 10.6668 8.01151 10.6668Z" fill="black"/>
</svg>
