<svg width="16" height="17" viewBox="0 0 16 17" fill="none" xmlns="http://www.w3.org/2000/svg">
<path d="M8 15.1668C6.68146 15.1668 5.39252 14.7758 4.2962 14.0433C3.19987 13.3108 2.34539 12.2696 1.8408 11.0514C1.33622 9.83322 1.20419 8.49277 1.46143 7.19956C1.71866 5.90636 2.3536 4.71847 3.28595 3.78612C4.2183 2.85377 5.40619 2.21883 6.6994 1.9616C7.9926 1.70436 9.33305 1.83638 10.5512 2.34097C11.7694 2.84555 12.8106 3.70004 13.5431 4.79636C14.2757 5.89269 14.6667 7.18162 14.6667 8.50017C14.6647 10.2677 13.9617 11.9622 12.7119 13.2121C11.4621 14.4619 9.76751 15.1649 8 15.1668ZM8 3.16683C6.94516 3.16683 5.91402 3.47963 5.03696 4.06566C4.15989 4.6517 3.47631 5.48465 3.07264 6.45919C2.66897 7.43373 2.56336 8.50608 2.76914 9.54065C2.97493 10.5752 3.48288 11.5255 4.22876 12.2714C4.97464 13.0173 5.92495 13.5252 6.95952 13.731C7.99408 13.9368 9.06644 13.8312 10.041 13.4275C11.0155 13.0239 11.8485 12.3403 12.4345 11.4632C13.0205 10.5861 13.3333 9.555 13.3333 8.50017C13.3317 7.08617 12.7693 5.73053 11.7695 4.73068C10.7696 3.73083 9.414 3.16842 8 3.16683Z" fill="#ACB4C0"/>
<path d="M8 9.16683C7.82319 9.16683 7.65362 9.09659 7.52859 8.97157C7.40357 8.84655 7.33333 8.67698 7.33333 8.50017V5.8335C7.33333 5.65669 7.40357 5.48712 7.52859 5.36209C7.65362 5.23707 7.82319 5.16683 8 5.16683C8.17681 5.16683 8.34638 5.23707 8.4714 5.36209C8.59643 5.48712 8.66667 5.65669 8.66667 5.8335V8.50017C8.66667 8.67698 8.59643 8.84655 8.4714 8.97157C8.34638 9.09659 8.17681 9.16683 8 9.16683Z" fill="#ACB4C0"/>
<path d="M10.1833 11.3502C10.0065 11.3501 9.83699 11.2799 9.712 11.1548L7.52859 8.97157C7.40716 8.84584 7.34003 8.67736 7.34155 8.50257C7.34307 8.32777 7.41318 8.16056 7.53679 8.03695C7.66039 7.91335 7.8276 7.84324 8.0024 7.84172C8.1772 7.8402 8.3456 7.90739 8.47133 8.02883L10.6547 10.2122C10.7479 10.3054 10.8113 10.4242 10.8371 10.5535C10.8628 10.6828 10.8496 10.8168 10.7991 10.9386C10.7487 11.0604 10.6632 11.1645 10.5536 11.2378C10.444 11.311 10.3152 11.3501 10.1833 11.3502Z" fill="#ACB4C0"/>
</svg>
