<svg width="17" height="16" viewBox="0 0 17 16" fill="none" xmlns="http://www.w3.org/2000/svg">
<g id="currency-dollar">
<path id="Icon" d="M9.7289 6.43692C9.9702 6.71501 10.3913 6.74484 10.6694 6.50353C10.9474 6.26223 10.9773 5.84118 10.736 5.56308L9.7289 6.43692ZM7.27111 9.56308C7.02981 9.28499 6.60875 9.25516 6.33066 9.49647C6.05257 9.73777 6.02274 10.1588 6.26404 10.4369L7.27111 9.56308ZM9.16667 4.66667C9.16667 4.29848 8.86819 4 8.5 4C8.13181 4 7.83333 4.29848 7.83333 4.66667H9.16667ZM7.83333 11.3333C7.83333 11.7015 8.1318 12 8.49999 12C8.86818 12 9.16666 11.7015 9.16667 11.3333L7.83333 11.3333ZM13.8333 8C13.8333 10.9455 11.4455 13.3333 8.5 13.3333V14.6667C12.1819 14.6667 15.1667 11.6819 15.1667 8H13.8333ZM8.5 13.3333C5.55448 13.3333 3.16667 10.9455 3.16667 8H1.83333C1.83333 11.6819 4.8181 14.6667 8.5 14.6667V13.3333ZM3.16667 8C3.16667 5.05448 5.55448 2.66667 8.5 2.66667V1.33333C4.8181 1.33333 1.83333 4.3181 1.83333 8H3.16667ZM8.5 2.66667C11.4455 2.66667 13.8333 5.05448 13.8333 8H15.1667C15.1667 4.3181 12.1819 1.33333 8.5 1.33333V2.66667ZM8.5 7.33333C8.06097 7.33333 7.69367 7.2135 7.45559 7.05478C7.21285 6.89295 7.16667 6.7426 7.16667 6.66667H5.83333C5.83333 7.32711 6.23487 7.84343 6.71599 8.16418C7.20176 8.48803 7.83446 8.66667 8.5 8.66667V7.33333ZM7.16667 6.66667C7.16667 6.59073 7.21285 6.44038 7.45559 6.27856C7.69367 6.11984 8.06097 6 8.5 6V4.66667C7.83446 4.66667 7.20176 4.84531 6.71599 5.16916C6.23487 5.4899 5.83333 6.00622 5.83333 6.66667H7.16667ZM8.5 6C9.10252 6 9.54202 6.22154 9.7289 6.43692L10.736 5.56308C10.2312 4.98139 9.37805 4.66667 8.5 4.66667V6ZM8.5 8.66667C8.93903 8.66667 9.30634 8.78651 9.54442 8.94523C9.78717 9.10706 9.83335 9.2574 9.83335 9.33333H11.1667C11.1667 8.67288 10.7651 8.15657 10.284 7.83582C9.79824 7.51197 9.16554 7.33333 8.5 7.33333V8.66667ZM7.83333 4.66667V5.33333H9.16667V4.66667H7.83333ZM7.83335 10.6667L7.83333 11.3333L9.16667 11.3333L9.16668 10.6667L7.83335 10.6667ZM8.50002 10C7.8975 10 7.45799 9.77846 7.27111 9.56308L6.26404 10.4369C6.76878 11.0186 7.62198 11.3333 8.50001 11.3333L8.50002 10ZM9.83335 9.33333C9.83335 9.40927 9.78717 9.55962 9.54443 9.72144C9.30635 9.88016 8.93904 10 8.50001 10V11.3333C9.16556 11.3333 9.79825 11.1547 10.284 10.8308C10.7651 10.5101 11.1667 9.99378 11.1667 9.33333H9.83335ZM7.83333 5.33334L7.83335 10.6667L9.16668 10.6667L9.16667 5.33333L7.83333 5.33334Z" fill="#545F71"/>
</g>
</svg>
