<svg width="157" height="41" viewBox="0 0 157 41" fill="none" xmlns="http://www.w3.org/2000/svg">
<path fill-rule="evenodd" clip-rule="evenodd" d="M11.68 38.4365C12.0444 38.2349 12.3822 37.9819 12.682 37.6821C13.5259 36.8379 14 35.6934 14 34.5C14 33.3066 13.5259 32.1621 12.682 31.3179C11.8381 30.4741 10.6935 30 9.5 30H8V25H12C12.5523 25 13 24.5522 13 24C13 23.4478 12.5523 23 12 23H8V20C8 19.4478 7.55231 19 7 19C6.44769 19 6 19.4478 6 20V23H4.5C3.30652 23 2.16193 23.4741 1.31799 24.3179C0.474121 25.1621 0 26.3066 0 27.5C0 28.6934 0.474121 29.8379 1.31799 30.6821C2.16193 31.5259 3.30652 32 4.5 32H6V35.2891C6.64954 35.7407 7.31659 36.1689 8 36.5728V32H9.5C10.163 32 10.799 32.2632 11.2678 32.7324C11.7366 33.2012 12 33.8369 12 34.5C12 35.1631 11.7366 35.7988 11.2678 36.2676C10.799 36.7368 10.163 37 9.5 37H8.74591C9.69537 37.5269 10.6744 38.0063 11.68 38.4365ZM44 41V39H48C48.5523 39 49 38.5522 49 38C49 37.4478 48.5523 37 48 37H44V34C44 33.4478 43.5523 33 43 33C42.4477 33 42 33.4478 42 34V37H40.5C39.3065 37 38.1619 37.4741 37.318 38.3179C36.5928 39.0435 36.1407 39.9907 36.0278 41H38.0505C38.1478 40.5234 38.383 40.0815 38.7322 39.7324C39.201 39.2632 39.837 39 40.5 39H42V41H44ZM80 41H78V39H73C72.4477 39 72 38.5522 72 38C72 37.4478 72.4477 37 73 37H78V32H76.5C75.3065 32 74.1619 31.5259 73.318 30.6821C72.4741 29.8379 72 28.6934 72 27.5C72 26.3066 72.4741 25.1621 73.318 24.3179C74.1619 23.4741 75.3065 23 76.5 23H78V20C78 19.4478 78.4477 19 79 19C79.5523 19 80 19.4478 80 20V23H84C84.5523 23 85 23.4478 85 24C85 24.5522 84.5523 25 84 25H80V30H81.5C82.6935 30 83.8381 30.4741 84.682 31.3179C85.5259 32.1621 86 33.3066 86 34.5C86 35.6934 85.5259 36.8379 84.682 37.6821C83.8381 38.5259 82.6935 39 81.5 39H80V41ZM116 41V39H120C120.552 39 121 38.5522 121 38C121 37.4478 120.552 37 120 37H116V34C116 33.4478 115.552 33 115 33C114.448 33 114 33.4478 114 34V37H112.5C111.307 37 110.162 37.4741 109.318 38.3179C108.593 39.0435 108.141 39.9907 108.028 41H110.05C110.077 40.8682 110.115 40.7393 110.162 40.6143C110.286 40.2866 110.479 39.9854 110.732 39.7324C111.201 39.2632 111.837 39 112.5 39H114V41H116ZM155.523 31.4805C154.901 31.1675 154.209 31 153.5 31H152V26H156C156.552 26 157 25.5522 157 25C157 24.4478 156.552 24 156 24H152V21C152 20.4478 151.552 20 151 20C150.448 20 150 20.4478 150 21V24H148.5C147.307 24 146.162 24.4741 145.318 25.3179C144.474 26.1621 144 27.3066 144 28.5C144 29.6934 144.474 30.8379 145.318 31.6821C146.162 32.5259 147.307 33 148.5 33H150V35.957C150.685 35.5181 151.352 35.0537 152 34.5649V33H153.5C153.629 33 153.757 33.0098 153.883 33.0293C154.448 32.5322 154.995 32.0156 155.523 31.4805ZM146.296 38C145.546 38.3506 144.781 38.6733 144.001 38.9663C144.018 38.4297 144.459 38 145 38H146.296ZM44 1C44 0.447754 43.5523 0 43 0C42.4477 0 42 0.447754 42 1V4H40.5C39.3065 4 38.1619 4.47412 37.318 5.31787C36.4741 6.16211 36 7.30664 36 8.5C36 9.69336 36.4741 10.8379 37.318 11.6821C38.1619 12.5259 39.3065 13 40.5 13H42V18H37C36.4477 18 36 18.4478 36 19C36 19.5522 36.4477 20 37 20H42V23C42 23.5522 42.4477 24 43 24C43.5523 24 44 23.5522 44 23V20H45.5C46.6935 20 47.8381 19.5259 48.682 18.6821C49.5259 17.8379 50 16.6934 50 15.5C50 14.3066 49.5259 13.1621 48.682 12.3179C47.8381 11.4741 46.6935 11 45.5 11H44V6H48C48.5523 6 49 5.55225 49 5C49 4.44775 48.5523 4 48 4H44V1ZM40.5 6H42V11H40.5C39.837 11 39.201 10.7368 38.7322 10.2676C38.2634 9.79883 38 9.16309 38 8.5C38 7.83691 38.2634 7.20117 38.7322 6.73242C39.201 6.26318 39.837 6 40.5 6ZM44 18V13H45.5C46.163 13 46.799 13.2632 47.2678 13.7324C47.7366 14.2012 48 14.8369 48 15.5C48 16.1631 47.7366 16.7988 47.2678 17.2676C46.799 17.7368 46.163 18 45.5 18H44ZM116 1C116 0.447754 115.552 0 115 0C114.448 0 114 0.447754 114 1V4H112.5C111.307 4 110.162 4.47412 109.318 5.31787C108.474 6.16211 108 7.30664 108 8.5C108 9.69336 108.474 10.8379 109.318 11.6821C110.162 12.5259 111.307 13 112.5 13H114V18H109C108.448 18 108 18.4478 108 19C108 19.5522 108.448 20 109 20H114V23C114 23.5522 114.448 24 115 24C115.552 24 116 23.5522 116 23V20H117.5C118.693 20 119.838 19.5259 120.682 18.6821C121.526 17.8379 122 16.6934 122 15.5C122 14.3066 121.526 13.1621 120.682 12.3179C119.838 11.4741 118.693 11 117.5 11H116V6H120C120.552 6 121 5.55225 121 5C121 4.44775 120.552 4 120 4H116V1ZM112.5 6H114V11H112.5C111.837 11 111.201 10.7368 110.732 10.2676C110.263 9.79883 110 9.16309 110 8.5C110 7.83691 110.263 7.20117 110.732 6.73242C111.201 6.26318 111.837 6 112.5 6ZM117.5 18H116V13H117.5C118.163 13 118.799 13.2632 119.268 13.7324C119.737 14.2012 120 14.8369 120 15.5C120 16.1631 119.737 16.7988 119.268 17.2676C118.799 17.7368 118.163 18 117.5 18ZM4.5 25H6V30H4.5C3.83698 30 3.20105 29.7368 2.73224 29.2676C2.26337 28.7988 2 28.1631 2 27.5C2 26.8369 2.26337 26.2012 2.73224 25.7324C3.20105 25.2632 3.83698 25 4.5 25ZM76.5 25H78V30H76.5C75.837 30 75.201 29.7368 74.7322 29.2676C74.2634 28.7988 74 28.1631 74 27.5C74 26.8369 74.2634 26.2012 74.7322 25.7324C75.201 25.2632 75.837 25 76.5 25ZM81.5 37H80V32H81.5C82.163 32 82.799 32.2632 83.2678 32.7324C83.7366 33.2012 84 33.8369 84 34.5C84 35.1631 83.7366 35.7988 83.2678 36.2676C82.799 36.7368 82.163 37 81.5 37ZM148.5 26H150V31H148.5C147.837 31 147.201 30.7368 146.732 30.2676C146.263 29.7988 146 29.1631 146 28.5C146 27.8369 146.263 27.2012 146.732 26.7324C147.201 26.2632 147.837 26 148.5 26Z" fill="#23A991"/>
</svg>
