<svg width="16" height="16" viewBox="0 0 16 16" fill="none" xmlns="http://www.w3.org/2000/svg">
<g id="dots-vertical-outline">
<g id="Vector">
<path d="M8 4.4C8.73638 4.4 9.33333 3.86274 9.33333 3.2C9.33333 2.53726 8.73638 2 8 2C7.26362 2 6.66666 2.53726 6.66666 3.2C6.66666 3.86274 7.26362 4.4 8 4.4Z" fill="#545F71"/>
<path d="M8 9.2C8.73638 9.2 9.33333 8.66274 9.33333 8C9.33333 7.33726 8.73638 6.8 8 6.8C7.26362 6.8 6.66666 7.33726 6.66666 8C6.66666 8.66274 7.26362 9.2 8 9.2Z" fill="#545F71"/>
<path d="M8 14C8.73638 14 9.33333 13.4627 9.33333 12.8C9.33333 12.1373 8.73638 11.6 8 11.6C7.26362 11.6 6.66666 12.1373 6.66666 12.8C6.66666 13.4627 7.26362 14 8 14Z" fill="#545F71"/>
</g>
</g>
</svg>
