<svg width="10" height="15" viewBox="0 0 10 15" fill="none" xmlns="http://www.w3.org/2000/svg">
<path d="M8.34358 5.83332C8.12258 5.83327 7.91065 5.74544 7.75441 5.58915L5.01024 2.84498L2.26608 5.58915C2.1892 5.66874 2.09725 5.73223 1.99558 5.7759C1.89391 5.81958 1.78456 5.84257 1.67391 5.84353C1.56326 5.84449 1.45353 5.8234 1.35111 5.7815C1.2487 5.7396 1.15566 5.67772 1.07741 5.59948C0.999169 5.52124 0.937292 5.42819 0.895391 5.32578C0.85349 5.22337 0.832406 5.11363 0.833367 5.00298C0.834329 4.89233 0.857317 4.78298 0.900992 4.68131C0.944666 4.57964 1.00815 4.48769 1.08774 4.41082L4.42108 1.07748C4.57735 0.921259 4.78927 0.833496 5.01024 0.833496C5.23121 0.833496 5.44314 0.921259 5.59941 1.07748L8.93274 4.41082C9.04925 4.52736 9.12859 4.67583 9.16073 4.83746C9.19287 4.99909 9.17637 5.16661 9.11331 5.31886C9.05025 5.47111 8.94347 5.60125 8.80646 5.69282C8.66945 5.78439 8.50837 5.83328 8.34358 5.83332Z" fill="black"/>
<path d="M5.01024 14.1667C4.78925 14.1666 4.57732 14.0788 4.42108 13.9225L1.08774 10.5892C1.00815 10.5123 0.944666 10.4203 0.900992 10.3187C0.857317 10.217 0.834329 10.1076 0.833367 9.99699C0.832406 9.88634 0.85349 9.7766 0.895391 9.67419C0.937292 9.57178 0.999169 9.47873 1.07741 9.40049C1.15566 9.32225 1.2487 9.26037 1.35111 9.21847C1.45353 9.17657 1.56326 9.15548 1.67391 9.15644C1.78456 9.1574 1.89391 9.18039 1.99558 9.22407C2.09725 9.26774 2.1892 9.33123 2.26608 9.41082L5.01024 12.155L7.75441 9.41082C7.91158 9.25902 8.12208 9.17502 8.34058 9.17692C8.55907 9.17882 8.76808 9.26646 8.92259 9.42097C9.0771 9.57548 9.16474 9.78449 9.16664 10.003C9.16854 10.2215 9.08454 10.432 8.93274 10.5892L5.59941 13.9225C5.44316 14.0788 5.23124 14.1666 5.01024 14.1667Z" fill="black"/>
</svg>
