<svg width="16" height="16" viewBox="0 0 16 16" fill="none" xmlns="http://www.w3.org/2000/svg">
<g id="Group">
<path id="Vector" d="M15.9323 6.95653H9.04353H9.0435V0.0677188C8.70191 0.02325 8.35366 0 8 0C7.64628 0 7.29809 0.02325 6.95653 0.0677188V6.95647V6.9565H0.0677188C0.02325 7.29809 0 7.64634 0 8C0 8.35372 0.02325 8.70191 0.0677188 9.04347H6.95647H6.9565V15.9323C7.29809 15.9768 7.64628 16 8 16C8.35366 16 8.70191 15.9768 9.04347 15.9323V9.04353V9.0435H15.9323C15.9768 8.70191 16 8.35372 16 8C16 7.64634 15.9768 7.29809 15.9323 6.95653Z" fill="#D80027"/>
<path id="Vector_2" d="M10.0869 10.086L13.6568 13.6558C13.821 13.4917 13.9776 13.3201 14.127 13.1423L11.0707 10.0859H10.0869V10.086Z" fill="#D80027"/>
<path id="Vector_3" d="M5.91292 10.0859H5.91286L2.34302 13.6558C2.50714 13.82 2.67874 13.9766 2.85661 14.126L5.91292 11.0697V10.0859Z" fill="#D80027"/>
<path id="Vector_4" d="M5.91293 5.91372V5.91366L2.34305 2.34375C2.17887 2.50787 2.02224 2.67947 1.8728 2.85734L4.92915 5.91369H5.91293V5.91372Z" fill="#D80027"/>
<path id="Vector_5" d="M10.0869 5.91125L13.6568 2.34131C13.4927 2.17713 13.3211 2.0205 13.1432 1.87109L10.0869 4.92744V5.91125Z" fill="#D80027"/>
</g>
</svg>
