<svg width="16" height="16" viewBox="0 0 16 16" fill="none" xmlns="http://www.w3.org/2000/svg">
<g id="Capa_1">
<g id="Group">
<path id="Vector" d="M11.2885 8.93443C13.1018 7.12173 13.1018 4.17224 11.2885 2.35954C9.47521 0.546818 6.52482 0.546818 4.71152 2.35954C2.89824 4.17224 2.89824 7.12173 4.71152 8.93443C5.47906 9.70172 6.45033 10.1441 7.45284 10.2619V11.8183H6.3586C6.05642 11.8183 5.81147 12.0632 5.81147 12.3653C5.81147 12.6674 6.05642 12.9123 6.3586 12.9123H7.45284V14.453C7.45286 14.7551 7.69781 15 8.00001 15C8.30219 15 8.54713 14.7551 8.54713 14.453V12.9123H9.6414C9.94358 12.9123 10.1885 12.6674 10.1885 12.3653C10.1885 12.0632 9.94358 11.8183 9.6414 11.8183H8.54713V10.2619C9.54967 10.1441 10.5209 9.70172 11.2885 8.93443ZM5.48529 8.1609C4.09866 6.77471 4.09866 4.51924 5.48529 3.13304C6.87189 1.74691 9.12805 1.74683 10.5147 3.13304C11.9014 4.51924 11.9014 6.77471 10.5147 8.1609C9.12811 9.54707 6.87192 9.54707 5.48529 8.1609Z" fill="#DEE1E3"/>
</g>
</g>
</svg>
