<svg width="15" height="14" viewBox="0 0 15 14" fill="none" xmlns="http://www.w3.org/2000/svg">
<g id="Masculine">
<path id="Vector" d="M13.1465 0.875H10.7539C10.4896 0.875 10.2754 1.08923 10.2754 1.35352C10.2754 1.6178 10.4896 1.83203 10.7539 1.83203H11.9912L8.77754 5.04572C7.99636 4.41293 7.0022 4.0332 5.9209 4.0332C3.41427 4.0332 1.375 6.07247 1.375 8.5791C1.375 11.0857 3.41427 13.125 5.9209 13.125C8.42753 13.125 10.4668 11.0857 10.4668 8.5791C10.4668 7.4978 10.0871 6.50364 9.45428 5.72246L12.668 2.50877V3.74609C12.668 4.01038 12.8822 4.22461 13.1465 4.22461C13.4108 4.22461 13.625 4.01038 13.625 3.74609V1.35352C13.625 1.09019 13.4101 0.875 13.1465 0.875ZM9.50977 8.5791C9.50977 10.558 7.8998 12.168 5.9209 12.168C3.942 12.168 2.33203 10.558 2.33203 8.5791C2.33203 6.6002 3.942 4.99023 5.9209 4.99023C7.8998 4.99023 9.50977 6.6002 9.50977 8.5791Z" fill="#545F71"/>
</g>
</svg>
