<svg width="17" height="16" viewBox="0 0 17 16" fill="none" xmlns="http://www.w3.org/2000/svg">
<path d="M3.39098 13.6499H3.39038C3.24647 13.6493 3.10872 13.5916 3.00741 13.4894C2.90616 13.3873 2.84956 13.2492 2.85003 13.1054M3.39098 13.6499L3.00003 2.89731M3.39098 13.6499H13.5971M3.39098 13.6499H13.5971M2.85003 13.1054C2.85003 13.1053 2.85003 13.1052 2.85003 13.1051L3.00003 13.1057H2.85003V13.1054ZM2.85003 13.1054V2.89812M2.85003 2.89812C2.85003 2.89844 2.85003 2.89876 2.85004 2.89908L3.00003 2.89731M2.85003 2.89812V2.89731H3.00003M2.85003 2.89812C2.8486 2.75511 2.90367 2.6173 3.00329 2.51467C3.1031 2.41183 3.23954 2.35266 3.38283 2.3501M3.00003 2.89731L3.78577 12.5146C3.78577 12.625 3.87531 12.7146 3.98577 12.7146H13.5987M3.38283 2.3501C3.45544 2.3487 3.5276 2.36189 3.59504 2.38892C3.66249 2.41595 3.72384 2.45626 3.77544 2.50748C3.82704 2.55871 3.8678 2.6198 3.89533 2.68704C3.92274 2.75401 3.93649 2.82576 3.93577 2.89813M3.38283 2.3501C3.38278 2.3501 3.38274 2.3501 3.38269 2.3501L3.38562 2.50007L3.38297 2.3501C3.38293 2.3501 3.38288 2.3501 3.38283 2.3501ZM3.93577 2.89813C3.93576 2.89844 3.93576 2.89876 3.93576 2.89908L3.78577 2.89731H3.93577V2.89813ZM3.93577 2.89813V12.5146C3.93577 12.5422 3.95815 12.5646 3.98577 12.5646H13.5971M13.5971 12.5646C13.5966 12.5646 13.596 12.5646 13.5954 12.5646L13.5987 12.7146M13.5971 12.5646C13.6688 12.5632 13.74 12.5761 13.8067 12.6024C13.8739 12.629 13.9352 12.6687 13.9868 12.7192C14.0385 12.7698 14.0795 12.8302 14.1075 12.8968C14.1356 12.9634 14.15 13.035 14.15 13.1072C14.15 13.1795 14.1356 13.2511 14.1075 13.3177C14.0795 13.3843 14.0385 13.4447 13.9868 13.4952C13.9352 13.5458 13.8739 13.5855 13.8067 13.6121C13.74 13.6384 13.6688 13.6513 13.5971 13.6499M13.5971 12.5646H13.5987V12.7146M13.5987 12.7146L13.5971 13.6499M13.586 3.90316L13.5847 3.9032C13.4441 3.90767 13.3108 3.96661 13.2128 4.06751L13.2062 4.07432L13.2005 4.0819L10.5361 7.62791C10.4042 7.80351 10.145 7.81559 9.99727 7.65303L8.71817 6.24533L8.71793 6.24507C8.62115 6.13905 8.48629 6.07569 8.34288 6.06892C8.19948 6.06216 8.05926 6.11252 7.95291 6.20896L7.95232 6.2095L5.59671 8.36905C5.54409 8.41722 5.50151 8.47529 5.47135 8.53987C5.44119 8.60447 5.42404 8.67436 5.42089 8.74561C5.41774 8.81684 5.42864 8.888 5.45298 8.95503C5.47732 9.02204 5.51461 9.08362 5.56275 9.13624C5.61086 9.18883 5.66888 9.23146 5.7335 9.26165C5.79814 9.29184 5.86806 9.30896 5.93925 9.3121C6.01052 9.31525 6.08167 9.30429 6.14864 9.27994C6.21562 9.25558 6.27718 9.21828 6.32978 9.1701L6.32979 9.17009L8.0254 7.61661C8.16837 7.48561 8.3906 7.49583 8.52096 7.63939L9.87817 9.13416C9.87819 9.13418 9.87821 9.13421 9.87824 9.13423C9.92743 9.18847 9.98714 9.23226 10.0538 9.26285C10.1205 9.29345 10.1926 9.31015 10.2658 9.31206C10.3391 9.31398 10.412 9.30106 10.4802 9.27399C10.5483 9.24693 10.6103 9.20633 10.6623 9.15469L10.6694 9.14759L10.6755 9.13959L13.9871 4.82566C14.0603 4.75058 14.1102 4.65582 14.1307 4.55282C14.152 4.44613 14.1407 4.33552 14.0983 4.23533C14.056 4.13514 13.9845 4.04997 13.8931 3.99091C13.8029 3.93259 13.6961 3.90059 13.586 3.90316Z" fill="black" stroke="black" stroke-width="0.3"/>
</svg>
