<svg width="71" height="16" viewBox="0 0 71 16" fill="none" xmlns="http://www.w3.org/2000/svg">
<g clip-path="url(#clip0_5257_14803)">
<path d="M16.053 7.59222C16.4585 7.19719 16.6016 6.61741 16.4266 6.07941C16.2519 5.54119 15.7954 5.15628 15.2352 5.07487L11.7762 4.57228C11.6006 4.54666 11.4489 4.43644 11.3704 4.27744L9.82347 1.14281C9.573 0.635469 9.06585 0.320312 8.49997 0.320312C7.9341 0.320312 7.42694 0.635469 7.17647 1.14281L5.62957 4.27741C5.55107 4.43647 5.39935 4.54669 5.22404 4.57225L1.76485 5.07484C1.2046 5.15628 0.748067 5.54119 0.573473 6.07912C0.398379 6.61741 0.541473 7.19722 0.946817 7.59212L3.44988 10.0322C3.57685 10.156 3.63479 10.3342 3.60488 10.5088L3.01388 13.9542C2.91838 14.512 3.14335 15.0651 3.601 15.3975C4.05875 15.7301 4.65438 15.7732 5.1555 15.51L8.24932 13.8834C8.40625 13.8009 8.59366 13.8009 8.75044 13.8833L11.8445 15.51C12.3456 15.7733 12.9413 15.7301 13.399 15.3975C13.8566 15.0651 14.0816 14.512 13.9861 13.9542L13.3951 10.5089C13.3652 10.3342 13.4231 10.156 13.5502 10.0322L16.053 7.59222Z" fill="url(#paint0_linear_5257_14803)"/>
</g>
<g clip-path="url(#clip1_5257_14803)">
<path d="M34.053 7.59222C34.4585 7.19719 34.6016 6.61741 34.4266 6.07941C34.2519 5.54119 33.7954 5.15628 33.2352 5.07487L29.7762 4.57228C29.6006 4.54666 29.4489 4.43644 29.3704 4.27744L27.8235 1.14281C27.573 0.635469 27.0658 0.320312 26.5 0.320312C25.9341 0.320312 25.4269 0.635469 25.1765 1.14281L23.6296 4.27741C23.5511 4.43647 23.3993 4.54669 23.224 4.57225L19.7648 5.07484C19.2046 5.15628 18.7481 5.54119 18.5735 6.07912C18.3984 6.61741 18.5415 7.19722 18.9468 7.59212L21.4499 10.0322C21.5768 10.156 21.6348 10.3342 21.6049 10.5088L21.0139 13.9542C20.9184 14.512 21.1433 15.0651 21.601 15.3975C22.0588 15.7301 22.6544 15.7732 23.1555 15.51L26.2493 13.8834C26.4063 13.8009 26.5937 13.8009 26.7504 13.8833L29.8445 15.51C30.3456 15.7733 30.9413 15.7301 31.399 15.3975C31.8566 15.0651 32.0816 14.512 31.9861 13.9542L31.3951 10.5089C31.3652 10.3342 31.4231 10.156 31.5502 10.0322L34.053 7.59222Z" fill="url(#paint1_linear_5257_14803)"/>
</g>
<g clip-path="url(#clip2_5257_14803)">
<path d="M52.053 7.59222C52.4585 7.19719 52.6016 6.61741 52.4266 6.07941C52.2519 5.54119 51.7954 5.15628 51.2352 5.07487L47.7762 4.57228C47.6006 4.54666 47.4489 4.43644 47.3704 4.27744L45.8235 1.14281C45.573 0.635469 45.0658 0.320312 44.5 0.320312C43.9341 0.320312 43.4269 0.635469 43.1765 1.14281L41.6296 4.27741C41.5511 4.43647 41.3993 4.54669 41.224 4.57225L37.7648 5.07484C37.2046 5.15628 36.7481 5.54119 36.5735 6.07912C36.3984 6.61741 36.5415 7.19722 36.9468 7.59212L39.4499 10.0322C39.5768 10.156 39.6348 10.3342 39.6049 10.5088L39.0139 13.9542C38.9184 14.512 39.1433 15.0651 39.601 15.3975C40.0588 15.7301 40.6544 15.7732 41.1555 15.51L44.2493 13.8834C44.4063 13.8009 44.5937 13.8009 44.7504 13.8833L47.8445 15.51C48.3456 15.7733 48.9413 15.7301 49.399 15.3975C49.8566 15.0651 50.0816 14.512 49.9861 13.9542L49.3951 10.5089C49.3652 10.3342 49.4231 10.156 49.5502 10.0322L52.053 7.59222Z" fill="url(#paint2_linear_5257_14803)"/>
</g>
<g clip-path="url(#clip3_5257_14803)">
<path fill-rule="evenodd" clip-rule="evenodd" d="M62.5 0.320313C62.5 0.320313 62.5 0.320312 62.5 0.320312C61.9341 0.320312 61.4269 0.635469 61.1765 1.14281L59.6296 4.27741C59.5511 4.43647 59.3993 4.54669 59.224 4.57225L55.7648 5.07484C55.2046 5.15628 54.7481 5.54119 54.5735 6.07912C54.3984 6.61741 54.5415 7.19722 54.9468 7.59212L57.4499 10.0322C57.5768 10.156 57.6348 10.3342 57.6049 10.5088L57.0139 13.9542C56.9184 14.512 57.1433 15.0651 57.601 15.3975C58.0588 15.7301 58.6544 15.7732 59.1555 15.51L62.2493 13.8834C62.3278 13.8421 62.4139 13.8215 62.5 13.8215V0.320313Z" fill="url(#paint3_linear_5257_14803)"/>
</g>
<defs>
<linearGradient id="paint0_linear_5257_14803" x1="8.5" y1="0.320312" x2="8.5" y2="15.681" gradientUnits="userSpaceOnUse">
<stop stop-color="#0C1B22"/>
<stop offset="1" stop-color="#44D8BE"/>
</linearGradient>
<linearGradient id="paint1_linear_5257_14803" x1="26.5" y1="0.320312" x2="26.5" y2="15.681" gradientUnits="userSpaceOnUse">
<stop stop-color="#0C1B22"/>
<stop offset="1" stop-color="#44D8BE"/>
</linearGradient>
<linearGradient id="paint2_linear_5257_14803" x1="44.5" y1="0.320312" x2="44.5" y2="15.681" gradientUnits="userSpaceOnUse">
<stop stop-color="#0C1B22"/>
<stop offset="1" stop-color="#44D8BE"/>
</linearGradient>
<linearGradient id="paint3_linear_5257_14803" x1="58.5" y1="0.320312" x2="58.5" y2="15.681" gradientUnits="userSpaceOnUse">
<stop stop-color="#0C1B22"/>
<stop offset="1" stop-color="#44D8BE"/>
</linearGradient>
<clipPath id="clip0_5257_14803">
<rect width="16" height="16" fill="white" transform="translate(0.5)"/>
</clipPath>
<clipPath id="clip1_5257_14803">
<rect width="16" height="16" fill="white" transform="translate(18.5)"/>
</clipPath>
<clipPath id="clip2_5257_14803">
<rect width="16" height="16" fill="white" transform="translate(36.5)"/>
</clipPath>
<clipPath id="clip3_5257_14803">
<rect width="16" height="16" fill="white" transform="translate(54.5)"/>
</clipPath>
</defs>
</svg>
