<svg width="17" height="16" viewBox="0 0 17 16" fill="none" xmlns="http://www.w3.org/2000/svg">
<g clip-path="url(#clip0_5407_15383)">
<path d="M8.5 16C12.9183 16 16.5 12.4183 16.5 8C16.5 3.58172 12.9183 0 8.5 0C4.08172 0 0.5 3.58172 0.5 8C0.5 12.4183 4.08172 16 8.5 16Z" fill="#F0F0F0"/>
<path d="M8.15216 8.00103H16.5C16.5 7.27894 16.4037 6.5795 16.2244 5.91406H8.15216V8.00103Z" fill="#D80027"/>
<path d="M8.15216 3.82525H15.3258C14.8361 3.02612 14.21 2.31978 13.4799 1.73828H8.15216V3.82525Z" fill="#D80027"/>
<path d="M8.49999 16.0008C10.3828 16.0008 12.1133 15.3501 13.4799 14.2617H3.52008C4.88667 15.3501 6.61721 16.0008 8.49999 16.0008Z" fill="#D80027"/>
<path d="M1.67417 12.1729H15.3258C15.7189 11.5314 16.0238 10.8301 16.2244 10.0859H0.775574C0.976105 10.8301 1.28101 11.5314 1.67417 12.1729Z" fill="#D80027"/>
<path d="M8.5 8C8.5 3.58175 8.5 3.06087 8.5 0C4.08175 0 0.5 3.58175 0.5 8H8.5Z" fill="#0052B4"/>
<path d="M5.8198 6.84659C4.72724 6.84659 3.84155 5.96088 3.84155 4.86834C3.84155 3.77581 4.72727 2.89009 5.8198 2.89009C6.16046 2.89009 6.48099 2.97625 6.76083 3.12787C6.32183 2.69859 5.72146 2.43359 5.05893 2.43359C3.71427 2.43359 2.62415 3.52369 2.62415 4.86837C2.62415 6.21306 3.71427 7.30316 5.05893 7.30316C5.72146 7.30316 6.32183 7.03816 6.76083 6.60887C6.48099 6.76044 6.16049 6.84659 5.8198 6.84659Z" fill="#FFDA44"/>
<path d="M6.37726 3.47656L6.72848 4.211L7.52163 4.02775L7.16645 4.76022L7.80432 5.26606L7.01013 5.44509L7.01235 6.25919L6.37726 5.74988L5.74213 6.25919L5.74432 5.44509L4.95013 5.26606L5.58801 4.76022L5.23279 4.02775L6.02601 4.211L6.37726 3.47656Z" fill="#FFDA44"/>
</g>
<defs>
<clipPath id="clip0_5407_15383">
<rect width="16" height="16" fill="white" transform="translate(0.5)"/>
</clipPath>
</defs>
</svg>
