<svg width="61" height="40" viewBox="0 0 61 40" fill="none" xmlns="http://www.w3.org/2000/svg">
<path d="M59.5 -0.00195312H1.49996C0.947773 -0.00195312 0.5 0.44582 0.5 0.998125V10.6646V29.3316V38.998C0.5 39.5504 0.947773 39.998 1.49996 39.998H59.4999C60.0522 39.998 60.4999 39.5502 60.4999 38.998V29.3316V10.6646V0.998125C60.5 0.44582 60.0522 -0.00195312 59.5 -0.00195312ZM31.5 13.0779C34.8866 13.5657 37.5 16.4786 37.5 19.9981C37.5 23.5176 34.8866 26.4305 31.5 26.9182V13.0779ZM2.50004 11.6645H10.5001V28.3315H2.50004V11.6645ZM29.5 26.9182C26.1134 26.4305 23.5 23.5176 23.5 19.9981C23.5 16.4786 26.1134 13.5657 29.5 13.0779V26.9182ZM29.5 11.0571C25.0071 11.5566 21.5 15.3741 21.5 19.9981C21.5 24.6221 25.0071 28.4396 29.5 28.939V37.9981H2.50004V30.3316H11.5C12.0523 30.3316 12.5 29.8838 12.5 29.3316V10.6646C12.5 10.1123 12.0522 9.66461 11.5 9.66461H2.50004V1.99809H29.5V11.0571ZM58.5 28.3316H50.4999V11.6645H58.5V28.3316ZM58.5 9.66461H49.5C48.9477 9.66461 48.5 10.1124 48.5 10.6646V29.3316C48.5 29.8839 48.9478 30.3316 49.5 30.3316H58.5V37.9981H31.5V28.939C35.9929 28.4395 39.5 24.6221 39.5 19.9981C39.5 15.3741 35.9929 11.5566 31.5 11.0571V1.99809H58.5V9.66461Z" fill="url(#paint0_linear_2643_8673)"/>
<defs>
<linearGradient id="paint0_linear_2643_8673" x1="30.4999" y1="-0.00195313" x2="30.4999" y2="39.998" gradientUnits="userSpaceOnUse">
<stop stop-color="#0C1B22"/>
<stop offset="1" stop-color="#44D8BE"/>
</linearGradient>
</defs>
</svg>
