<svg width="24" height="25" viewBox="0 0 24 25" fill="none" xmlns="http://www.w3.org/2000/svg">
<path d="M22.4166 3.00439H1.58337C0.710345 3.00439 0 3.71474 0 4.58776V20.4127C0 21.2858 0.710345 21.9961 1.58337 21.9961H22.4166C23.2897 21.9961 24 21.2858 24 20.4127V4.58776C24 3.71474 23.2897 3.00439 22.4166 3.00439ZM1.58337 4.36157H22.4166C22.5392 4.36157 22.6428 4.46517 22.6428 4.58776V15.1261L19.0139 10.4689C18.7447 10.1233 18.3505 9.91621 17.9325 9.90083C17.5146 9.88518 17.1063 10.0629 16.8122 10.3878L12.1038 15.5914C11.9905 15.7166 11.7389 15.7512 11.5959 15.6612L7.72449 13.2232C7.06111 12.8053 6.09018 12.8483 5.46634 13.3232L1.35717 16.4505V4.58776C1.35717 4.46517 1.46077 4.36157 1.58337 4.36157ZM22.4166 20.6389H1.58337C1.46077 20.6389 1.35717 20.5353 1.35717 20.4127V18.156L6.28833 14.4031C6.45961 14.2728 6.81944 14.2569 7.00139 14.3715L10.8728 16.8096C11.5725 17.2503 12.5553 17.1151 13.1102 16.5019L17.8186 11.2984C17.8468 11.2671 17.867 11.2576 17.8827 11.257C17.8945 11.2575 17.9175 11.2698 17.9434 11.303L22.6428 17.3341V20.4126C22.6428 20.5353 22.5392 20.6389 22.4166 20.6389Z" fill="#ACB4C0"/>
<path d="M10.0289 12.1921C11.3543 12.1921 12.4325 11.1138 12.4325 9.78841C12.4325 8.46299 11.3542 7.38477 10.0289 7.38477C8.70347 7.38477 7.62524 8.46309 7.62524 9.78841C7.62524 11.1137 8.70347 12.1921 10.0289 12.1921ZM10.0289 8.74185C10.606 8.74185 11.0754 9.21125 11.0754 9.78832C11.0754 10.3654 10.606 10.8348 10.0289 10.8348C9.45182 10.8348 8.98242 10.3654 8.98242 9.78832C8.98242 9.21134 9.45182 8.74185 10.0289 8.74185Z" fill="#ACB4C0"/>
</svg>
