<svg width="24" height="24" viewBox="0 0 24 24" fill="none" xmlns="http://www.w3.org/2000/svg">
<g id="user-headset-outline">
<g id="Vector">
<path d="M9.824 7.94091C10.089 7.94091 10.352 7.83691 10.55 7.62891C11.291 6.84791 12.613 6.81891 13.385 7.56391C13.783 7.94791 14.416 7.93591 14.799 7.53891C15.183 7.14091 15.171 6.50791 14.774 6.12491C14.023 5.40091 13.039 5.00391 12 5.00391C10.909 5.00391 9.852 5.45891 9.099 6.25191C8.719 6.65191 8.736 7.28491 9.136 7.66591C9.329 7.84991 9.577 7.94091 9.824 7.94091Z" fill="#545F71"/>
<path d="M19 9.00391C19 5.14491 15.859 2.00391 12 2.00391C8.141 2.00391 5 5.14491 5 9.00391C3.346 9.00391 2 10.3499 2 12.0039V14.0039C2 15.6579 3.346 17.0039 5 17.0039H6C6.553 17.0039 7 16.5569 7 16.0039V9.00391C7 6.24691 9.243 4.00391 12 4.00391C14.757 4.00391 17 6.24691 17 9.00391V16.0869C17 17.6949 15.691 19.0039 14.083 19.0039H14C14 17.9009 13.103 17.0039 12 17.0039H11C9.897 17.0039 9 17.9009 9 19.0039V20.0039C9 21.1069 9.897 22.0039 11 22.0039H12C12.737 22.0039 13.375 21.5989 13.722 21.0039H14.083C16.48 21.0039 18.476 19.2769 18.907 17.0039H19C20.654 17.0039 22 15.6579 22 14.0039V12.0039C22 10.3499 20.654 9.00391 19 9.00391ZM5 15.0039C4.448 15.0039 4 14.5559 4 14.0039V12.0039C4 11.4519 4.448 11.0039 5 11.0039V15.0039ZM12 20.0039H11V19.0039H12V20.0039ZM20 14.0039C20 14.5559 19.552 15.0039 19 15.0039V11.0039C19.552 11.0039 20 11.4519 20 12.0039V14.0039Z" fill="#545F71"/>
</g>
</g>
</svg>
