<svg width="16" height="16" viewBox="0 0 16 16" fill="none" xmlns="http://www.w3.org/2000/svg">
<g id="location-marker">
<g id="Icon">
<path d="M11.7713 11.1046C11.138 11.7378 9.80395 13.0719 8.90464 13.9712C8.40477 14.4711 7.59489 14.4707 7.09502 13.9708C6.21128 13.0871 4.90384 11.7796 4.22878 11.1046C2.14599 9.02177 2.14599 5.64489 4.22878 3.5621C6.31158 1.4793 9.68846 1.4793 11.7713 3.5621C13.8541 5.64489 13.8541 9.02177 11.7713 11.1046Z" stroke="#545F71" stroke-width="1.28" stroke-linecap="round" stroke-linejoin="round"/>
<path d="M10 7.33333C10 8.4379 9.10459 9.33333 8.00002 9.33333C6.89545 9.33333 6.00002 8.4379 6.00002 7.33333C6.00002 6.22876 6.89545 5.33333 8.00002 5.33333C9.10459 5.33333 10 6.22876 10 7.33333Z" stroke="#545F71" stroke-width="1.28" stroke-linecap="round" stroke-linejoin="round"/>
</g>
</g>
</svg>
