<svg width="16" height="16" viewBox="0 0 16 16" fill="none" xmlns="http://www.w3.org/2000/svg">
<g clip-path="url(#clip0_4025_16774)">
<path d="M8 16C12.4183 16 16 12.4183 16 8C16 3.58172 12.4183 0 8 0C3.58172 0 0 3.58172 0 8C0 12.4183 3.58172 16 8 16Z" fill="#F0F0F0"/>
<path d="M7.65234 8.00103H16.0002C16.0002 7.27894 15.9039 6.5795 15.7246 5.91406H7.65234V8.00103Z" fill="#D80027"/>
<path d="M7.65234 3.82525H14.826C14.3362 3.02612 13.7102 2.31978 12.9801 1.73828H7.65234V3.82525Z" fill="#D80027"/>
<path d="M7.99993 16.0008C9.88271 16.0008 11.6132 15.3501 12.9798 14.2617H3.02002C4.38661 15.3501 6.11714 16.0008 7.99993 16.0008Z" fill="#D80027"/>
<path d="M1.17423 12.1729H14.8259C15.219 11.5314 15.5239 10.8301 15.7244 10.0859H0.275635C0.476166 10.8301 0.781072 11.5314 1.17423 12.1729Z" fill="#D80027"/>
<path d="M8 8C8 3.58175 8 3.06087 8 0C3.58175 0 0 3.58175 0 8H8Z" fill="#0052B4"/>
<path d="M5.31992 6.84659C4.22736 6.84659 3.34167 5.96088 3.34167 4.86834C3.34167 3.77581 4.22739 2.89009 5.31992 2.89009C5.66058 2.89009 5.98111 2.97625 6.26095 3.12787C5.82195 2.69859 5.22158 2.43359 4.55905 2.43359C3.21439 2.43359 2.12427 3.52369 2.12427 4.86837C2.12427 6.21306 3.21439 7.30316 4.55905 7.30316C5.22158 7.30316 5.82195 7.03816 6.26095 6.60887C5.98111 6.76044 5.66061 6.84659 5.31992 6.84659Z" fill="#FFDA44"/>
<path d="M5.87732 3.47656L6.22854 4.211L7.0217 4.02775L6.66651 4.76022L7.30438 5.26606L6.5102 5.44509L6.51241 6.25919L5.87732 5.74988L5.2422 6.25919L5.24438 5.44509L4.4502 5.26606L5.08807 4.76022L4.73285 4.02775L5.52607 4.211L5.87732 3.47656Z" fill="#FFDA44"/>
</g>
<defs>
<clipPath id="clip0_4025_16774">
<rect width="16" height="16" fill="white"/>
</clipPath>
</defs>
</svg>
