<svg width="16" height="16" viewBox="0 0 16 16" fill="none" xmlns="http://www.w3.org/2000/svg">
<g id="Masculine">
<path id="Vector" d="M14.4531 1H11.7188C11.4167 1 11.1719 1.24484 11.1719 1.54688C11.1719 1.84891 11.4167 2.09375 11.7188 2.09375H13.1328L9.46005 5.76654C8.56727 5.04335 7.43109 4.60938 6.19531 4.60938C3.33059 4.60938 1 6.93996 1 9.80469C1 12.6694 3.33059 15 6.19531 15C9.06003 15 11.3906 12.6694 11.3906 9.80469C11.3906 8.56891 10.9567 7.43273 10.2335 6.53995L13.9062 2.86717V4.28125C13.9062 4.58329 14.1511 4.82812 14.4531 4.82812C14.7552 4.82812 15 4.58329 15 4.28125V1.54688C15 1.24593 14.7545 1 14.4531 1ZM10.2969 9.80469C10.2969 12.0663 8.45691 13.9062 6.19531 13.9062C3.93371 13.9062 2.09375 12.0663 2.09375 9.80469C2.09375 7.54309 3.93371 5.70312 6.19531 5.70312C8.45691 5.70312 10.2969 7.54309 10.2969 9.80469Z" fill="#DEE1E3"/>
</g>
</svg>
