<svg width="16" height="16" viewBox="0 0 16 16" fill="none" xmlns="http://www.w3.org/2000/svg">
<g id="dots-vertical-outline">
<g id="Vector">
<path d="M7.99999 4.4C8.73637 4.4 9.33332 3.86274 9.33332 3.2C9.33332 2.53726 8.73637 2 7.99999 2C7.26361 2 6.66666 2.53726 6.66666 3.2C6.66666 3.86274 7.26361 4.4 7.99999 4.4Z" fill="#545F71"/>
<path d="M7.99999 9.2C8.73637 9.2 9.33332 8.66274 9.33332 8C9.33332 7.33726 8.73637 6.8 7.99999 6.8C7.26361 6.8 6.66666 7.33726 6.66666 8C6.66666 8.66274 7.26361 9.2 7.99999 9.2Z" fill="#545F71"/>
<path d="M7.99999 14C8.73637 14 9.33332 13.4627 9.33332 12.8C9.33332 12.1373 8.73637 11.6 7.99999 11.6C7.26361 11.6 6.66666 12.1373 6.66666 12.8C6.66666 13.4627 7.26361 14 7.99999 14Z" fill="#545F71"/>
</g>
</g>
</svg>
