<svg width="16" height="16" viewBox="0 0 16 16" fill="none" xmlns="http://www.w3.org/2000/svg">
<g id="Capa_1">
<g id="Group">
<g id="Group_2">
<path id="Vector" d="M1.89956 2.28296L1.89956 2.28297C1.48254 2.67152 1.31006 3.26795 1.44528 3.8386C1.44528 3.8386 1.44528 3.8386 1.44528 3.8386L2.54981 8.5L1.44528 13.1614C1.31006 13.732 1.48251 14.3285 1.89953 14.717C2.31842 15.1073 2.89886 15.2079 3.41148 14.979L3.37071 14.8877L3.41148 14.979L14.707 9.93507C15.2602 9.68806 15.6 9.13542 15.6 8.5C15.6 7.86457 15.2602 7.31194 14.707 7.06493L3.41148 2.02097C3.41148 2.02097 3.41148 2.02097 3.41148 2.02097C2.89792 1.79161 2.31764 1.89349 1.89956 2.28296ZM14.311 8.93704L3.01555 13.981C2.86326 14.049 2.69976 14.0215 2.57282 13.9032L2.50465 13.9764L2.57282 13.9032C2.44483 13.784 2.3919 13.6067 2.4348 13.4256C2.4348 13.4256 2.4348 13.4256 2.4348 13.4256L3.47365 9.04139H7.47057C7.75913 9.04139 7.98075 8.79195 7.98075 8.49997C7.98075 8.20798 7.75913 7.95854 7.47057 7.95854H3.47368L2.4348 3.57438C2.4348 3.57438 2.4348 3.57437 2.4348 3.57437C2.3919 3.39328 2.44483 3.216 2.57282 3.09675C2.69974 2.97849 2.86318 2.95101 3.01551 3.01899C3.01551 3.019 3.01552 3.019 3.01552 3.019L14.311 8.06296C14.5573 8.17293 14.5797 8.41836 14.5797 8.5C14.5797 8.58163 14.5573 8.82707 14.311 8.93704Z" fill="white" stroke="white" stroke-width="0.2"/>
</g>
</g>
</g>
</svg>
