<svg width="49" height="48" viewBox="0 0 49 48" fill="none" xmlns="http://www.w3.org/2000/svg">
<g id="Symbols_6_">
<g id="Graphics-_x2F_-App-Icons-_x2F_-Messages">
<g id="Messages-Icon">
<path id="Background_5_" d="M31.9531 -0.00390625C36.7531 -0.00390625 39.1531 -0.00390625 41.7664 0.796094C44.5931 1.80943 46.8331 4.04943 47.8464 6.87609C48.6998 9.48943 48.6998 11.9428 48.6998 16.7428V31.2494C48.6998 36.0494 48.6998 38.4494 47.8997 41.0628C46.8864 43.8894 44.6464 46.1294 41.8198 47.1428C39.1531 47.9961 36.7531 47.9961 31.9531 47.9961H17.4464C12.6464 47.9961 10.2464 47.9961 7.63308 47.1961C4.75308 46.1294 2.56642 43.9428 1.49975 41.0628C0.699749 38.5028 0.699749 36.1028 0.699749 31.2494V16.7428C0.699749 11.9428 0.699749 9.54276 1.49975 6.92943C2.56642 4.10276 4.75308 1.86276 7.63308 0.849427C10.1931 -0.00390631 12.5931 -0.00390625 17.4464 -0.00390625H31.9531Z" fill="url(#paint0_linear_4133_31342)"/>
<path id="Vector" d="M21.9325 34.9937C22.8248 35.1211 23.717 35.2061 24.6518 35.2061C32.3847 35.2061 38.673 29.98 38.673 23.5642C38.673 17.1485 32.4272 11.9648 24.6943 11.9648C16.9613 11.9648 10.673 17.1909 10.673 23.6067C10.673 27.8131 13.3498 31.4671 17.3437 33.5066C17.3437 33.634 17.3437 33.7615 17.3437 33.9315C17.3437 35.1636 15.3043 36.7782 15.4318 36.7782C17.4712 36.7782 18.9158 35.5035 19.8931 35.2061C20.7003 34.9937 21.1677 34.9512 21.9325 34.9937Z" fill="white"/>
</g>
</g>
</g>
<defs>
<linearGradient id="paint0_linear_4133_31342" x1="24.6923" y1="0.0110271" x2="24.6923" y2="47.995" gradientUnits="userSpaceOnUse">
<stop stop-color="#67FF81"/>
<stop offset="1" stop-color="#01B41F"/>
</linearGradient>
</defs>
</svg>
