<svg width="65" height="64" viewBox="0 0 65 64" fill="none" xmlns="http://www.w3.org/2000/svg">
<g clip-path="url(#clip0_2564_6563)">
<path d="M54.6968 7.48242H3.38987C1.6585 7.48242 0.25 8.89092 0.25 10.6223V44.8269C0.25 46.5583 1.6585 47.9668 3.38987 47.9668H21.4947L20.6764 54.5138H19.4233C18.8699 54.5138 18.4211 54.9624 18.4211 55.5159C18.4211 56.0693 18.8698 56.518 19.4233 56.518H24.7677C25.3211 56.518 25.7699 56.0694 25.7699 55.5159C25.7699 54.9625 25.3212 54.5138 24.7677 54.5138H22.6963L23.5146 47.9668H24.7677C25.3211 47.9668 25.7699 47.5182 25.7699 46.9647C25.7699 46.4113 25.3212 45.9625 24.7677 45.9625H3.38987C2.76362 45.9625 2.25413 45.453 2.25413 44.8268V41.5533H24.7677C25.3211 41.5533 25.7699 41.1047 25.7699 40.5512C25.7699 39.9977 25.3212 39.549 24.7677 39.549H2.25413V10.6223C2.25413 9.99605 2.76362 9.48655 3.38987 9.48655H54.6968C55.323 9.48655 55.8325 9.99605 55.8325 10.6223V32.0002C55.8325 32.5535 56.2811 33.0023 56.8346 33.0023C57.388 33.0023 57.8368 32.5537 57.8368 32.0002V10.6223C57.8366 8.89092 56.4281 7.48242 54.6968 7.48242Z" fill="#23A991"/>
<path d="M46.1454 26.7222H31.1809C29.4495 26.7222 28.041 28.1307 28.041 29.862V53.3777C28.041 55.109 29.4495 56.5175 31.1809 56.5175H46.1454C47.8768 56.5175 49.2853 55.109 49.2853 53.3777V29.862C49.2853 28.1307 47.8768 26.7222 46.1454 26.7222ZM47.2811 53.3777C47.2811 54.0039 46.7716 54.5134 46.1454 54.5134H31.1809C30.5546 54.5134 30.0451 54.0039 30.0451 53.3777V52.2419H47.281V53.3777H47.2811ZM47.2811 50.2378H30.0451V33.0019H47.281V50.2378H47.2811ZM47.2811 30.9977H30.0451V29.8619C30.0451 29.2357 30.5546 28.7262 31.1809 28.7262H46.1454C46.7716 28.7262 47.2811 29.2357 47.2811 29.8619V30.9977Z" fill="#23A991"/>
<path d="M61.1099 35.2734H54.6965C52.9651 35.2734 51.5566 36.6819 51.5566 38.4133V53.3778C51.5566 55.1092 52.9651 56.5177 54.6965 56.5177H61.1099C62.8413 56.5177 64.2498 55.1092 64.2498 53.3778V38.4133C64.2498 36.6819 62.8413 35.2734 61.1099 35.2734ZM62.2456 53.3778C62.2456 54.0041 61.7361 54.5136 61.1099 54.5136H54.6965C54.0703 54.5136 53.5608 54.0041 53.5608 53.3778V52.2421H62.2455V53.3778H62.2456ZM62.2456 50.2379H53.5609V41.5532H62.2456V50.2379ZM62.2456 39.5491H53.5609V38.4133C53.5609 37.7871 54.0704 37.2776 54.6966 37.2776H61.11C61.7363 37.2776 62.2458 37.7871 62.2458 38.4133L62.2456 39.5491Z" fill="#23A991"/>
</g>
<defs>
<clipPath id="clip0_2564_6563">
<rect width="64" height="64" fill="white" transform="translate(0.25)"/>
</clipPath>
</defs>
</svg>
