<svg width="16" height="16" viewBox="0 0 16 16" fill="none" xmlns="http://www.w3.org/2000/svg">
<g id="paperclip" clip-path="url(#clip0_5961_48669)">
<path id="Vector" d="M11.5407 3.54021L11.5407 11.0878C11.5407 12.0124 11.1734 12.8992 10.5196 13.553C9.86577 14.2068 8.97901 14.5741 8.05437 14.5741C7.12974 14.5741 6.24297 14.2068 5.58915 13.553C4.93534 12.8992 4.56803 12.0124 4.56803 11.0878L4.56803 3.54021C4.56803 2.92379 4.8129 2.33261 5.24878 1.89673C5.68465 1.46085 6.27583 1.21598 6.89226 1.21598C7.50868 1.21598 8.09986 1.46085 8.53574 1.89673C8.97161 2.33261 9.21649 2.92379 9.21649 3.54021L9.21238 11.0919C9.21238 11.4001 9.08994 11.6957 8.87201 11.9136C8.65407 12.1316 8.35848 12.254 8.05027 12.254C7.74205 12.254 7.44646 12.1316 7.22853 11.9136C7.01059 11.6957 6.88815 11.4001 6.88815 11.0919L6.89226 4.12332" stroke="#545F71" stroke-width="1.33333" stroke-linecap="round" stroke-linejoin="round"/>
</g>
<defs>
<clipPath id="clip0_5961_48669">
<rect width="16" height="16" fill="white"/>
</clipPath>
</defs>
</svg>
