<svg width="20" height="20" viewBox="0 0 20 20" fill="none" xmlns="http://www.w3.org/2000/svg">
<g id="phone-outline">
<path id="Vector" d="M12.4381 17.5C11.9971 17.4982 11.5577 17.4485 11.1275 17.3517C9.11119 16.7831 7.29656 15.657 5.89248 14.1031C4.33703 12.6999 3.2099 10.8862 2.64093 8.87078C2.41461 7.86502 2.46155 6.81709 2.77687 5.83556C3.09219 4.85404 3.66443 3.97464 4.43428 3.28849C4.66927 3.03087 4.95725 2.82712 5.27847 2.69121C5.59968 2.5553 5.94652 2.49046 6.29517 2.50113C6.92611 2.54688 7.51681 2.82791 7.95012 3.28849L9.11735 4.45493C9.58274 4.9213 9.84408 5.55306 9.84408 6.21169C9.84408 6.87032 9.58274 7.50208 9.11735 7.96845L8.53374 8.55167C8.38054 8.70533 8.29452 8.9134 8.29452 9.13031C8.29452 9.34722 8.38054 9.55529 8.53374 9.70895L10.2846 11.4586C10.4386 11.6116 10.6469 11.6974 10.864 11.6974C11.0811 11.6974 11.2894 11.6116 11.4435 11.4586L12.0271 10.8754C12.4938 10.4101 13.1261 10.1487 13.7854 10.1487C14.4447 10.1487 15.077 10.4101 15.5437 10.8754L16.711 12.0419C17.1718 12.4746 17.453 13.0646 17.4988 13.6949C17.5096 14.0434 17.4448 14.3902 17.3088 14.7114C17.1728 15.0325 16.9689 15.3204 16.711 15.5554C16.1677 16.1519 15.5089 16.6319 14.7744 16.9662C14.0398 17.3005 13.245 17.4821 12.4381 17.5ZM6.18512 4.16916C5.96125 4.18978 5.75468 4.29823 5.61068 4.47077C5.04354 4.96138 4.61968 5.5961 4.38398 6.30774C4.14827 7.01938 4.10948 7.78147 4.2717 8.51334C4.77636 10.2172 5.74681 11.7465 7.07387 12.9292C8.2573 14.2554 9.78764 15.2252 11.4926 15.7295C12.2256 15.8909 12.9886 15.8515 13.701 15.6156C14.4135 15.3796 15.049 14.9558 15.5404 14.3889C15.6294 14.3157 15.7021 14.2248 15.7539 14.1219C15.8057 14.0191 15.8355 13.9065 15.8414 13.7915C15.8116 13.5748 15.7048 13.3761 15.5404 13.2316L14.3732 12.0652C14.2192 11.9122 14.0109 11.8264 13.7937 11.8264C13.5766 11.8264 13.3683 11.9122 13.2143 12.0652L12.6307 12.6484C12.1638 13.1133 11.5315 13.3744 10.8723 13.3744C10.2132 13.3744 9.58094 13.1133 9.11401 12.6484L7.36318 10.8987C6.89794 10.4321 6.63672 9.80026 6.63672 9.14156C6.63672 8.48286 6.89794 7.851 7.36318 7.38439L7.94679 6.80116C8.09993 6.64764 8.18593 6.43971 8.18593 6.22294C8.18593 6.00617 8.09993 5.79823 7.94679 5.64471L6.77957 4.47826C6.63482 4.31412 6.43609 4.20714 6.2193 4.17665L6.18512 4.16916Z" fill="#545F71"/>
</g>
</svg>
