<svg width="25" height="24" viewBox="0 0 25 24" fill="none" xmlns="http://www.w3.org/2000/svg">
<g id="qrcode">
<path id="Icon" d="M13.5 4C13.5 3.44772 13.0523 3 12.5 3C11.9477 3 11.5 3.44772 11.5 4H13.5ZM11.5 5C11.5 5.55228 11.9477 6 12.5 6C13.0523 6 13.5 5.55228 13.5 5H11.5ZM18.5 15C17.9477 15 17.5 15.4477 17.5 16C17.5 16.5523 17.9477 17 18.5 17V15ZM20.5 17C21.0523 17 21.5 16.5523 21.5 16C21.5 15.4477 21.0523 15 20.5 15V17ZM12.5 16V15C11.9477 15 11.5 15.4477 11.5 16H12.5ZM14.5 17C15.0523 17 15.5 16.5523 15.5 16C15.5 15.4477 15.0523 15 14.5 15V17ZM11.5 20C11.5 20.5523 11.9477 21 12.5 21C13.0523 21 13.5 20.5523 13.5 20H11.5ZM13.5 9C13.5 8.44772 13.0523 8 12.5 8C11.9477 8 11.5 8.44772 11.5 9H13.5ZM12.5 12H11.5C11.5 12.5523 11.9477 13 12.5 13V12ZM16.5 19C15.9477 19 15.5 19.4477 15.5 20C15.5 20.5523 15.9477 21 16.5 21V19ZM20.5 21C21.0523 21 21.5 20.5523 21.5 20C21.5 19.4477 21.0523 19 20.5 19V21ZM4.5 11C3.94772 11 3.5 11.4477 3.5 12C3.5 12.5523 3.94772 13 4.5 13V11ZM8.5 13C9.05228 13 9.5 12.5523 9.5 12C9.5 11.4477 9.05228 11 8.5 11V13ZM12.51 13C13.0623 13 13.51 12.5523 13.51 12C13.51 11.4477 13.0623 11 12.51 11V13ZM16.51 13C17.0623 13 17.51 12.5523 17.51 12C17.51 11.4477 17.0623 11 16.51 11V13ZM20.5 11C19.9477 11 19.5 11.4477 19.5 12C19.5 12.5523 19.9477 13 20.5 13V11ZM20.51 13C21.0623 13 21.51 12.5523 21.51 12C21.51 11.4477 21.0623 11 20.51 11V13ZM5.5 5H7.5V3H5.5V5ZM7.5 5V7H9.5V5H7.5ZM7.5 7H5.5V9H7.5V7ZM5.5 7V5H3.5V7H5.5ZM5.5 7H3.5C3.5 8.10457 4.39543 9 5.5 9V7ZM7.5 7V9C8.60457 9 9.5 8.10457 9.5 7H7.5ZM7.5 5H9.5C9.5 3.89543 8.60457 3 7.5 3V5ZM5.5 3C4.39543 3 3.5 3.89543 3.5 5H5.5V3ZM17.5 5H19.5V3H17.5V5ZM19.5 5V7H21.5V5H19.5ZM19.5 7H17.5V9H19.5V7ZM17.5 7V5H15.5V7H17.5ZM17.5 7H15.5C15.5 8.10457 16.3954 9 17.5 9V7ZM19.5 7V9C20.6046 9 21.5 8.10457 21.5 7H19.5ZM19.5 5H21.5C21.5 3.89543 20.6046 3 19.5 3V5ZM17.5 3C16.3954 3 15.5 3.89543 15.5 5H17.5V3ZM5.5 17H7.5V15H5.5V17ZM7.5 17V19H9.5V17H7.5ZM7.5 19H5.5V21H7.5V19ZM5.5 19V17H3.5V19H5.5ZM5.5 19H3.5C3.5 20.1046 4.39543 21 5.5 21V19ZM7.5 19V21C8.60457 21 9.5 20.1046 9.5 19H7.5ZM7.5 17H9.5C9.5 15.8954 8.60457 15 7.5 15V17ZM5.5 15C4.39543 15 3.5 15.8954 3.5 17H5.5V15ZM11.5 4V5H13.5V4H11.5ZM18.5 17H20.5V15H18.5V17ZM12.5 17H14.5V15H12.5V17ZM11.5 16V20H13.5V16H11.5ZM11.5 9V12H13.5V9H11.5ZM16.5 21H20.5V19H16.5V21ZM4.5 13H8.5V11H4.5V13ZM12.5 13H12.51V11H12.5V13ZM20.5 13H20.51V11H20.5V13ZM12.5 13H16.51V11H12.5V13Z" fill="#DEE1E3"/>
</g>
</svg>
