<svg width="167" height="166" viewBox="0 0 167 166" fill="none" xmlns="http://www.w3.org/2000/svg">
<rect x="0.911766" y="0.824219" width="165.176" height="165.176" rx="28.2353" fill="white"/>
<g clip-path="url(#clip0_4133_30872)">
<path d="M54.2966 12.8203C55.6514 12.8203 56.7353 13.9042 56.7353 15.2591C56.7353 16.6139 55.6514 17.6978 54.2966 17.6978C52.9417 17.6978 51.8578 16.6139 51.8578 15.2591C51.8578 13.9042 52.9417 12.8203 54.2966 12.8203Z" fill="black"/>
<path d="M68.9045 12.8203C70.2593 12.8203 71.3432 13.9042 71.3432 15.2591C71.3432 16.6139 70.2593 17.6978 68.9045 17.6978C67.5496 17.6978 66.4657 16.6139 66.4657 15.2591C66.4657 13.9042 67.5496 12.8203 68.9045 12.8203Z" fill="black"/>
<path d="M73.7573 12.8203C75.1122 12.8203 76.1961 13.9042 76.1961 15.2591C76.1961 16.6139 75.1122 17.6978 73.7573 17.6978C72.4025 17.6978 71.3186 16.6139 71.3186 15.2591C71.3186 13.9042 72.4025 12.8203 73.7573 12.8203Z" fill="black"/>
<path d="M78.6348 12.8203C79.9897 12.8203 81.0736 13.9042 81.0736 15.2591C81.0736 16.6139 79.9897 17.6978 78.6348 17.6978C77.28 17.6978 76.1961 16.6139 76.1961 15.2591C76.1961 13.9042 77.28 12.8203 78.6348 12.8203Z" fill="black"/>
<path d="M83.4877 12.8203C84.8426 12.8203 85.9265 13.9042 85.9265 15.2591C85.9265 16.6139 84.8426 17.6978 83.4877 17.6978C82.1329 17.6978 81.049 16.6139 81.049 15.2591C81.049 13.9042 82.1329 12.8203 83.4877 12.8203Z" fill="black"/>
<path d="M93.2427 12.8203C94.5975 12.8203 95.6814 13.9042 95.6814 15.2591C95.6814 16.6139 94.5975 17.6978 93.2427 17.6978C91.8878 17.6978 90.8039 16.6139 90.8039 15.2591C90.8039 13.9042 91.8878 12.8203 93.2427 12.8203Z" fill="black"/>
<path d="M102.973 12.8203C104.328 12.8203 105.412 13.9042 105.412 15.2591C105.412 16.6139 104.328 17.6978 102.973 17.6978C101.618 17.6978 100.534 16.6139 100.534 15.2591C100.534 13.9042 101.618 12.8203 102.973 12.8203Z" fill="black"/>
<path d="M59.1494 17.7031C60.5043 17.7031 61.5882 18.787 61.5882 20.1419C61.5882 21.4967 60.5043 22.5806 59.1494 22.5806C57.7946 22.5806 56.7107 21.4967 56.7107 20.1419C56.7107 18.787 57.7946 17.7031 59.1494 17.7031Z" fill="black"/>
<path d="M64.027 17.7031C65.3819 17.7031 66.4658 18.787 66.4658 20.1419C66.4658 21.4967 65.3819 22.5806 64.027 22.5806C62.6722 22.5806 61.5883 21.4967 61.5883 20.1419C61.5883 18.787 62.6722 17.7031 64.027 17.7031Z" fill="black"/>
<path d="M73.7573 17.7031C75.1122 17.7031 76.1961 18.787 76.1961 20.1419C76.1961 21.4967 75.1122 22.5806 73.7573 22.5806C72.4025 22.5806 71.3186 21.4967 71.3186 20.1419C71.3186 18.787 72.4025 17.7031 73.7573 17.7031Z" fill="black"/>
<path d="M78.6348 17.7031C79.9897 17.7031 81.0736 18.787 81.0736 20.1419C81.0736 21.4967 79.9897 22.5806 78.6348 22.5806C77.2799 22.5806 76.1961 21.4967 76.1961 20.1419C76.1961 18.787 77.2799 17.7031 78.6348 17.7031Z" fill="black"/>
<path d="M83.4877 17.7031C84.8425 17.7031 85.9264 18.787 85.9264 20.1419C85.9264 21.4967 84.8425 22.5806 83.4877 22.5806C82.1328 22.5806 81.0489 21.4967 81.0489 20.1419C81.0489 18.787 82.1328 17.7031 83.4877 17.7031Z" fill="black"/>
<path d="M88.3652 17.7031C89.7201 17.7031 90.804 18.787 90.804 20.1419C90.804 21.4967 89.7201 22.5806 88.3652 22.5806C87.0104 22.5806 85.9265 21.4967 85.9265 20.1419C85.9265 18.787 87.0104 17.7031 88.3652 17.7031Z" fill="black"/>
<path d="M107.826 17.7031C109.181 17.7031 110.265 18.787 110.265 20.1419C110.265 21.4967 109.181 22.5806 107.826 22.5806C106.471 22.5806 105.387 21.4967 105.387 20.1419C105.387 18.787 106.471 17.7031 107.826 17.7031Z" fill="black"/>
<path d="M112.703 17.7031C114.058 17.7031 115.142 18.787 115.142 20.1419C115.142 21.4967 114.058 22.5806 112.703 22.5806C111.349 22.5806 110.265 21.4967 110.265 20.1419C110.265 18.787 111.349 17.7031 112.703 17.7031Z" fill="black"/>
<path d="M64.027 22.5547C65.3819 22.5547 66.4658 23.6386 66.4658 24.9934C66.4658 26.3483 65.3819 27.4322 64.027 27.4322C62.6722 27.4322 61.5883 26.3483 61.5883 24.9934C61.5883 23.6386 62.6722 22.5547 64.027 22.5547Z" fill="black"/>
<path d="M73.7573 22.5547C75.1122 22.5547 76.1961 23.6386 76.1961 24.9934C76.1961 26.3483 75.1122 27.4322 73.7573 27.4322C72.4025 27.4322 71.3186 26.3483 71.3186 24.9934C71.3186 23.6386 72.4025 22.5547 73.7573 22.5547Z" fill="black"/>
<path d="M83.4878 22.5547C84.8426 22.5547 85.9265 23.6386 85.9265 24.9934C85.9265 26.3483 84.8426 27.4322 83.4878 27.4322C82.1329 27.4322 81.049 26.3483 81.049 24.9934C81.049 23.6386 82.1329 22.5547 83.4878 22.5547Z" fill="black"/>
<path d="M98.0956 22.5547C99.4504 22.5547 100.534 23.6386 100.534 24.9934C100.534 26.3483 99.4504 27.4322 98.0956 27.4322C96.7407 27.4322 95.6568 26.3483 95.6568 24.9934C95.6568 23.6386 96.7407 22.5547 98.0956 22.5547Z" fill="black"/>
<path d="M102.973 22.5547C104.328 22.5547 105.412 23.6386 105.412 24.9934C105.412 26.3483 104.328 27.4322 102.973 27.4322C101.618 27.4322 100.534 26.3483 100.534 24.9934C100.534 23.6386 101.618 22.5547 102.973 22.5547Z" fill="black"/>
<path d="M107.826 22.5547C109.181 22.5547 110.265 23.6386 110.265 24.9934C110.265 26.3483 109.181 27.4322 107.826 27.4322C106.471 27.4322 105.387 26.3483 105.387 24.9934C105.387 23.6386 106.471 22.5547 107.826 22.5547Z" fill="black"/>
<path d="M112.703 22.5547C114.058 22.5547 115.142 23.6386 115.142 24.9934C115.142 26.3483 114.058 27.4322 112.703 27.4322C111.349 27.4322 110.265 26.3483 110.265 24.9934C110.265 23.6386 111.349 22.5547 112.703 22.5547Z" fill="black"/>
<path d="M54.2966 27.4297C55.6514 27.4297 56.7353 28.5136 56.7353 29.8684C56.7353 31.2233 55.6514 32.3072 54.2966 32.3072C52.9417 32.3072 51.8578 31.2233 51.8578 29.8684C51.8578 28.5136 52.9417 27.4297 54.2966 27.4297Z" fill="black"/>
<path d="M59.1495 27.4297C60.5044 27.4297 61.5883 28.5136 61.5883 29.8684C61.5883 31.2233 60.5044 32.3072 59.1495 32.3072C57.7947 32.3072 56.7108 31.2233 56.7108 29.8684C56.7108 28.5136 57.7947 27.4297 59.1495 27.4297Z" fill="black"/>
<path d="M102.973 27.4297C104.328 27.4297 105.412 28.5136 105.412 29.8684C105.412 31.2233 104.328 32.3072 102.973 32.3072C101.618 32.3072 100.534 31.2233 100.534 29.8684C100.534 28.5136 101.618 27.4297 102.973 27.4297Z" fill="black"/>
<path d="M107.826 27.4297C109.181 27.4297 110.265 28.5136 110.265 29.8684C110.265 31.2233 109.181 32.3072 107.826 32.3072C106.471 32.3072 105.387 31.2233 105.387 29.8684C105.387 28.5136 106.471 27.4297 107.826 27.4297Z" fill="black"/>
<path d="M54.2966 32.2852C55.6514 32.2852 56.7353 33.369 56.7353 34.7239C56.7353 36.0788 55.6514 37.1627 54.2966 37.1627C52.9417 37.1627 51.8578 36.0788 51.8578 34.7239C51.8578 33.369 52.9417 32.2852 54.2966 32.2852Z" fill="black"/>
<path d="M64.027 32.2852C65.3819 32.2852 66.4658 33.369 66.4658 34.7239C66.4658 36.0788 65.3819 37.1627 64.027 37.1627C62.6722 37.1627 61.5883 36.0788 61.5883 34.7239C61.5883 33.369 62.6722 32.2852 64.027 32.2852Z" fill="black"/>
<path d="M73.7573 32.2852C75.1122 32.2852 76.1961 33.369 76.1961 34.7239C76.1961 36.0788 75.1122 37.1627 73.7573 37.1627C72.4025 37.1627 71.3186 36.0788 71.3186 34.7239C71.3186 33.369 72.4025 32.2852 73.7573 32.2852Z" fill="black"/>
<path d="M102.973 32.2852C104.328 32.2852 105.412 33.369 105.412 34.7239C105.412 36.0788 104.328 37.1627 102.973 37.1627C101.618 37.1627 100.534 36.0788 100.534 34.7239C100.534 33.369 101.618 32.2852 102.973 32.2852Z" fill="black"/>
<path d="M112.703 32.2852C114.058 32.2852 115.142 33.369 115.142 34.7239C115.142 36.0788 114.058 37.1627 112.703 37.1627C111.349 37.1627 110.265 36.0788 110.265 34.7239C110.265 33.369 111.349 32.2852 112.703 32.2852Z" fill="black"/>
<path d="M54.2966 37.1602C55.6514 37.1602 56.7353 38.244 56.7353 39.5989C56.7353 40.9538 55.6514 42.0377 54.2966 42.0377C52.9417 42.0377 51.8578 40.9538 51.8578 39.5989C51.8578 38.244 52.9417 37.1602 54.2966 37.1602Z" fill="black"/>
<path d="M68.9044 37.1602C70.2593 37.1602 71.3432 38.244 71.3432 39.5989C71.3432 40.9538 70.2593 42.0377 68.9044 42.0377C67.5496 42.0377 66.4657 40.9538 66.4657 39.5989C66.4657 38.244 67.5496 37.1602 68.9044 37.1602Z" fill="black"/>
<path d="M73.7573 37.1602C75.1122 37.1602 76.1961 38.244 76.1961 39.5989C76.1961 40.9538 75.1122 42.0377 73.7573 42.0377C72.4025 42.0377 71.3186 40.9538 71.3186 39.5989C71.3186 38.244 72.4025 37.1602 73.7573 37.1602Z" fill="black"/>
<path d="M93.2427 37.1602C94.5975 37.1602 95.6814 38.244 95.6814 39.5989C95.6814 40.9538 94.5975 42.0377 93.2427 42.0377C91.8878 42.0377 90.8039 40.9538 90.8039 39.5989C90.8039 38.244 91.8878 37.1602 93.2427 37.1602Z" fill="black"/>
<path d="M102.973 37.1602C104.328 37.1602 105.412 38.244 105.412 39.5989C105.412 40.9538 104.328 42.0377 102.973 42.0377C101.618 42.0377 100.534 40.9538 100.534 39.5989C100.534 38.244 101.618 37.1602 102.973 37.1602Z" fill="black"/>
<path d="M107.826 37.1602C109.181 37.1602 110.265 38.244 110.265 39.5989C110.265 40.9538 109.181 42.0377 107.826 42.0377C106.471 42.0377 105.387 40.9538 105.387 39.5989C105.387 38.244 106.471 37.1602 107.826 37.1602Z" fill="black"/>
<path d="M54.2966 42.0391C55.6514 42.0391 56.7353 43.123 56.7353 44.4778C56.7353 45.8327 55.6514 46.9166 54.2966 46.9166C52.9417 46.9166 51.8578 45.8327 51.8578 44.4778C51.8578 43.123 52.9417 42.0391 54.2966 42.0391Z" fill="black"/>
<path d="M64.027 42.0391C65.3819 42.0391 66.4658 43.123 66.4658 44.4778C66.4658 45.8327 65.3819 46.9166 64.027 46.9166C62.6722 46.9166 61.5883 45.8327 61.5883 44.4778C61.5883 43.123 62.6722 42.0391 64.027 42.0391Z" fill="black"/>
<path d="M73.7573 42.0391C75.1122 42.0391 76.1961 43.123 76.1961 44.4778C76.1961 45.8327 75.1122 46.9166 73.7573 46.9166C72.4025 46.9166 71.3186 45.8327 71.3186 44.4778C71.3186 43.123 72.4025 42.0391 73.7573 42.0391Z" fill="black"/>
<path d="M83.4878 42.0391C84.8426 42.0391 85.9265 43.123 85.9265 44.4778C85.9265 45.8327 84.8426 46.9166 83.4878 46.9166C82.1329 46.9166 81.049 45.8327 81.049 44.4778C81.049 43.123 82.1329 42.0391 83.4878 42.0391Z" fill="black"/>
<path d="M93.2427 42.0391C94.5975 42.0391 95.6814 43.123 95.6814 44.4778C95.6814 45.8327 94.5975 46.9166 93.2427 46.9166C91.8878 46.9166 90.8039 45.8327 90.8039 44.4778C90.8039 43.123 91.8878 42.0391 93.2427 42.0391Z" fill="black"/>
<path d="M102.973 42.0391C104.328 42.0391 105.412 43.123 105.412 44.4778C105.412 45.8327 104.328 46.9166 102.973 46.9166C101.618 46.9166 100.534 45.8327 100.534 44.4778C100.534 43.123 101.618 42.0391 102.973 42.0391Z" fill="black"/>
<path d="M112.703 42.0391C114.058 42.0391 115.142 43.123 115.142 44.4778C115.142 45.8327 114.058 46.9166 112.703 46.9166C111.349 46.9166 110.265 45.8327 110.265 44.4778C110.265 43.123 111.349 42.0391 112.703 42.0391Z" fill="black"/>
<path d="M54.2966 46.8906C55.6514 46.8906 56.7353 47.9745 56.7353 49.3294C56.7353 50.6842 55.6514 51.7681 54.2966 51.7681C52.9417 51.7681 51.8578 50.6842 51.8578 49.3294C51.8578 47.9745 52.9417 46.8906 54.2966 46.8906Z" fill="black"/>
<path d="M59.1495 46.8906C60.5043 46.8906 61.5882 47.9745 61.5882 49.3294C61.5882 50.6842 60.5043 51.7681 59.1495 51.7681C57.7946 51.7681 56.7107 50.6842 56.7107 49.3294C56.7107 47.9745 57.7946 46.8906 59.1495 46.8906Z" fill="black"/>
<path d="M64.027 46.8906C65.3819 46.8906 66.4658 47.9745 66.4658 49.3294C66.4658 50.6842 65.3819 51.7681 64.027 51.7681C62.6722 51.7681 61.5883 50.6842 61.5883 49.3294C61.5883 47.9745 62.6722 46.8906 64.027 46.8906Z" fill="black"/>
<path d="M68.9045 46.8906C70.2593 46.8906 71.3432 47.9745 71.3432 49.3294C71.3432 50.6842 70.2593 51.7681 68.9045 51.7681C67.5496 51.7681 66.4657 50.6842 66.4657 49.3294C66.4657 47.9745 67.5496 46.8906 68.9045 46.8906Z" fill="black"/>
<path d="M73.7573 46.8906C75.1122 46.8906 76.1961 47.9745 76.1961 49.3294C76.1961 50.6842 75.1122 51.7681 73.7573 51.7681C72.4025 51.7681 71.3186 50.6842 71.3186 49.3294C71.3186 47.9745 72.4025 46.8906 73.7573 46.8906Z" fill="black"/>
<path d="M78.6348 46.8906C79.9897 46.8906 81.0736 47.9745 81.0736 49.3294C81.0736 50.6842 79.9897 51.7681 78.6348 51.7681C77.28 51.7681 76.1961 50.6842 76.1961 49.3294C76.1961 47.9745 77.28 46.8906 78.6348 46.8906Z" fill="black"/>
<path d="M88.3652 46.8906C89.7201 46.8906 90.804 47.9745 90.804 49.3294C90.804 50.6842 89.7201 51.7681 88.3652 51.7681C87.0104 51.7681 85.9265 50.6842 85.9265 49.3294C85.9265 47.9745 87.0104 46.8906 88.3652 46.8906Z" fill="black"/>
<path d="M93.2427 46.8906C94.5975 46.8906 95.6814 47.9745 95.6814 49.3294C95.6814 50.6842 94.5975 51.7681 93.2427 51.7681C91.8878 51.7681 90.8039 50.6842 90.8039 49.3294C90.8039 47.9745 91.8878 46.8906 93.2427 46.8906Z" fill="black"/>
<path d="M98.0956 46.8906C99.4504 46.8906 100.534 47.9745 100.534 49.3294C100.534 50.6842 99.4504 51.7681 98.0956 51.7681C96.7407 51.7681 95.6568 50.6842 95.6568 49.3294C95.6568 47.9745 96.7407 46.8906 98.0956 46.8906Z" fill="black"/>
<path d="M102.973 46.8906C104.328 46.8906 105.412 47.9745 105.412 49.3294C105.412 50.6842 104.328 51.7681 102.973 51.7681C101.618 51.7681 100.534 50.6842 100.534 49.3294C100.534 47.9745 101.618 46.8906 102.973 46.8906Z" fill="black"/>
<path d="M107.826 46.8906C109.181 46.8906 110.265 47.9745 110.265 49.3294C110.265 50.6842 109.181 51.7681 107.826 51.7681C106.471 51.7681 105.387 50.6842 105.387 49.3294C105.387 47.9745 106.471 46.8906 107.826 46.8906Z" fill="black"/>
<path d="M15.3505 51.7656C16.7054 51.7656 17.7893 52.8495 17.7893 54.2044C17.7893 55.5592 16.7054 56.6431 15.3505 56.6431C13.9957 56.6431 12.9118 55.5592 12.9118 54.2044C12.9118 52.8495 13.9957 51.7656 15.3505 51.7656Z" fill="black"/>
<path d="M34.8113 51.7656C36.1661 51.7656 37.25 52.8495 37.25 54.2044C37.25 55.5592 36.1661 56.6431 34.8113 56.6431C33.4564 56.6431 32.3725 55.5592 32.3725 54.2044C32.3725 52.8495 33.4564 51.7656 34.8113 51.7656Z" fill="black"/>
<path d="M44.5417 51.7656C45.8965 51.7656 46.9804 52.8495 46.9804 54.2044C46.9804 55.5592 45.8965 56.6431 44.5417 56.6431C43.1868 56.6431 42.1029 55.5592 42.1029 54.2044C42.1029 52.8495 43.1868 51.7656 44.5417 51.7656Z" fill="black"/>
<path d="M49.4191 51.7656C50.7739 51.7656 51.8578 52.8495 51.8578 54.2044C51.8578 55.5592 50.7739 56.6431 49.4191 56.6431C48.0642 56.6431 46.9803 55.5592 46.9803 54.2044C46.9803 52.8495 48.0642 51.7656 49.4191 51.7656Z" fill="black"/>
<path d="M54.2966 51.7656C55.6514 51.7656 56.7353 52.8495 56.7353 54.2044C56.7353 55.5592 55.6514 56.6431 54.2966 56.6431C52.9417 56.6431 51.8578 55.5592 51.8578 54.2044C51.8578 52.8495 52.9417 51.7656 54.2966 51.7656Z" fill="black"/>
<path d="M59.1495 51.7656C60.5044 51.7656 61.5883 52.8495 61.5883 54.2044C61.5883 55.5592 60.5044 56.6431 59.1495 56.6431C57.7947 56.6431 56.7108 55.5592 56.7108 54.2044C56.7108 52.8495 57.7947 51.7656 59.1495 51.7656Z" fill="black"/>
<path d="M68.9045 51.7656C70.2593 51.7656 71.3432 52.8495 71.3432 54.2044C71.3432 55.5592 70.2593 56.6431 68.9045 56.6431C67.5496 56.6431 66.4657 55.5592 66.4657 54.2044C66.4657 52.8495 67.5496 51.7656 68.9045 51.7656Z" fill="black"/>
<path d="M78.6348 51.7656C79.9897 51.7656 81.0736 52.8495 81.0736 54.2044C81.0736 55.5592 79.9897 56.6431 78.6348 56.6431C77.28 56.6431 76.1961 55.5592 76.1961 54.2044C76.1961 52.8495 77.28 51.7656 78.6348 51.7656Z" fill="black"/>
<path d="M98.0956 51.7656C99.4504 51.7656 100.534 52.8495 100.534 54.2044C100.534 55.5592 99.4504 56.6431 98.0956 56.6431C96.7407 56.6431 95.6568 55.5592 95.6568 54.2044C95.6568 52.8495 96.7407 51.7656 98.0956 51.7656Z" fill="black"/>
<path d="M112.703 51.7656C114.058 51.7656 115.142 52.8495 115.142 54.2044C115.142 55.5592 114.058 56.6431 112.703 56.6431C111.349 56.6431 110.265 55.5592 110.265 54.2044C110.265 52.8495 111.349 51.7656 112.703 51.7656Z" fill="black"/>
<path d="M117.581 51.7656C118.936 51.7656 120.02 52.8495 120.02 54.2044C120.02 55.5592 118.936 56.6431 117.581 56.6431C116.226 56.6431 115.142 55.5592 115.142 54.2044C115.142 52.8495 116.226 51.7656 117.581 51.7656Z" fill="black"/>
<path d="M122.434 51.7656C123.789 51.7656 124.873 52.8495 124.873 54.2044C124.873 55.5592 123.789 56.6431 122.434 56.6431C121.079 56.6431 119.995 55.5592 119.995 54.2044C119.995 52.8495 121.079 51.7656 122.434 51.7656Z" fill="black"/>
<path d="M127.311 51.7656C128.666 51.7656 129.75 52.8495 129.75 54.2044C129.75 55.5592 128.666 56.6431 127.311 56.6431C125.956 56.6431 124.873 55.5592 124.873 54.2044C124.873 52.8495 125.956 51.7656 127.311 51.7656Z" fill="black"/>
<path d="M132.189 51.7656C133.544 51.7656 134.628 52.8495 134.628 54.2044C134.628 55.5592 133.544 56.6431 132.189 56.6431C130.834 56.6431 129.75 55.5592 129.75 54.2044C129.75 52.8495 130.834 51.7656 132.189 51.7656Z" fill="black"/>
<path d="M137.042 51.7656C138.397 51.7656 139.48 52.8495 139.48 54.2044C139.48 55.5592 138.397 56.6431 137.042 56.6431C135.687 56.6431 134.603 55.5592 134.603 54.2044C134.603 52.8495 135.687 51.7656 137.042 51.7656Z" fill="black"/>
<path d="M151.65 51.7656C153.004 51.7656 154.088 52.8495 154.088 54.2044C154.088 55.5592 153.004 56.6431 151.65 56.6431C150.295 56.6431 149.211 55.5592 149.211 54.2044C149.211 52.8495 150.295 51.7656 151.65 51.7656Z" fill="black"/>
<path d="M20.2034 56.6484C21.5583 56.6484 22.6422 57.7323 22.6422 59.0872C22.6422 60.442 21.5583 61.5259 20.2034 61.5259C18.8486 61.5259 17.7647 60.442 17.7647 59.0872C17.7647 57.7323 18.8486 56.6484 20.2034 56.6484Z" fill="black"/>
<path d="M25.0809 56.6484C26.4358 56.6484 27.5197 57.7323 27.5197 59.0872C27.5197 60.442 26.4358 61.5259 25.0809 61.5259C23.7261 61.5259 22.6422 60.442 22.6422 59.0872C22.6422 57.7323 23.7261 56.6484 25.0809 56.6484Z" fill="black"/>
<path d="M34.8113 56.6484C36.1661 56.6484 37.25 57.7323 37.25 59.0872C37.25 60.442 36.1661 61.5259 34.8113 61.5259C33.4564 61.5259 32.3725 60.442 32.3725 59.0872C32.3725 57.7323 33.4564 56.6484 34.8113 56.6484Z" fill="black"/>
<path d="M39.6888 56.6484C41.0436 56.6484 42.1275 57.7323 42.1275 59.0872C42.1275 60.442 41.0436 61.5259 39.6888 61.5259C38.3339 61.5259 37.25 60.442 37.25 59.0872C37.25 57.7323 38.3339 56.6484 39.6888 56.6484Z" fill="black"/>
<path d="M49.4191 56.6484C50.7739 56.6484 51.8578 57.7323 51.8578 59.0872C51.8578 60.442 50.7739 61.5259 49.4191 61.5259C48.0642 61.5259 46.9803 60.442 46.9803 59.0872C46.9803 57.7323 48.0642 56.6484 49.4191 56.6484Z" fill="black"/>
<path d="M78.6348 56.6484C79.9897 56.6484 81.0736 57.7323 81.0736 59.0872C81.0736 60.442 79.9897 61.5259 78.6348 61.5259C77.28 61.5259 76.1961 60.442 76.1961 59.0872C76.1961 57.7323 77.28 56.6484 78.6348 56.6484Z" fill="black"/>
<path d="M83.4877 56.6484C84.8426 56.6484 85.9265 57.7323 85.9265 59.0872C85.9265 60.442 84.8426 61.5259 83.4877 61.5259C82.1329 61.5259 81.049 60.442 81.049 59.0872C81.049 57.7323 82.1329 56.6484 83.4877 56.6484Z" fill="black"/>
<path d="M93.2427 56.6484C94.5975 56.6484 95.6814 57.7323 95.6814 59.0872C95.6814 60.442 94.5975 61.5259 93.2427 61.5259C91.8878 61.5259 90.8039 60.442 90.8039 59.0872C90.8039 57.7323 91.8878 56.6484 93.2427 56.6484Z" fill="black"/>
<path d="M117.581 56.6484C118.936 56.6484 120.02 57.7323 120.02 59.0872C120.02 60.442 118.936 61.5259 117.581 61.5259C116.226 61.5259 115.142 60.442 115.142 59.0872C115.142 57.7323 116.226 56.6484 117.581 56.6484Z" fill="black"/>
<path d="M122.434 56.6484C123.789 56.6484 124.873 57.7323 124.873 59.0872C124.873 60.442 123.789 61.5259 122.434 61.5259C121.079 61.5259 119.995 60.442 119.995 59.0872C119.995 57.7323 121.079 56.6484 122.434 56.6484Z" fill="black"/>
<path d="M127.311 56.6484C128.666 56.6484 129.75 57.7323 129.75 59.0872C129.75 60.442 128.666 61.5259 127.311 61.5259C125.956 61.5259 124.873 60.442 124.873 59.0872C124.873 57.7323 125.956 56.6484 127.311 56.6484Z" fill="black"/>
<path d="M132.189 56.6484C133.544 56.6484 134.628 57.7323 134.628 59.0872C134.628 60.442 133.544 61.5259 132.189 61.5259C130.834 61.5259 129.75 60.442 129.75 59.0872C129.75 57.7323 130.834 56.6484 132.189 56.6484Z" fill="black"/>
<path d="M137.042 56.6484C138.397 56.6484 139.48 57.7323 139.48 59.0872C139.48 60.442 138.397 61.5259 137.042 61.5259C135.687 61.5259 134.603 60.442 134.603 59.0872C134.603 57.7323 135.687 56.6484 137.042 56.6484Z" fill="black"/>
<path d="M141.919 56.6484C143.274 56.6484 144.358 57.7323 144.358 59.0872C144.358 60.442 143.274 61.5259 141.919 61.5259C140.564 61.5259 139.48 60.442 139.48 59.0872C139.48 57.7323 140.564 56.6484 141.919 56.6484Z" fill="black"/>
<path d="M146.772 56.6484C148.127 56.6484 149.211 57.7323 149.211 59.0872C149.211 60.442 148.127 61.5259 146.772 61.5259C145.417 61.5259 144.333 60.442 144.333 59.0872C144.333 57.7323 145.417 56.6484 146.772 56.6484Z" fill="black"/>
<path d="M151.65 56.6484C153.004 56.6484 154.088 57.7323 154.088 59.0872C154.088 60.442 153.004 61.5259 151.65 61.5259C150.295 61.5259 149.211 60.442 149.211 59.0872C149.211 57.7323 150.295 56.6484 151.65 56.6484Z" fill="black"/>
<path d="M15.3505 61.5C16.7054 61.5 17.7893 62.5839 17.7893 63.9387C17.7893 65.2936 16.7054 66.3775 15.3505 66.3775C13.9957 66.3775 12.9118 65.2936 12.9118 63.9387C12.9118 62.5839 13.9957 61.5 15.3505 61.5Z" fill="black"/>
<path d="M20.2034 61.5C21.5583 61.5 22.6422 62.5839 22.6422 63.9387C22.6422 65.2936 21.5583 66.3775 20.2034 66.3775C18.8486 66.3775 17.7647 65.2936 17.7647 63.9387C17.7647 62.5839 18.8486 61.5 20.2034 61.5Z" fill="black"/>
<path d="M25.0809 61.5C26.4358 61.5 27.5197 62.5839 27.5197 63.9387C27.5197 65.2936 26.4358 66.3775 25.0809 66.3775C23.7261 66.3775 22.6422 65.2936 22.6422 63.9387C22.6422 62.5839 23.7261 61.5 25.0809 61.5Z" fill="black"/>
<path d="M34.8112 61.5C36.1661 61.5 37.25 62.5839 37.25 63.9387C37.25 65.2936 36.1661 66.3775 34.8112 66.3775C33.4563 66.3775 32.3725 65.2936 32.3725 63.9387C32.3725 62.5839 33.4563 61.5 34.8112 61.5Z" fill="black"/>
<path d="M44.5416 61.5C45.8965 61.5 46.9804 62.5839 46.9804 63.9387C46.9804 65.2936 45.8965 66.3775 44.5416 66.3775C43.1868 66.3775 42.1029 65.2936 42.1029 63.9387C42.1029 62.5839 43.1868 61.5 44.5416 61.5Z" fill="black"/>
<path d="M68.9044 61.5C70.2593 61.5 71.3432 62.5839 71.3432 63.9387C71.3432 65.2936 70.2593 66.3775 68.9044 66.3775C67.5496 66.3775 66.4657 65.2936 66.4657 63.9387C66.4657 62.5839 67.5496 61.5 68.9044 61.5Z" fill="black"/>
<path d="M93.2427 61.5C94.5975 61.5 95.6814 62.5839 95.6814 63.9387C95.6814 65.2936 94.5975 66.3775 93.2427 66.3775C91.8878 66.3775 90.8039 65.2936 90.8039 63.9387C90.8039 62.5839 91.8878 61.5 93.2427 61.5Z" fill="black"/>
<path d="M112.703 61.5C114.058 61.5 115.142 62.5839 115.142 63.9387C115.142 65.2936 114.058 66.3775 112.703 66.3775C111.349 66.3775 110.265 65.2936 110.265 63.9387C110.265 62.5839 111.349 61.5 112.703 61.5Z" fill="black"/>
<path d="M122.434 61.5C123.789 61.5 124.873 62.5839 124.873 63.9387C124.873 65.2936 123.789 66.3775 122.434 66.3775C121.079 66.3775 119.995 65.2936 119.995 63.9387C119.995 62.5839 121.079 61.5 122.434 61.5Z" fill="black"/>
<path d="M132.189 61.5C133.544 61.5 134.628 62.5839 134.628 63.9387C134.628 65.2936 133.544 66.3775 132.189 66.3775C130.834 66.3775 129.75 65.2936 129.75 63.9387C129.75 62.5839 130.834 61.5 132.189 61.5Z" fill="black"/>
<path d="M151.65 61.5C153.004 61.5 154.088 62.5839 154.088 63.9387C154.088 65.2936 153.004 66.3775 151.65 66.3775C150.295 66.3775 149.211 65.2936 149.211 63.9387C149.211 62.5839 150.295 61.5 151.65 61.5Z" fill="black"/>
<path d="M15.3505 66.375C16.7054 66.375 17.7893 67.4589 17.7893 68.8137C17.7893 70.1686 16.7054 71.2525 15.3505 71.2525C13.9957 71.2525 12.9118 70.1686 12.9118 68.8137C12.9118 67.4589 13.9957 66.375 15.3505 66.375Z" fill="black"/>
<path d="M20.2034 66.375C21.5583 66.375 22.6422 67.4589 22.6422 68.8137C22.6422 70.1686 21.5583 71.2525 20.2034 71.2525C18.8486 71.2525 17.7647 70.1686 17.7647 68.8137C17.7647 67.4589 18.8486 66.375 20.2034 66.375Z" fill="black"/>
<path d="M34.8113 66.375C36.1661 66.375 37.25 67.4589 37.25 68.8137C37.25 70.1686 36.1661 71.2525 34.8113 71.2525C33.4564 71.2525 32.3725 70.1686 32.3725 68.8137C32.3725 67.4589 33.4564 66.375 34.8113 66.375Z" fill="black"/>
<path d="M49.4191 66.375C50.7739 66.375 51.8578 67.4589 51.8578 68.8137C51.8578 70.1686 50.7739 71.2525 49.4191 71.2525C48.0642 71.2525 46.9803 70.1686 46.9803 68.8137C46.9803 67.4589 48.0642 66.375 49.4191 66.375Z" fill="black"/>
<path d="M59.1495 66.375C60.5044 66.375 61.5883 67.4589 61.5883 68.8137C61.5883 70.1686 60.5044 71.2525 59.1495 71.2525C57.7947 71.2525 56.7108 70.1686 56.7108 68.8137C56.7108 67.4589 57.7947 66.375 59.1495 66.375Z" fill="black"/>
<path d="M73.7573 66.375C75.1122 66.375 76.1961 67.4589 76.1961 68.8137C76.1961 70.1686 75.1122 71.2525 73.7573 71.2525C72.4025 71.2525 71.3186 70.1686 71.3186 68.8137C71.3186 67.4589 72.4025 66.375 73.7573 66.375Z" fill="black"/>
<path d="M83.4877 66.375C84.8426 66.375 85.9265 67.4589 85.9265 68.8137C85.9265 70.1686 84.8426 71.2525 83.4877 71.2525C82.1329 71.2525 81.049 70.1686 81.049 68.8137C81.049 67.4589 82.1329 66.375 83.4877 66.375Z" fill="black"/>
<path d="M98.0956 66.375C99.4504 66.375 100.534 67.4589 100.534 68.8137C100.534 70.1686 99.4504 71.2525 98.0956 71.2525C96.7407 71.2525 95.6568 70.1686 95.6568 68.8137C95.6568 67.4589 96.7407 66.375 98.0956 66.375Z" fill="black"/>
<path d="M112.703 66.375C114.058 66.375 115.142 67.4589 115.142 68.8137C115.142 70.1686 114.058 71.2525 112.703 71.2525C111.349 71.2525 110.265 70.1686 110.265 68.8137C110.265 67.4589 111.349 66.375 112.703 66.375Z" fill="black"/>
<path d="M117.581 66.375C118.936 66.375 120.02 67.4589 120.02 68.8137C120.02 70.1686 118.936 71.2525 117.581 71.2525C116.226 71.2525 115.142 70.1686 115.142 68.8137C115.142 67.4589 116.226 66.375 117.581 66.375Z" fill="black"/>
<path d="M122.434 66.375C123.789 66.375 124.873 67.4589 124.873 68.8137C124.873 70.1686 123.789 71.2525 122.434 71.2525C121.079 71.2525 119.995 70.1686 119.995 68.8137C119.995 67.4589 121.079 66.375 122.434 66.375Z" fill="black"/>
<path d="M127.311 66.375C128.666 66.375 129.75 67.4589 129.75 68.8137C129.75 70.1686 128.666 71.2525 127.311 71.2525C125.956 71.2525 124.873 70.1686 124.873 68.8137C124.873 67.4589 125.956 66.375 127.311 66.375Z" fill="black"/>
<path d="M132.189 66.375C133.544 66.375 134.628 67.4589 134.628 68.8137C134.628 70.1686 133.544 71.2525 132.189 71.2525C130.834 71.2525 129.75 70.1686 129.75 68.8137C129.75 67.4589 130.834 66.375 132.189 66.375Z" fill="black"/>
<path d="M137.042 66.375C138.397 66.375 139.48 67.4589 139.48 68.8137C139.48 70.1686 138.397 71.2525 137.042 71.2525C135.687 71.2525 134.603 70.1686 134.603 68.8137C134.603 67.4589 135.687 66.375 137.042 66.375Z" fill="black"/>
<path d="M146.772 66.375C148.127 66.375 149.211 67.4589 149.211 68.8137C149.211 70.1686 148.127 71.2525 146.772 71.2525C145.417 71.2525 144.333 70.1686 144.333 68.8137C144.333 67.4589 145.417 66.375 146.772 66.375Z" fill="black"/>
<path d="M151.65 66.375C153.004 66.375 154.088 67.4589 154.088 68.8137C154.088 70.1686 153.004 71.2525 151.65 71.2525C150.295 71.2525 149.211 70.1686 149.211 68.8137C149.211 67.4589 150.295 66.375 151.65 66.375Z" fill="black"/>
<path d="M15.3505 71.2305C16.7054 71.2305 17.7893 72.3144 17.7893 73.6692C17.7893 75.0241 16.7054 76.108 15.3505 76.108C13.9957 76.108 12.9118 75.0241 12.9118 73.6692C12.9118 72.3144 13.9957 71.2305 15.3505 71.2305Z" fill="black"/>
<path d="M20.2034 71.2305C21.5583 71.2305 22.6422 72.3144 22.6422 73.6692C22.6422 75.0241 21.5583 76.108 20.2034 76.108C18.8486 76.108 17.7647 75.0241 17.7647 73.6692C17.7647 72.3144 18.8486 71.2305 20.2034 71.2305Z" fill="black"/>
<path d="M29.9584 71.2305C31.3133 71.2305 32.3972 72.3144 32.3972 73.6692C32.3972 75.0241 31.3133 76.108 29.9584 76.108C28.6036 76.108 27.5197 75.0241 27.5197 73.6692C27.5197 72.3144 28.6036 71.2305 29.9584 71.2305Z" fill="black"/>
<path d="M44.5417 71.2305C45.8965 71.2305 46.9804 72.3144 46.9804 73.6692C46.9804 75.0241 45.8965 76.108 44.5417 76.108C43.1868 76.108 42.1029 75.0241 42.1029 73.6692C42.1029 72.3144 43.1868 71.2305 44.5417 71.2305Z" fill="black"/>
<path d="M49.4191 71.2305C50.7739 71.2305 51.8578 72.3144 51.8578 73.6692C51.8578 75.0241 50.7739 76.108 49.4191 76.108C48.0642 76.108 46.9803 75.0241 46.9803 73.6692C46.9803 72.3144 48.0642 71.2305 49.4191 71.2305Z" fill="black"/>
<path d="M54.2966 71.2305C55.6514 71.2305 56.7353 72.3144 56.7353 73.6692C56.7353 75.0241 55.6514 76.108 54.2966 76.108C52.9417 76.108 51.8578 75.0241 51.8578 73.6692C51.8578 72.3144 52.9417 71.2305 54.2966 71.2305Z" fill="black"/>
<path d="M59.1495 71.2305C60.5044 71.2305 61.5883 72.3144 61.5883 73.6692C61.5883 75.0241 60.5044 76.108 59.1495 76.108C57.7947 76.108 56.7108 75.0241 56.7108 73.6692C56.7108 72.3144 57.7947 71.2305 59.1495 71.2305Z" fill="black"/>
<path d="M68.9045 71.2305C70.2593 71.2305 71.3432 72.3144 71.3432 73.6692C71.3432 75.0241 70.2593 76.108 68.9045 76.108C67.5496 76.108 66.4657 75.0241 66.4657 73.6692C66.4657 72.3144 67.5496 71.2305 68.9045 71.2305Z" fill="black"/>
<path d="M78.6348 71.2305C79.9897 71.2305 81.0736 72.3144 81.0736 73.6692C81.0736 75.0241 79.9897 76.108 78.6348 76.108C77.28 76.108 76.1961 75.0241 76.1961 73.6692C76.1961 72.3144 77.28 71.2305 78.6348 71.2305Z" fill="black"/>
<path d="M83.4877 71.2305C84.8426 71.2305 85.9265 72.3144 85.9265 73.6692C85.9265 75.0241 84.8426 76.108 83.4877 76.108C82.1329 76.108 81.049 75.0241 81.049 73.6692C81.049 72.3144 82.1329 71.2305 83.4877 71.2305Z" fill="black"/>
<path d="M88.3652 71.2305C89.7201 71.2305 90.804 72.3144 90.804 73.6692C90.804 75.0241 89.7201 76.108 88.3652 76.108C87.0104 76.108 85.9265 75.0241 85.9265 73.6692C85.9265 72.3144 87.0104 71.2305 88.3652 71.2305Z" fill="black"/>
<path d="M93.2427 71.2305C94.5975 71.2305 95.6814 72.3144 95.6814 73.6692C95.6814 75.0241 94.5975 76.108 93.2427 76.108C91.8878 76.108 90.8039 75.0241 90.8039 73.6692C90.8039 72.3144 91.8878 71.2305 93.2427 71.2305Z" fill="black"/>
<path d="M98.0956 71.2305C99.4504 71.2305 100.534 72.3144 100.534 73.6692C100.534 75.0241 99.4504 76.108 98.0956 76.108C96.7407 76.108 95.6568 75.0241 95.6568 73.6692C95.6568 72.3144 96.7407 71.2305 98.0956 71.2305Z" fill="black"/>
<path d="M107.826 71.2305C109.181 71.2305 110.265 72.3144 110.265 73.6692C110.265 75.0241 109.181 76.108 107.826 76.108C106.471 76.108 105.387 75.0241 105.387 73.6692C105.387 72.3144 106.471 71.2305 107.826 71.2305Z" fill="black"/>
<path d="M112.703 71.2305C114.058 71.2305 115.142 72.3144 115.142 73.6692C115.142 75.0241 114.058 76.108 112.703 76.108C111.349 76.108 110.265 75.0241 110.265 73.6692C110.265 72.3144 111.349 71.2305 112.703 71.2305Z" fill="black"/>
<path d="M117.581 71.2305C118.936 71.2305 120.02 72.3144 120.02 73.6692C120.02 75.0241 118.936 76.108 117.581 76.108C116.226 76.108 115.142 75.0241 115.142 73.6692C115.142 72.3144 116.226 71.2305 117.581 71.2305Z" fill="black"/>
<path d="M146.772 71.2305C148.127 71.2305 149.211 72.3144 149.211 73.6692C149.211 75.0241 148.127 76.108 146.772 76.108C145.417 76.108 144.333 75.0241 144.333 73.6692C144.333 72.3144 145.417 71.2305 146.772 71.2305Z" fill="black"/>
<path d="M15.3505 76.1094C16.7054 76.1094 17.7893 77.1933 17.7893 78.5481C17.7893 79.903 16.7054 80.9869 15.3505 80.9869C13.9957 80.9869 12.9118 79.903 12.9118 78.5481C12.9118 77.1933 13.9957 76.1094 15.3505 76.1094Z" fill="black"/>
<path d="M39.6888 76.1094C41.0436 76.1094 42.1275 77.1933 42.1275 78.5481C42.1275 79.903 41.0436 80.9869 39.6888 80.9869C38.3339 80.9869 37.25 79.903 37.25 78.5481C37.25 77.1933 38.3339 76.1094 39.6888 76.1094Z" fill="black"/>
<path d="M64.027 76.1094C65.3819 76.1094 66.4658 77.1933 66.4658 78.5481C66.4658 79.903 65.3819 80.9869 64.027 80.9869C62.6722 80.9869 61.5883 79.903 61.5883 78.5481C61.5883 77.1933 62.6722 76.1094 64.027 76.1094Z" fill="black"/>
<path d="M117.581 76.1094C118.936 76.1094 120.02 77.1933 120.02 78.5481C120.02 79.903 118.936 80.9869 117.581 80.9869C116.226 80.9869 115.142 79.903 115.142 78.5481C115.142 77.1933 116.226 76.1094 117.581 76.1094Z" fill="black"/>
<path d="M122.434 76.1094C123.789 76.1094 124.873 77.1933 124.873 78.5481C124.873 79.903 123.789 80.9869 122.434 80.9869C121.079 80.9869 119.995 79.903 119.995 78.5481C119.995 77.1933 121.079 76.1094 122.434 76.1094Z" fill="black"/>
<path d="M127.311 76.1094C128.666 76.1094 129.75 77.1933 129.75 78.5481C129.75 79.903 128.666 80.9869 127.311 80.9869C125.956 80.9869 124.873 79.903 124.873 78.5481C124.873 77.1933 125.956 76.1094 127.311 76.1094Z" fill="black"/>
<path d="M132.189 76.1094C133.544 76.1094 134.628 77.1933 134.628 78.5481C134.628 79.903 133.544 80.9869 132.189 80.9869C130.834 80.9869 129.75 79.903 129.75 78.5481C129.75 77.1933 130.834 76.1094 132.189 76.1094Z" fill="black"/>
<path d="M137.042 76.1094C138.397 76.1094 139.48 77.1933 139.48 78.5481C139.48 79.903 138.397 80.9869 137.042 80.9869C135.687 80.9869 134.603 79.903 134.603 78.5481C134.603 77.1933 135.687 76.1094 137.042 76.1094Z" fill="black"/>
<path d="M141.919 76.1094C143.274 76.1094 144.358 77.1933 144.358 78.5481C144.358 79.903 143.274 80.9869 141.919 80.9869C140.564 80.9869 139.48 79.903 139.48 78.5481C139.48 77.1933 140.564 76.1094 141.919 76.1094Z" fill="black"/>
<path d="M146.772 76.1094C148.127 76.1094 149.211 77.1933 149.211 78.5481C149.211 79.903 148.127 80.9869 146.772 80.9869C145.417 80.9869 144.333 79.903 144.333 78.5481C144.333 77.1933 145.417 76.1094 146.772 76.1094Z" fill="black"/>
<path d="M151.65 76.1094C153.004 76.1094 154.088 77.1933 154.088 78.5481C154.088 79.903 153.004 80.9869 151.65 80.9869C150.295 80.9869 149.211 79.903 149.211 78.5481C149.211 77.1933 150.295 76.1094 151.65 76.1094Z" fill="black"/>
<path d="M15.3505 80.9844C16.7054 80.9844 17.7893 82.0683 17.7893 83.4231C17.7893 84.778 16.7054 85.8619 15.3505 85.8619C13.9957 85.8619 12.9118 84.778 12.9118 83.4231C12.9118 82.0683 13.9957 80.9844 15.3505 80.9844Z" fill="black"/>
<path d="M25.0809 80.9844C26.4358 80.9844 27.5197 82.0683 27.5197 83.4231C27.5197 84.778 26.4358 85.8619 25.0809 85.8619C23.7261 85.8619 22.6422 84.778 22.6422 83.4231C22.6422 82.0683 23.7261 80.9844 25.0809 80.9844Z" fill="black"/>
<path d="M29.9584 80.9844C31.3133 80.9844 32.3972 82.0683 32.3972 83.4231C32.3972 84.778 31.3133 85.8619 29.9584 85.8619C28.6035 85.8619 27.5197 84.778 27.5197 83.4231C27.5197 82.0683 28.6035 80.9844 29.9584 80.9844Z" fill="black"/>
<path d="M44.5416 80.9844C45.8965 80.9844 46.9804 82.0683 46.9804 83.4231C46.9804 84.778 45.8965 85.8619 44.5416 85.8619C43.1868 85.8619 42.1029 84.778 42.1029 83.4231C42.1029 82.0683 43.1868 80.9844 44.5416 80.9844Z" fill="black"/>
<path d="M49.4191 80.9844C50.7739 80.9844 51.8578 82.0683 51.8578 83.4231C51.8578 84.778 50.7739 85.8619 49.4191 85.8619C48.0642 85.8619 46.9803 84.778 46.9803 83.4231C46.9803 82.0683 48.0642 80.9844 49.4191 80.9844Z" fill="black"/>
<path d="M59.1495 80.9844C60.5044 80.9844 61.5883 82.0683 61.5883 83.4231C61.5883 84.778 60.5044 85.8619 59.1495 85.8619C57.7947 85.8619 56.7108 84.778 56.7108 83.4231C56.7108 82.0683 57.7947 80.9844 59.1495 80.9844Z" fill="black"/>
<path d="M64.027 80.9844C65.3819 80.9844 66.4658 82.0683 66.4658 83.4231C66.4658 84.778 65.3819 85.8619 64.027 85.8619C62.6722 85.8619 61.5883 84.778 61.5883 83.4231C61.5883 82.0683 62.6722 80.9844 64.027 80.9844Z" fill="black"/>
<path d="M68.9044 80.9844C70.2593 80.9844 71.3432 82.0683 71.3432 83.4231C71.3432 84.778 70.2593 85.8619 68.9044 85.8619C67.5496 85.8619 66.4657 84.778 66.4657 83.4231C66.4657 82.0683 67.5496 80.9844 68.9044 80.9844Z" fill="black"/>
<path d="M73.7573 80.9844C75.1122 80.9844 76.1961 82.0683 76.1961 83.4231C76.1961 84.778 75.1122 85.8619 73.7573 85.8619C72.4025 85.8619 71.3186 84.778 71.3186 83.4231C71.3186 82.0683 72.4025 80.9844 73.7573 80.9844Z" fill="black"/>
<path d="M78.6348 80.9844C79.9897 80.9844 81.0736 82.0683 81.0736 83.4231C81.0736 84.778 79.9897 85.8619 78.6348 85.8619C77.2799 85.8619 76.1961 84.778 76.1961 83.4231C76.1961 82.0683 77.2799 80.9844 78.6348 80.9844Z" fill="black"/>
<path d="M83.4878 80.9844C84.8426 80.9844 85.9265 82.0683 85.9265 83.4231C85.9265 84.778 84.8426 85.8619 83.4878 85.8619C82.1329 85.8619 81.049 84.778 81.049 83.4231C81.049 82.0683 82.1329 80.9844 83.4878 80.9844Z" fill="black"/>
<path d="M88.3652 80.9844C89.7201 80.9844 90.804 82.0683 90.804 83.4231C90.804 84.778 89.7201 85.8619 88.3652 85.8619C87.0104 85.8619 85.9265 84.778 85.9265 83.4231C85.9265 82.0683 87.0104 80.9844 88.3652 80.9844Z" fill="black"/>
<path d="M98.0956 80.9844C99.4504 80.9844 100.534 82.0683 100.534 83.4231C100.534 84.778 99.4504 85.8619 98.0956 85.8619C96.7407 85.8619 95.6568 84.778 95.6568 83.4231C95.6568 82.0683 96.7407 80.9844 98.0956 80.9844Z" fill="black"/>
<path d="M102.973 80.9844C104.328 80.9844 105.412 82.0683 105.412 83.4231C105.412 84.778 104.328 85.8619 102.973 85.8619C101.618 85.8619 100.534 84.778 100.534 83.4231C100.534 82.0683 101.618 80.9844 102.973 80.9844Z" fill="black"/>
<path d="M117.581 80.9844C118.936 80.9844 120.02 82.0683 120.02 83.4231C120.02 84.778 118.936 85.8619 117.581 85.8619C116.226 85.8619 115.142 84.778 115.142 83.4231C115.142 82.0683 116.226 80.9844 117.581 80.9844Z" fill="black"/>
<path d="M122.434 80.9844C123.789 80.9844 124.873 82.0683 124.873 83.4231C124.873 84.778 123.789 85.8619 122.434 85.8619C121.079 85.8619 119.995 84.778 119.995 83.4231C119.995 82.0683 121.079 80.9844 122.434 80.9844Z" fill="black"/>
<path d="M127.311 80.9844C128.666 80.9844 129.75 82.0683 129.75 83.4231C129.75 84.778 128.666 85.8619 127.311 85.8619C125.956 85.8619 124.873 84.778 124.873 83.4231C124.873 82.0683 125.956 80.9844 127.311 80.9844Z" fill="black"/>
<path d="M132.189 80.9844C133.544 80.9844 134.628 82.0683 134.628 83.4231C134.628 84.778 133.544 85.8619 132.189 85.8619C130.834 85.8619 129.75 84.778 129.75 83.4231C129.75 82.0683 130.834 80.9844 132.189 80.9844Z" fill="black"/>
<path d="M137.042 80.9844C138.397 80.9844 139.48 82.0683 139.48 83.4231C139.48 84.778 138.397 85.8619 137.042 85.8619C135.687 85.8619 134.603 84.778 134.603 83.4231C134.603 82.0683 135.687 80.9844 137.042 80.9844Z" fill="black"/>
<path d="M141.919 80.9844C143.274 80.9844 144.358 82.0683 144.358 83.4231C144.358 84.778 143.274 85.8619 141.919 85.8619C140.564 85.8619 139.48 84.778 139.48 83.4231C139.48 82.0683 140.564 80.9844 141.919 80.9844Z" fill="black"/>
<path d="M151.65 80.9844C153.004 80.9844 154.088 82.0683 154.088 83.4231C154.088 84.778 153.004 85.8619 151.65 85.8619C150.295 85.8619 149.211 84.778 149.211 83.4231C149.211 82.0683 150.295 80.9844 151.65 80.9844Z" fill="black"/>
<path d="M15.3505 85.8359C16.7054 85.8359 17.7893 86.9198 17.7893 88.2747C17.7893 89.6295 16.7054 90.7134 15.3505 90.7134C13.9957 90.7134 12.9118 89.6295 12.9118 88.2747C12.9118 86.9198 13.9957 85.8359 15.3505 85.8359Z" fill="black"/>
<path d="M34.8112 85.8359C36.1661 85.8359 37.25 86.9198 37.25 88.2747C37.25 89.6295 36.1661 90.7134 34.8112 90.7134C33.4563 90.7134 32.3725 89.6295 32.3725 88.2747C32.3725 86.9198 33.4563 85.8359 34.8112 85.8359Z" fill="black"/>
<path d="M49.4191 85.8359C50.7739 85.8359 51.8578 86.9198 51.8578 88.2747C51.8578 89.6295 50.7739 90.7134 49.4191 90.7134C48.0642 90.7134 46.9803 89.6295 46.9803 88.2747C46.9803 86.9198 48.0642 85.8359 49.4191 85.8359Z" fill="black"/>
<path d="M59.1495 85.8359C60.5043 85.8359 61.5882 86.9198 61.5882 88.2747C61.5882 89.6295 60.5043 90.7134 59.1495 90.7134C57.7946 90.7134 56.7107 89.6295 56.7107 88.2747C56.7107 86.9198 57.7946 85.8359 59.1495 85.8359Z" fill="black"/>
<path d="M64.027 85.8359C65.3819 85.8359 66.4658 86.9198 66.4658 88.2747C66.4658 89.6295 65.3819 90.7134 64.027 90.7134C62.6722 90.7134 61.5883 89.6295 61.5883 88.2747C61.5883 86.9198 62.6722 85.8359 64.027 85.8359Z" fill="black"/>
<path d="M73.7573 85.8359C75.1122 85.8359 76.1961 86.9198 76.1961 88.2747C76.1961 89.6295 75.1122 90.7134 73.7573 90.7134C72.4025 90.7134 71.3186 89.6295 71.3186 88.2747C71.3186 86.9198 72.4025 85.8359 73.7573 85.8359Z" fill="black"/>
<path d="M78.6348 85.8359C79.9897 85.8359 81.0736 86.9198 81.0736 88.2747C81.0736 89.6295 79.9897 90.7134 78.6348 90.7134C77.28 90.7134 76.1961 89.6295 76.1961 88.2747C76.1961 86.9198 77.28 85.8359 78.6348 85.8359Z" fill="black"/>
<path d="M88.3652 85.8359C89.7201 85.8359 90.804 86.9198 90.804 88.2747C90.804 89.6295 89.7201 90.7134 88.3652 90.7134C87.0104 90.7134 85.9265 89.6295 85.9265 88.2747C85.9265 86.9198 87.0104 85.8359 88.3652 85.8359Z" fill="black"/>
<path d="M93.2427 85.8359C94.5975 85.8359 95.6814 86.9198 95.6814 88.2747C95.6814 89.6295 94.5975 90.7134 93.2427 90.7134C91.8878 90.7134 90.8039 89.6295 90.8039 88.2747C90.8039 86.9198 91.8878 85.8359 93.2427 85.8359Z" fill="black"/>
<path d="M98.0956 85.8359C99.4504 85.8359 100.534 86.9198 100.534 88.2747C100.534 89.6295 99.4504 90.7134 98.0956 90.7134C96.7407 90.7134 95.6568 89.6295 95.6568 88.2747C95.6568 86.9198 96.7407 85.8359 98.0956 85.8359Z" fill="black"/>
<path d="M112.703 85.8359C114.058 85.8359 115.142 86.9198 115.142 88.2747C115.142 89.6295 114.058 90.7134 112.703 90.7134C111.349 90.7134 110.265 89.6295 110.265 88.2747C110.265 86.9198 111.349 85.8359 112.703 85.8359Z" fill="black"/>
<path d="M117.581 85.8359C118.936 85.8359 120.02 86.9198 120.02 88.2747C120.02 89.6295 118.936 90.7134 117.581 90.7134C116.226 90.7134 115.142 89.6295 115.142 88.2747C115.142 86.9198 116.226 85.8359 117.581 85.8359Z" fill="black"/>
<path d="M132.189 85.8359C133.544 85.8359 134.628 86.9198 134.628 88.2747C134.628 89.6295 133.544 90.7134 132.189 90.7134C130.834 90.7134 129.75 89.6295 129.75 88.2747C129.75 86.9198 130.834 85.8359 132.189 85.8359Z" fill="black"/>
<path d="M146.772 85.8359C148.127 85.8359 149.211 86.9198 149.211 88.2747C149.211 89.6295 148.127 90.7134 146.772 90.7134C145.417 90.7134 144.333 89.6295 144.333 88.2747C144.333 86.9198 145.417 85.8359 146.772 85.8359Z" fill="black"/>
<path d="M151.65 85.8359C153.004 85.8359 154.088 86.9198 154.088 88.2747C154.088 89.6295 153.004 90.7134 151.65 90.7134C150.295 90.7134 149.211 89.6295 149.211 88.2747C149.211 86.9198 150.295 85.8359 151.65 85.8359Z" fill="black"/>
<path d="M15.3505 90.7148C16.7054 90.7148 17.7893 91.7987 17.7893 93.1536C17.7893 94.5085 16.7054 95.5923 15.3505 95.5923C13.9957 95.5923 12.9118 94.5085 12.9118 93.1536C12.9118 91.7987 13.9957 90.7148 15.3505 90.7148Z" fill="black"/>
<path d="M20.2034 90.7148C21.5583 90.7148 22.6422 91.7987 22.6422 93.1536C22.6422 94.5085 21.5583 95.5923 20.2034 95.5923C18.8486 95.5923 17.7647 94.5085 17.7647 93.1536C17.7647 91.7987 18.8486 90.7148 20.2034 90.7148Z" fill="black"/>
<path d="M25.0809 90.7148C26.4358 90.7148 27.5197 91.7987 27.5197 93.1536C27.5197 94.5085 26.4358 95.5923 25.0809 95.5923C23.7261 95.5923 22.6422 94.5085 22.6422 93.1536C22.6422 91.7987 23.7261 90.7148 25.0809 90.7148Z" fill="black"/>
<path d="M29.9583 90.7148C31.3132 90.7148 32.3971 91.7987 32.3971 93.1536C32.3971 94.5085 31.3132 95.5923 29.9583 95.5923C28.6035 95.5923 27.5196 94.5085 27.5196 93.1536C27.5196 91.7987 28.6035 90.7148 29.9583 90.7148Z" fill="black"/>
<path d="M34.8112 90.7148C36.1661 90.7148 37.25 91.7987 37.25 93.1536C37.25 94.5085 36.1661 95.5923 34.8112 95.5923C33.4563 95.5923 32.3725 94.5085 32.3725 93.1536C32.3725 91.7987 33.4563 90.7148 34.8112 90.7148Z" fill="black"/>
<path d="M39.6888 90.7148C41.0436 90.7148 42.1275 91.7987 42.1275 93.1536C42.1275 94.5085 41.0436 95.5923 39.6888 95.5923C38.3339 95.5923 37.25 94.5085 37.25 93.1536C37.25 91.7987 38.3339 90.7148 39.6888 90.7148Z" fill="black"/>
<path d="M44.5416 90.7148C45.8965 90.7148 46.9804 91.7987 46.9804 93.1536C46.9804 94.5085 45.8965 95.5923 44.5416 95.5923C43.1868 95.5923 42.1029 94.5085 42.1029 93.1536C42.1029 91.7987 43.1868 90.7148 44.5416 90.7148Z" fill="black"/>
<path d="M49.4191 90.7148C50.7739 90.7148 51.8578 91.7987 51.8578 93.1536C51.8578 94.5085 50.7739 95.5923 49.4191 95.5923C48.0642 95.5923 46.9803 94.5085 46.9803 93.1536C46.9803 91.7987 48.0642 90.7148 49.4191 90.7148Z" fill="black"/>
<path d="M54.2966 90.7148C55.6514 90.7148 56.7353 91.7987 56.7353 93.1536C56.7353 94.5085 55.6514 95.5923 54.2966 95.5923C52.9417 95.5923 51.8578 94.5085 51.8578 93.1536C51.8578 91.7987 52.9417 90.7148 54.2966 90.7148Z" fill="black"/>
<path d="M59.1494 90.7148C60.5043 90.7148 61.5882 91.7987 61.5882 93.1536C61.5882 94.5085 60.5043 95.5923 59.1494 95.5923C57.7946 95.5923 56.7107 94.5085 56.7107 93.1536C56.7107 91.7987 57.7946 90.7148 59.1494 90.7148Z" fill="black"/>
<path d="M64.027 90.7148C65.3819 90.7148 66.4658 91.7987 66.4658 93.1536C66.4658 94.5085 65.3819 95.5923 64.027 95.5923C62.6722 95.5923 61.5883 94.5085 61.5883 93.1536C61.5883 91.7987 62.6722 90.7148 64.027 90.7148Z" fill="black"/>
<path d="M78.6348 90.7148C79.9897 90.7148 81.0736 91.7987 81.0736 93.1536C81.0736 94.5085 79.9897 95.5923 78.6348 95.5923C77.2799 95.5923 76.1961 94.5085 76.1961 93.1536C76.1961 91.7987 77.2799 90.7148 78.6348 90.7148Z" fill="black"/>
<path d="M98.0956 90.7148C99.4504 90.7148 100.534 91.7987 100.534 93.1536C100.534 94.5085 99.4504 95.5923 98.0956 95.5923C96.7407 95.5923 95.6568 94.5085 95.6568 93.1536C95.6568 91.7987 96.7407 90.7148 98.0956 90.7148Z" fill="black"/>
<path d="M107.826 90.7148C109.181 90.7148 110.265 91.7987 110.265 93.1536C110.265 94.5085 109.181 95.5923 107.826 95.5923C106.471 95.5923 105.387 94.5085 105.387 93.1536C105.387 91.7987 106.471 90.7148 107.826 90.7148Z" fill="black"/>
<path d="M146.772 90.7148C148.127 90.7148 149.211 91.7987 149.211 93.1536C149.211 94.5085 148.127 95.5923 146.772 95.5923C145.417 95.5923 144.333 94.5085 144.333 93.1536C144.333 91.7987 145.417 90.7148 146.772 90.7148Z" fill="black"/>
<path d="M15.3505 95.5664C16.7054 95.5664 17.7893 96.6503 17.7893 98.0052C17.7893 99.36 16.7054 100.444 15.3505 100.444C13.9957 100.444 12.9118 99.36 12.9118 98.0052C12.9118 96.6503 13.9957 95.5664 15.3505 95.5664Z" fill="black"/>
<path d="M25.0809 95.5664C26.4358 95.5664 27.5197 96.6503 27.5197 98.0052C27.5197 99.36 26.4358 100.444 25.0809 100.444C23.7261 100.444 22.6422 99.36 22.6422 98.0052C22.6422 96.6503 23.7261 95.5664 25.0809 95.5664Z" fill="black"/>
<path d="M29.9584 95.5664C31.3133 95.5664 32.3972 96.6503 32.3972 98.0052C32.3972 99.36 31.3133 100.444 29.9584 100.444C28.6035 100.444 27.5197 99.36 27.5197 98.0052C27.5197 96.6503 28.6035 95.5664 29.9584 95.5664Z" fill="black"/>
<path d="M34.8113 95.5664C36.1661 95.5664 37.25 96.6503 37.25 98.0052C37.25 99.36 36.1661 100.444 34.8113 100.444C33.4564 100.444 32.3725 99.36 32.3725 98.0052C32.3725 96.6503 33.4564 95.5664 34.8113 95.5664Z" fill="black"/>
<path d="M49.4191 95.5664C50.7739 95.5664 51.8578 96.6503 51.8578 98.0052C51.8578 99.36 50.7739 100.444 49.4191 100.444C48.0642 100.444 46.9803 99.36 46.9803 98.0052C46.9803 96.6503 48.0642 95.5664 49.4191 95.5664Z" fill="black"/>
<path d="M64.027 95.5664C65.3819 95.5664 66.4658 96.6503 66.4658 98.0052C66.4658 99.36 65.3819 100.444 64.027 100.444C62.6722 100.444 61.5883 99.36 61.5883 98.0052C61.5883 96.6503 62.6722 95.5664 64.027 95.5664Z" fill="black"/>
<path d="M78.6348 95.5664C79.9897 95.5664 81.0736 96.6503 81.0736 98.0052C81.0736 99.36 79.9897 100.444 78.6348 100.444C77.2799 100.444 76.1961 99.36 76.1961 98.0052C76.1961 96.6503 77.2799 95.5664 78.6348 95.5664Z" fill="black"/>
<path d="M83.4878 95.5664C84.8426 95.5664 85.9265 96.6503 85.9265 98.0052C85.9265 99.36 84.8426 100.444 83.4878 100.444C82.1329 100.444 81.049 99.36 81.049 98.0052C81.049 96.6503 82.1329 95.5664 83.4878 95.5664Z" fill="black"/>
<path d="M93.2427 95.5664C94.5975 95.5664 95.6814 96.6503 95.6814 98.0052C95.6814 99.36 94.5975 100.444 93.2427 100.444C91.8878 100.444 90.8039 99.36 90.8039 98.0052C90.8039 96.6503 91.8878 95.5664 93.2427 95.5664Z" fill="black"/>
<path d="M98.0956 95.5664C99.4504 95.5664 100.534 96.6503 100.534 98.0052C100.534 99.36 99.4504 100.444 98.0956 100.444C96.7407 100.444 95.6568 99.36 95.6568 98.0052C95.6568 96.6503 96.7407 95.5664 98.0956 95.5664Z" fill="black"/>
<path d="M102.973 95.5664C104.328 95.5664 105.412 96.6503 105.412 98.0052C105.412 99.36 104.328 100.444 102.973 100.444C101.618 100.444 100.534 99.36 100.534 98.0052C100.534 96.6503 101.618 95.5664 102.973 95.5664Z" fill="black"/>
<path d="M122.434 95.5664C123.789 95.5664 124.873 96.6503 124.873 98.0052C124.873 99.36 123.789 100.444 122.434 100.444C121.079 100.444 119.995 99.36 119.995 98.0052C119.995 96.6503 121.079 95.5664 122.434 95.5664Z" fill="black"/>
<path d="M127.311 95.5664C128.666 95.5664 129.75 96.6503 129.75 98.0052C129.75 99.36 128.666 100.444 127.311 100.444C125.956 100.444 124.873 99.36 124.873 98.0052C124.873 96.6503 125.956 95.5664 127.311 95.5664Z" fill="black"/>
<path d="M132.189 95.5664C133.544 95.5664 134.628 96.6503 134.628 98.0052C134.628 99.36 133.544 100.444 132.189 100.444C130.834 100.444 129.75 99.36 129.75 98.0052C129.75 96.6503 130.834 95.5664 132.189 95.5664Z" fill="black"/>
<path d="M137.042 95.5664C138.397 95.5664 139.48 96.6503 139.48 98.0052C139.48 99.36 138.397 100.444 137.042 100.444C135.687 100.444 134.603 99.36 134.603 98.0052C134.603 96.6503 135.687 95.5664 137.042 95.5664Z" fill="black"/>
<path d="M146.772 95.5664C148.127 95.5664 149.211 96.6503 149.211 98.0052C149.211 99.36 148.127 100.444 146.772 100.444C145.417 100.444 144.333 99.36 144.333 98.0052C144.333 96.6503 145.417 95.5664 146.772 95.5664Z" fill="black"/>
<path d="M151.65 95.5664C153.004 95.5664 154.088 96.6503 154.088 98.0052C154.088 99.36 153.004 100.444 151.65 100.444C150.295 100.444 149.211 99.36 149.211 98.0052C149.211 96.6503 150.295 95.5664 151.65 95.5664Z" fill="black"/>
<path d="M34.8112 100.445C36.1661 100.445 37.25 101.529 37.25 102.884C37.25 104.239 36.1661 105.323 34.8112 105.323C33.4563 105.323 32.3725 104.239 32.3725 102.884C32.3725 101.529 33.4563 100.445 34.8112 100.445Z" fill="black"/>
<path d="M39.6888 100.445C41.0436 100.445 42.1275 101.529 42.1275 102.884C42.1275 104.239 41.0436 105.323 39.6888 105.323C38.3339 105.323 37.25 104.239 37.25 102.884C37.25 101.529 38.3339 100.445 39.6888 100.445Z" fill="black"/>
<path d="M44.5417 100.445C45.8965 100.445 46.9804 101.529 46.9804 102.884C46.9804 104.239 45.8965 105.323 44.5417 105.323C43.1868 105.323 42.1029 104.239 42.1029 102.884C42.1029 101.529 43.1868 100.445 44.5417 100.445Z" fill="black"/>
<path d="M49.4191 100.445C50.7739 100.445 51.8578 101.529 51.8578 102.884C51.8578 104.239 50.7739 105.323 49.4191 105.323C48.0642 105.323 46.9803 104.239 46.9803 102.884C46.9803 101.529 48.0642 100.445 49.4191 100.445Z" fill="black"/>
<path d="M54.2966 100.445C55.6514 100.445 56.7353 101.529 56.7353 102.884C56.7353 104.239 55.6514 105.323 54.2966 105.323C52.9417 105.323 51.8578 104.239 51.8578 102.884C51.8578 101.529 52.9417 100.445 54.2966 100.445Z" fill="black"/>
<path d="M59.1495 100.445C60.5043 100.445 61.5882 101.529 61.5882 102.884C61.5882 104.239 60.5043 105.323 59.1495 105.323C57.7946 105.323 56.7107 104.239 56.7107 102.884C56.7107 101.529 57.7946 100.445 59.1495 100.445Z" fill="black"/>
<path d="M64.027 100.445C65.3819 100.445 66.4658 101.529 66.4658 102.884C66.4658 104.239 65.3819 105.323 64.027 105.323C62.6722 105.323 61.5883 104.239 61.5883 102.884C61.5883 101.529 62.6722 100.445 64.027 100.445Z" fill="black"/>
<path d="M93.2427 100.445C94.5975 100.445 95.6814 101.529 95.6814 102.884C95.6814 104.239 94.5975 105.323 93.2427 105.323C91.8878 105.323 90.8039 104.239 90.8039 102.884C90.8039 101.529 91.8878 100.445 93.2427 100.445Z" fill="black"/>
<path d="M98.0956 100.445C99.4504 100.445 100.534 101.529 100.534 102.884C100.534 104.239 99.4504 105.323 98.0956 105.323C96.7407 105.323 95.6568 104.239 95.6568 102.884C95.6568 101.529 96.7407 100.445 98.0956 100.445Z" fill="black"/>
<path d="M112.703 100.445C114.058 100.445 115.142 101.529 115.142 102.884C115.142 104.239 114.058 105.323 112.703 105.323C111.349 105.323 110.265 104.239 110.265 102.884C110.265 101.529 111.349 100.445 112.703 100.445Z" fill="black"/>
<path d="M141.919 100.445C143.274 100.445 144.358 101.529 144.358 102.884C144.358 104.239 143.274 105.323 141.919 105.323C140.564 105.323 139.48 104.239 139.48 102.884C139.48 101.529 140.564 100.445 141.919 100.445Z" fill="black"/>
<path d="M151.65 100.445C153.004 100.445 154.088 101.529 154.088 102.884C154.088 104.239 153.004 105.323 151.65 105.323C150.295 105.323 149.211 104.239 149.211 102.884C149.211 101.529 150.295 100.445 151.65 100.445Z" fill="black"/>
<path d="M25.0809 105.32C26.4358 105.32 27.5197 106.404 27.5197 107.759C27.5197 109.114 26.4358 110.198 25.0809 110.198C23.7261 110.198 22.6422 109.114 22.6422 107.759C22.6422 106.404 23.7261 105.32 25.0809 105.32Z" fill="black"/>
<path d="M39.6888 105.32C41.0436 105.32 42.1275 106.404 42.1275 107.759C42.1275 109.114 41.0436 110.198 39.6888 110.198C38.3339 110.198 37.25 109.114 37.25 107.759C37.25 106.404 38.3339 105.32 39.6888 105.32Z" fill="black"/>
<path d="M54.2966 105.32C55.6514 105.32 56.7353 106.404 56.7353 107.759C56.7353 109.114 55.6514 110.198 54.2966 110.198C52.9417 110.198 51.8578 109.114 51.8578 107.759C51.8578 106.404 52.9417 105.32 54.2966 105.32Z" fill="black"/>
<path d="M64.027 105.32C65.3819 105.32 66.4658 106.404 66.4658 107.759C66.4658 109.114 65.3819 110.198 64.027 110.198C62.6722 110.198 61.5883 109.114 61.5883 107.759C61.5883 106.404 62.6722 105.32 64.027 105.32Z" fill="black"/>
<path d="M68.9045 105.32C70.2593 105.32 71.3432 106.404 71.3432 107.759C71.3432 109.114 70.2593 110.198 68.9045 110.198C67.5496 110.198 66.4657 109.114 66.4657 107.759C66.4657 106.404 67.5496 105.32 68.9045 105.32Z" fill="black"/>
<path d="M73.7573 105.32C75.1122 105.32 76.1961 106.404 76.1961 107.759C76.1961 109.114 75.1122 110.198 73.7573 110.198C72.4025 110.198 71.3186 109.114 71.3186 107.759C71.3186 106.404 72.4025 105.32 73.7573 105.32Z" fill="black"/>
<path d="M83.4877 105.32C84.8425 105.32 85.9264 106.404 85.9264 107.759C85.9264 109.114 84.8425 110.198 83.4877 110.198C82.1328 110.198 81.0489 109.114 81.0489 107.759C81.0489 106.404 82.1328 105.32 83.4877 105.32Z" fill="black"/>
<path d="M98.0956 105.32C99.4504 105.32 100.534 106.404 100.534 107.759C100.534 109.114 99.4504 110.198 98.0956 110.198C96.7407 110.198 95.6568 109.114 95.6568 107.759C95.6568 106.404 96.7407 105.32 98.0956 105.32Z" fill="black"/>
<path d="M107.826 105.32C109.181 105.32 110.265 106.404 110.265 107.759C110.265 109.114 109.181 110.198 107.826 110.198C106.471 110.198 105.387 109.114 105.387 107.759C105.387 106.404 106.471 105.32 107.826 105.32Z" fill="black"/>
<path d="M112.703 105.32C114.058 105.32 115.142 106.404 115.142 107.759C115.142 109.114 114.058 110.198 112.703 110.198C111.349 110.198 110.265 109.114 110.265 107.759C110.265 106.404 111.349 105.32 112.703 105.32Z" fill="black"/>
<path d="M117.581 105.32C118.936 105.32 120.02 106.404 120.02 107.759C120.02 109.114 118.936 110.198 117.581 110.198C116.226 110.198 115.142 109.114 115.142 107.759C115.142 106.404 116.226 105.32 117.581 105.32Z" fill="black"/>
<path d="M127.311 105.32C128.666 105.32 129.75 106.404 129.75 107.759C129.75 109.114 128.666 110.198 127.311 110.198C125.956 110.198 124.873 109.114 124.873 107.759C124.873 106.404 125.956 105.32 127.311 105.32Z" fill="black"/>
<path d="M132.189 105.32C133.544 105.32 134.628 106.404 134.628 107.759C134.628 109.114 133.544 110.198 132.189 110.198C130.834 110.198 129.75 109.114 129.75 107.759C129.75 106.404 130.834 105.32 132.189 105.32Z" fill="black"/>
<path d="M146.772 105.32C148.127 105.32 149.211 106.404 149.211 107.759C149.211 109.114 148.127 110.198 146.772 110.198C145.417 110.198 144.333 109.114 144.333 107.759C144.333 106.404 145.417 105.32 146.772 105.32Z" fill="black"/>
<path d="M151.65 105.32C153.004 105.32 154.088 106.404 154.088 107.759C154.088 109.114 153.004 110.198 151.65 110.198C150.295 110.198 149.211 109.114 149.211 107.759C149.211 106.404 150.295 105.32 151.65 105.32Z" fill="black"/>
<path d="M15.3505 110.176C16.7054 110.176 17.7893 111.26 17.7893 112.615C17.7893 113.969 16.7054 115.053 15.3505 115.053C13.9957 115.053 12.9118 113.969 12.9118 112.615C12.9118 111.26 13.9957 110.176 15.3505 110.176Z" fill="black"/>
<path d="M20.2034 110.176C21.5583 110.176 22.6422 111.26 22.6422 112.615C22.6422 113.969 21.5583 115.053 20.2034 115.053C18.8486 115.053 17.7647 113.969 17.7647 112.615C17.7647 111.26 18.8486 110.176 20.2034 110.176Z" fill="black"/>
<path d="M44.5417 110.176C45.8965 110.176 46.9804 111.26 46.9804 112.615C46.9804 113.969 45.8965 115.053 44.5417 115.053C43.1868 115.053 42.1029 113.969 42.1029 112.615C42.1029 111.26 43.1868 110.176 44.5417 110.176Z" fill="black"/>
<path d="M54.2966 110.176C55.6514 110.176 56.7353 111.26 56.7353 112.615C56.7353 113.969 55.6514 115.053 54.2966 115.053C52.9417 115.053 51.8578 113.969 51.8578 112.615C51.8578 111.26 52.9417 110.176 54.2966 110.176Z" fill="black"/>
<path d="M59.1495 110.176C60.5044 110.176 61.5883 111.26 61.5883 112.615C61.5883 113.969 60.5044 115.053 59.1495 115.053C57.7947 115.053 56.7108 113.969 56.7108 112.615C56.7108 111.26 57.7947 110.176 59.1495 110.176Z" fill="black"/>
<path d="M64.027 110.176C65.3819 110.176 66.4658 111.26 66.4658 112.615C66.4658 113.969 65.3819 115.053 64.027 115.053C62.6722 115.053 61.5883 113.969 61.5883 112.615C61.5883 111.26 62.6722 110.176 64.027 110.176Z" fill="black"/>
<path d="M73.7573 110.176C75.1122 110.176 76.1961 111.26 76.1961 112.615C76.1961 113.969 75.1122 115.053 73.7573 115.053C72.4025 115.053 71.3186 113.969 71.3186 112.615C71.3186 111.26 72.4025 110.176 73.7573 110.176Z" fill="black"/>
<path d="M78.6348 110.176C79.9897 110.176 81.0736 111.26 81.0736 112.615C81.0736 113.969 79.9897 115.053 78.6348 115.053C77.28 115.053 76.1961 113.969 76.1961 112.615C76.1961 111.26 77.28 110.176 78.6348 110.176Z" fill="black"/>
<path d="M83.4877 110.176C84.8426 110.176 85.9265 111.26 85.9265 112.615C85.9265 113.969 84.8426 115.053 83.4877 115.053C82.1329 115.053 81.049 113.969 81.049 112.615C81.049 111.26 82.1329 110.176 83.4877 110.176Z" fill="black"/>
<path d="M88.3652 110.176C89.7201 110.176 90.804 111.26 90.804 112.615C90.804 113.969 89.7201 115.053 88.3652 115.053C87.0104 115.053 85.9265 113.969 85.9265 112.615C85.9265 111.26 87.0104 110.176 88.3652 110.176Z" fill="black"/>
<path d="M93.2427 110.176C94.5975 110.176 95.6814 111.26 95.6814 112.615C95.6814 113.969 94.5975 115.053 93.2427 115.053C91.8878 115.053 90.8039 113.969 90.8039 112.615C90.8039 111.26 91.8878 110.176 93.2427 110.176Z" fill="black"/>
<path d="M102.973 110.176C104.328 110.176 105.412 111.26 105.412 112.615C105.412 113.969 104.328 115.053 102.973 115.053C101.618 115.053 100.534 113.969 100.534 112.615C100.534 111.26 101.618 110.176 102.973 110.176Z" fill="black"/>
<path d="M112.703 110.176C114.058 110.176 115.142 111.26 115.142 112.615C115.142 113.969 114.058 115.053 112.703 115.053C111.349 115.053 110.265 113.969 110.265 112.615C110.265 111.26 111.349 110.176 112.703 110.176Z" fill="black"/>
<path d="M117.581 110.176C118.936 110.176 120.02 111.26 120.02 112.615C120.02 113.969 118.936 115.053 117.581 115.053C116.226 115.053 115.142 113.969 115.142 112.615C115.142 111.26 116.226 110.176 117.581 110.176Z" fill="black"/>
<path d="M122.434 110.176C123.789 110.176 124.873 111.26 124.873 112.615C124.873 113.969 123.789 115.053 122.434 115.053C121.079 115.053 119.995 113.969 119.995 112.615C119.995 111.26 121.079 110.176 122.434 110.176Z" fill="black"/>
<path d="M127.311 110.176C128.666 110.176 129.75 111.26 129.75 112.615C129.75 113.969 128.666 115.053 127.311 115.053C125.956 115.053 124.873 113.969 124.873 112.615C124.873 111.26 125.956 110.176 127.311 110.176Z" fill="black"/>
<path d="M132.189 110.176C133.544 110.176 134.628 111.26 134.628 112.615C134.628 113.969 133.544 115.053 132.189 115.053C130.834 115.053 129.75 113.969 129.75 112.615C129.75 111.26 130.834 110.176 132.189 110.176Z" fill="black"/>
<path d="M137.042 110.176C138.397 110.176 139.48 111.26 139.48 112.615C139.48 113.969 138.397 115.053 137.042 115.053C135.687 115.053 134.603 113.969 134.603 112.615C134.603 111.26 135.687 110.176 137.042 110.176Z" fill="black"/>
<path d="M151.65 110.176C153.004 110.176 154.088 111.26 154.088 112.615C154.088 113.969 153.004 115.053 151.65 115.053C150.295 115.053 149.211 113.969 149.211 112.615C149.211 111.26 150.295 110.176 151.65 110.176Z" fill="black"/>
<path d="M54.2966 115.055C55.6514 115.055 56.7353 116.139 56.7353 117.493C56.7353 118.848 55.6514 119.932 54.2966 119.932C52.9417 119.932 51.8578 118.848 51.8578 117.493C51.8578 116.139 52.9417 115.055 54.2966 115.055Z" fill="black"/>
<path d="M59.1494 115.055C60.5043 115.055 61.5882 116.139 61.5882 117.493C61.5882 118.848 60.5043 119.932 59.1494 119.932C57.7946 119.932 56.7107 118.848 56.7107 117.493C56.7107 116.139 57.7946 115.055 59.1494 115.055Z" fill="black"/>
<path d="M98.0956 115.055C99.4504 115.055 100.534 116.139 100.534 117.493C100.534 118.848 99.4504 119.932 98.0956 119.932C96.7407 119.932 95.6568 118.848 95.6568 117.493C95.6568 116.139 96.7407 115.055 98.0956 115.055Z" fill="black"/>
<path d="M102.973 115.055C104.328 115.055 105.412 116.139 105.412 117.493C105.412 118.848 104.328 119.932 102.973 119.932C101.618 119.932 100.534 118.848 100.534 117.493C100.534 116.139 101.618 115.055 102.973 115.055Z" fill="black"/>
<path d="M107.826 115.055C109.181 115.055 110.265 116.139 110.265 117.493C110.265 118.848 109.181 119.932 107.826 119.932C106.471 119.932 105.387 118.848 105.387 117.493C105.387 116.139 106.471 115.055 107.826 115.055Z" fill="black"/>
<path d="M112.703 115.055C114.058 115.055 115.142 116.139 115.142 117.493C115.142 118.848 114.058 119.932 112.703 119.932C111.349 119.932 110.265 118.848 110.265 117.493C110.265 116.139 111.349 115.055 112.703 115.055Z" fill="black"/>
<path d="M132.189 115.055C133.544 115.055 134.628 116.139 134.628 117.493C134.628 118.848 133.544 119.932 132.189 119.932C130.834 119.932 129.75 118.848 129.75 117.493C129.75 116.139 130.834 115.055 132.189 115.055Z" fill="black"/>
<path d="M151.65 115.055C153.004 115.055 154.088 116.139 154.088 117.493C154.088 118.848 153.004 119.932 151.65 119.932C150.295 119.932 149.211 118.848 149.211 117.493C149.211 116.139 150.295 115.055 151.65 115.055Z" fill="black"/>
<path d="M54.2966 119.906C55.6514 119.906 56.7353 120.99 56.7353 122.345C56.7353 123.7 55.6514 124.784 54.2966 124.784C52.9417 124.784 51.8578 123.7 51.8578 122.345C51.8578 120.99 52.9417 119.906 54.2966 119.906Z" fill="black"/>
<path d="M59.1495 119.906C60.5044 119.906 61.5883 120.99 61.5883 122.345C61.5883 123.7 60.5044 124.784 59.1495 124.784C57.7947 124.784 56.7108 123.7 56.7108 122.345C56.7108 120.99 57.7947 119.906 59.1495 119.906Z" fill="black"/>
<path d="M64.027 119.906C65.3819 119.906 66.4658 120.99 66.4658 122.345C66.4658 123.7 65.3819 124.784 64.027 124.784C62.6722 124.784 61.5883 123.7 61.5883 122.345C61.5883 120.99 62.6722 119.906 64.027 119.906Z" fill="black"/>
<path d="M68.9045 119.906C70.2593 119.906 71.3432 120.99 71.3432 122.345C71.3432 123.7 70.2593 124.784 68.9045 124.784C67.5496 124.784 66.4657 123.7 66.4657 122.345C66.4657 120.99 67.5496 119.906 68.9045 119.906Z" fill="black"/>
<path d="M73.7573 119.906C75.1122 119.906 76.1961 120.99 76.1961 122.345C76.1961 123.7 75.1122 124.784 73.7573 124.784C72.4025 124.784 71.3186 123.7 71.3186 122.345C71.3186 120.99 72.4025 119.906 73.7573 119.906Z" fill="black"/>
<path d="M78.6348 119.906C79.9897 119.906 81.0736 120.99 81.0736 122.345C81.0736 123.7 79.9897 124.784 78.6348 124.784C77.28 124.784 76.1961 123.7 76.1961 122.345C76.1961 120.99 77.28 119.906 78.6348 119.906Z" fill="black"/>
<path d="M83.4877 119.906C84.8426 119.906 85.9265 120.99 85.9265 122.345C85.9265 123.7 84.8426 124.784 83.4877 124.784C82.1329 124.784 81.049 123.7 81.049 122.345C81.049 120.99 82.1329 119.906 83.4877 119.906Z" fill="black"/>
<path d="M88.3652 119.906C89.7201 119.906 90.804 120.99 90.804 122.345C90.804 123.7 89.7201 124.784 88.3652 124.784C87.0104 124.784 85.9265 123.7 85.9265 122.345C85.9265 120.99 87.0104 119.906 88.3652 119.906Z" fill="black"/>
<path d="M102.973 119.906C104.328 119.906 105.412 120.99 105.412 122.345C105.412 123.7 104.328 124.784 102.973 124.784C101.618 124.784 100.534 123.7 100.534 122.345C100.534 120.99 101.618 119.906 102.973 119.906Z" fill="black"/>
<path d="M107.826 119.906C109.181 119.906 110.265 120.99 110.265 122.345C110.265 123.7 109.181 124.784 107.826 124.784C106.471 124.784 105.387 123.7 105.387 122.345C105.387 120.99 106.471 119.906 107.826 119.906Z" fill="black"/>
<path d="M112.703 119.906C114.058 119.906 115.142 120.99 115.142 122.345C115.142 123.7 114.058 124.784 112.703 124.784C111.349 124.784 110.265 123.7 110.265 122.345C110.265 120.99 111.349 119.906 112.703 119.906Z" fill="black"/>
<path d="M122.434 119.906C123.789 119.906 124.873 120.99 124.873 122.345C124.873 123.7 123.789 124.784 122.434 124.784C121.079 124.784 119.995 123.7 119.995 122.345C119.995 120.99 121.079 119.906 122.434 119.906Z" fill="black"/>
<path d="M132.189 119.906C133.544 119.906 134.628 120.99 134.628 122.345C134.628 123.7 133.544 124.784 132.189 124.784C130.834 124.784 129.75 123.7 129.75 122.345C129.75 120.99 130.834 119.906 132.189 119.906Z" fill="black"/>
<path d="M137.042 119.906C138.397 119.906 139.48 120.99 139.48 122.345C139.48 123.7 138.397 124.784 137.042 124.784C135.687 124.784 134.603 123.7 134.603 122.345C134.603 120.99 135.687 119.906 137.042 119.906Z" fill="black"/>
<path d="M141.919 119.906C143.274 119.906 144.358 120.99 144.358 122.345C144.358 123.7 143.274 124.784 141.919 124.784C140.564 124.784 139.48 123.7 139.48 122.345C139.48 120.99 140.564 119.906 141.919 119.906Z" fill="black"/>
<path d="M151.65 119.906C153.004 119.906 154.088 120.99 154.088 122.345C154.088 123.7 153.004 124.784 151.65 124.784C150.295 124.784 149.211 123.7 149.211 122.345C149.211 120.99 150.295 119.906 151.65 119.906Z" fill="black"/>
<path d="M59.1495 124.785C60.5044 124.785 61.5883 125.869 61.5883 127.224C61.5883 128.579 60.5044 129.663 59.1495 129.663C57.7947 129.663 56.7108 128.579 56.7108 127.224C56.7108 125.869 57.7947 124.785 59.1495 124.785Z" fill="black"/>
<path d="M64.027 124.785C65.3819 124.785 66.4658 125.869 66.4658 127.224C66.4658 128.579 65.3819 129.663 64.027 129.663C62.6722 129.663 61.5883 128.579 61.5883 127.224C61.5883 125.869 62.6722 124.785 64.027 124.785Z" fill="black"/>
<path d="M68.9045 124.785C70.2593 124.785 71.3432 125.869 71.3432 127.224C71.3432 128.579 70.2593 129.663 68.9045 129.663C67.5496 129.663 66.4657 128.579 66.4657 127.224C66.4657 125.869 67.5496 124.785 68.9045 124.785Z" fill="black"/>
<path d="M78.6348 124.785C79.9897 124.785 81.0736 125.869 81.0736 127.224C81.0736 128.579 79.9897 129.663 78.6348 129.663C77.28 129.663 76.1961 128.579 76.1961 127.224C76.1961 125.869 77.28 124.785 78.6348 124.785Z" fill="black"/>
<path d="M88.3652 124.785C89.7201 124.785 90.804 125.869 90.804 127.224C90.804 128.579 89.7201 129.663 88.3652 129.663C87.0104 129.663 85.9265 128.579 85.9265 127.224C85.9265 125.869 87.0104 124.785 88.3652 124.785Z" fill="black"/>
<path d="M93.2427 124.785C94.5975 124.785 95.6814 125.869 95.6814 127.224C95.6814 128.579 94.5975 129.663 93.2427 129.663C91.8878 129.663 90.8039 128.579 90.8039 127.224C90.8039 125.869 91.8878 124.785 93.2427 124.785Z" fill="black"/>
<path d="M112.703 124.785C114.058 124.785 115.142 125.869 115.142 127.224C115.142 128.579 114.058 129.663 112.703 129.663C111.349 129.663 110.265 128.579 110.265 127.224C110.265 125.869 111.349 124.785 112.703 124.785Z" fill="black"/>
<path d="M132.189 124.785C133.544 124.785 134.628 125.869 134.628 127.224C134.628 128.579 133.544 129.663 132.189 129.663C130.834 129.663 129.75 128.579 129.75 127.224C129.75 125.869 130.834 124.785 132.189 124.785Z" fill="black"/>
<path d="M54.2966 129.66C55.6514 129.66 56.7353 130.744 56.7353 132.099C56.7353 133.454 55.6514 134.538 54.2966 134.538C52.9417 134.538 51.8578 133.454 51.8578 132.099C51.8578 130.744 52.9417 129.66 54.2966 129.66Z" fill="black"/>
<path d="M64.027 129.66C65.3819 129.66 66.4658 130.744 66.4658 132.099C66.4658 133.454 65.3819 134.538 64.027 134.538C62.6722 134.538 61.5883 133.454 61.5883 132.099C61.5883 130.744 62.6722 129.66 64.027 129.66Z" fill="black"/>
<path d="M78.6348 129.66C79.9897 129.66 81.0736 130.744 81.0736 132.099C81.0736 133.454 79.9897 134.538 78.6348 134.538C77.2799 134.538 76.1961 133.454 76.1961 132.099C76.1961 130.744 77.2799 129.66 78.6348 129.66Z" fill="black"/>
<path d="M107.826 129.66C109.181 129.66 110.265 130.744 110.265 132.099C110.265 133.454 109.181 134.538 107.826 134.538C106.471 134.538 105.387 133.454 105.387 132.099C105.387 130.744 106.471 129.66 107.826 129.66Z" fill="black"/>
<path d="M112.703 129.66C114.058 129.66 115.142 130.744 115.142 132.099C115.142 133.454 114.058 134.538 112.703 134.538C111.349 134.538 110.265 133.454 110.265 132.099C110.265 130.744 111.349 129.66 112.703 129.66Z" fill="black"/>
<path d="M117.581 129.66C118.936 129.66 120.02 130.744 120.02 132.099C120.02 133.454 118.936 134.538 117.581 134.538C116.226 134.538 115.142 133.454 115.142 132.099C115.142 130.744 116.226 129.66 117.581 129.66Z" fill="black"/>
<path d="M122.434 129.66C123.789 129.66 124.873 130.744 124.873 132.099C124.873 133.454 123.789 134.538 122.434 134.538C121.079 134.538 119.995 133.454 119.995 132.099C119.995 130.744 121.079 129.66 122.434 129.66Z" fill="black"/>
<path d="M127.311 129.66C128.666 129.66 129.75 130.744 129.75 132.099C129.75 133.454 128.666 134.538 127.311 134.538C125.956 134.538 124.873 133.454 124.873 132.099C124.873 130.744 125.956 129.66 127.311 129.66Z" fill="black"/>
<path d="M132.189 129.66C133.544 129.66 134.628 130.744 134.628 132.099C134.628 133.454 133.544 134.538 132.189 134.538C130.834 134.538 129.75 133.454 129.75 132.099C129.75 130.744 130.834 129.66 132.189 129.66Z" fill="black"/>
<path d="M137.042 129.66C138.397 129.66 139.48 130.744 139.48 132.099C139.48 133.454 138.397 134.538 137.042 134.538C135.687 134.538 134.603 133.454 134.603 132.099C134.603 130.744 135.687 129.66 137.042 129.66Z" fill="black"/>
<path d="M151.65 129.66C153.004 129.66 154.088 130.744 154.088 132.099C154.088 133.454 153.004 134.538 151.65 134.538C150.295 134.538 149.211 133.454 149.211 132.099C149.211 130.744 150.295 129.66 151.65 129.66Z" fill="black"/>
<path d="M59.1495 134.516C60.5044 134.516 61.5883 135.6 61.5883 136.954C61.5883 138.309 60.5044 139.393 59.1495 139.393C57.7947 139.393 56.7108 138.309 56.7108 136.954C56.7108 135.6 57.7947 134.516 59.1495 134.516Z" fill="black"/>
<path d="M64.027 134.516C65.3819 134.516 66.4658 135.6 66.4658 136.954C66.4658 138.309 65.3819 139.393 64.027 139.393C62.6722 139.393 61.5883 138.309 61.5883 136.954C61.5883 135.6 62.6722 134.516 64.027 134.516Z" fill="black"/>
<path d="M68.9045 134.516C70.2593 134.516 71.3432 135.6 71.3432 136.954C71.3432 138.309 70.2593 139.393 68.9045 139.393C67.5496 139.393 66.4657 138.309 66.4657 136.954C66.4657 135.6 67.5496 134.516 68.9045 134.516Z" fill="black"/>
<path d="M73.7573 134.516C75.1122 134.516 76.1961 135.6 76.1961 136.954C76.1961 138.309 75.1122 139.393 73.7573 139.393C72.4025 139.393 71.3186 138.309 71.3186 136.954C71.3186 135.6 72.4025 134.516 73.7573 134.516Z" fill="black"/>
<path d="M78.6348 134.516C79.9897 134.516 81.0736 135.6 81.0736 136.954C81.0736 138.309 79.9897 139.393 78.6348 139.393C77.28 139.393 76.1961 138.309 76.1961 136.954C76.1961 135.6 77.28 134.516 78.6348 134.516Z" fill="black"/>
<path d="M83.4877 134.516C84.8426 134.516 85.9265 135.6 85.9265 136.954C85.9265 138.309 84.8426 139.393 83.4877 139.393C82.1329 139.393 81.049 138.309 81.049 136.954C81.049 135.6 82.1329 134.516 83.4877 134.516Z" fill="black"/>
<path d="M93.2427 134.516C94.5975 134.516 95.6814 135.6 95.6814 136.954C95.6814 138.309 94.5975 139.393 93.2427 139.393C91.8878 139.393 90.8039 138.309 90.8039 136.954C90.8039 135.6 91.8878 134.516 93.2427 134.516Z" fill="black"/>
<path d="M102.973 134.516C104.328 134.516 105.412 135.6 105.412 136.954C105.412 138.309 104.328 139.393 102.973 139.393C101.618 139.393 100.534 138.309 100.534 136.954C100.534 135.6 101.618 134.516 102.973 134.516Z" fill="black"/>
<path d="M112.703 134.516C114.058 134.516 115.142 135.6 115.142 136.954C115.142 138.309 114.058 139.393 112.703 139.393C111.349 139.393 110.265 138.309 110.265 136.954C110.265 135.6 111.349 134.516 112.703 134.516Z" fill="black"/>
<path d="M117.581 134.516C118.936 134.516 120.02 135.6 120.02 136.954C120.02 138.309 118.936 139.393 117.581 139.393C116.226 139.393 115.142 138.309 115.142 136.954C115.142 135.6 116.226 134.516 117.581 134.516Z" fill="black"/>
<path d="M146.772 134.516C148.127 134.516 149.211 135.6 149.211 136.954C149.211 138.309 148.127 139.393 146.772 139.393C145.417 139.393 144.333 138.309 144.333 136.954C144.333 135.6 145.417 134.516 146.772 134.516Z" fill="black"/>
<path d="M59.1495 139.391C60.5044 139.391 61.5883 140.475 61.5883 141.829C61.5883 143.184 60.5044 144.268 59.1495 144.268C57.7947 144.268 56.7108 143.184 56.7108 141.829C56.7108 140.475 57.7947 139.391 59.1495 139.391Z" fill="black"/>
<path d="M64.027 139.391C65.3819 139.391 66.4658 140.475 66.4658 141.829C66.4658 143.184 65.3819 144.268 64.027 144.268C62.6722 144.268 61.5883 143.184 61.5883 141.829C61.5883 140.475 62.6722 139.391 64.027 139.391Z" fill="black"/>
<path d="M93.2427 139.391C94.5975 139.391 95.6814 140.475 95.6814 141.829C95.6814 143.184 94.5975 144.268 93.2427 144.268C91.8878 144.268 90.8039 143.184 90.8039 141.829C90.8039 140.475 91.8878 139.391 93.2427 139.391Z" fill="black"/>
<path d="M98.0956 139.391C99.4504 139.391 100.534 140.475 100.534 141.829C100.534 143.184 99.4504 144.268 98.0956 144.268C96.7407 144.268 95.6568 143.184 95.6568 141.829C95.6568 140.475 96.7407 139.391 98.0956 139.391Z" fill="black"/>
<path d="M107.826 139.391C109.181 139.391 110.265 140.475 110.265 141.829C110.265 143.184 109.181 144.268 107.826 144.268C106.471 144.268 105.387 143.184 105.387 141.829C105.387 140.475 106.471 139.391 107.826 139.391Z" fill="black"/>
<path d="M117.581 139.391C118.936 139.391 120.02 140.475 120.02 141.829C120.02 143.184 118.936 144.268 117.581 144.268C116.226 144.268 115.142 143.184 115.142 141.829C115.142 140.475 116.226 139.391 117.581 139.391Z" fill="black"/>
<path d="M137.042 139.391C138.397 139.391 139.48 140.475 139.48 141.829C139.48 143.184 138.397 144.268 137.042 144.268C135.687 144.268 134.603 143.184 134.603 141.829C134.603 140.475 135.687 139.391 137.042 139.391Z" fill="black"/>
<path d="M141.919 139.391C143.274 139.391 144.358 140.475 144.358 141.829C144.358 143.184 143.274 144.268 141.919 144.268C140.564 144.268 139.48 143.184 139.48 141.829C139.48 140.475 140.564 139.391 141.919 139.391Z" fill="black"/>
<path d="M146.772 139.391C148.127 139.391 149.211 140.475 149.211 141.829C149.211 143.184 148.127 144.268 146.772 144.268C145.417 144.268 144.333 143.184 144.333 141.829C144.333 140.475 145.417 139.391 146.772 139.391Z" fill="black"/>
<path d="M151.65 139.391C153.004 139.391 154.088 140.475 154.088 141.829C154.088 143.184 153.004 144.268 151.65 144.268C150.295 144.268 149.211 143.184 149.211 141.829C149.211 140.475 150.295 139.391 151.65 139.391Z" fill="black"/>
<path d="M64.027 144.27C65.3819 144.27 66.4658 145.353 66.4658 146.708C66.4658 148.063 65.3819 149.147 64.027 149.147C62.6722 149.147 61.5883 148.063 61.5883 146.708C61.5883 145.353 62.6722 144.27 64.027 144.27Z" fill="black"/>
<path d="M68.9044 144.27C70.2593 144.27 71.3432 145.353 71.3432 146.708C71.3432 148.063 70.2593 149.147 68.9044 149.147C67.5496 149.147 66.4657 148.063 66.4657 146.708C66.4657 145.353 67.5496 144.27 68.9044 144.27Z" fill="black"/>
<path d="M73.7573 144.27C75.1122 144.27 76.1961 145.353 76.1961 146.708C76.1961 148.063 75.1122 149.147 73.7573 149.147C72.4025 149.147 71.3186 148.063 71.3186 146.708C71.3186 145.353 72.4025 144.27 73.7573 144.27Z" fill="black"/>
<path d="M78.6348 144.27C79.9897 144.27 81.0736 145.353 81.0736 146.708C81.0736 148.063 79.9897 149.147 78.6348 149.147C77.2799 149.147 76.1961 148.063 76.1961 146.708C76.1961 145.353 77.2799 144.27 78.6348 144.27Z" fill="black"/>
<path d="M83.4877 144.27C84.8425 144.27 85.9264 145.353 85.9264 146.708C85.9264 148.063 84.8425 149.147 83.4877 149.147C82.1328 149.147 81.0489 148.063 81.0489 146.708C81.0489 145.353 82.1328 144.27 83.4877 144.27Z" fill="black"/>
<path d="M98.0956 144.27C99.4504 144.27 100.534 145.353 100.534 146.708C100.534 148.063 99.4504 149.147 98.0956 149.147C96.7407 149.147 95.6568 148.063 95.6568 146.708C95.6568 145.353 96.7407 144.27 98.0956 144.27Z" fill="black"/>
<path d="M102.973 144.27C104.328 144.27 105.412 145.353 105.412 146.708C105.412 148.063 104.328 149.147 102.973 149.147C101.618 149.147 100.534 148.063 100.534 146.708C100.534 145.353 101.618 144.27 102.973 144.27Z" fill="black"/>
<path d="M112.703 144.27C114.058 144.27 115.142 145.353 115.142 146.708C115.142 148.063 114.058 149.147 112.703 149.147C111.349 149.147 110.265 148.063 110.265 146.708C110.265 145.353 111.349 144.27 112.703 144.27Z" fill="black"/>
<path d="M122.434 144.27C123.789 144.27 124.873 145.353 124.873 146.708C124.873 148.063 123.789 149.147 122.434 149.147C121.079 149.147 119.995 148.063 119.995 146.708C119.995 145.353 121.079 144.27 122.434 144.27Z" fill="black"/>
<path d="M127.311 144.27C128.666 144.27 129.75 145.353 129.75 146.708C129.75 148.063 128.666 149.147 127.311 149.147C125.956 149.147 124.873 148.063 124.873 146.708C124.873 145.353 125.956 144.27 127.311 144.27Z" fill="black"/>
<path d="M137.042 144.27C138.397 144.27 139.48 145.353 139.48 146.708C139.48 148.063 138.397 149.147 137.042 149.147C135.687 149.147 134.603 148.063 134.603 146.708C134.603 145.353 135.687 144.27 137.042 144.27Z" fill="black"/>
<path d="M146.772 144.27C148.127 144.27 149.211 145.353 149.211 146.708C149.211 148.063 148.127 149.147 146.772 149.147C145.417 149.147 144.333 148.063 144.333 146.708C144.333 145.353 145.417 144.27 146.772 144.27Z" fill="black"/>
<path d="M151.65 144.27C153.004 144.27 154.088 145.353 154.088 146.708C154.088 148.063 153.004 149.147 151.65 149.147C150.295 149.147 149.211 148.063 149.211 146.708C149.211 145.353 150.295 144.27 151.65 144.27Z" fill="black"/>
<path d="M54.2966 149.121C55.6514 149.121 56.7353 150.205 56.7353 151.56C56.7353 152.915 55.6514 153.999 54.2966 153.999C52.9417 153.999 51.8578 152.915 51.8578 151.56C51.8578 150.205 52.9417 149.121 54.2966 149.121Z" fill="black"/>
<path d="M68.9044 149.121C70.2593 149.121 71.3432 150.205 71.3432 151.56C71.3432 152.915 70.2593 153.999 68.9044 153.999C67.5496 153.999 66.4657 152.915 66.4657 151.56C66.4657 150.205 67.5496 149.121 68.9044 149.121Z" fill="black"/>
<path d="M73.7573 149.121C75.1122 149.121 76.1961 150.205 76.1961 151.56C76.1961 152.915 75.1122 153.999 73.7573 153.999C72.4025 153.999 71.3186 152.915 71.3186 151.56C71.3186 150.205 72.4025 149.121 73.7573 149.121Z" fill="black"/>
<path d="M78.6348 149.121C79.9897 149.121 81.0736 150.205 81.0736 151.56C81.0736 152.915 79.9897 153.999 78.6348 153.999C77.2799 153.999 76.1961 152.915 76.1961 151.56C76.1961 150.205 77.2799 149.121 78.6348 149.121Z" fill="black"/>
<path d="M83.4878 149.121C84.8426 149.121 85.9265 150.205 85.9265 151.56C85.9265 152.915 84.8426 153.999 83.4878 153.999C82.1329 153.999 81.049 152.915 81.049 151.56C81.049 150.205 82.1329 149.121 83.4878 149.121Z" fill="black"/>
<path d="M88.3652 149.121C89.7201 149.121 90.804 150.205 90.804 151.56C90.804 152.915 89.7201 153.999 88.3652 153.999C87.0104 153.999 85.9265 152.915 85.9265 151.56C85.9265 150.205 87.0104 149.121 88.3652 149.121Z" fill="black"/>
<path d="M93.2427 149.121C94.5975 149.121 95.6814 150.205 95.6814 151.56C95.6814 152.915 94.5975 153.999 93.2427 153.999C91.8878 153.999 90.8039 152.915 90.8039 151.56C90.8039 150.205 91.8878 149.121 93.2427 149.121Z" fill="black"/>
<path d="M102.973 149.121C104.328 149.121 105.412 150.205 105.412 151.56C105.412 152.915 104.328 153.999 102.973 153.999C101.618 153.999 100.534 152.915 100.534 151.56C100.534 150.205 101.618 149.121 102.973 149.121Z" fill="black"/>
<path d="M112.703 149.121C114.058 149.121 115.142 150.205 115.142 151.56C115.142 152.915 114.058 153.999 112.703 153.999C111.349 153.999 110.265 152.915 110.265 151.56C110.265 150.205 111.349 149.121 112.703 149.121Z" fill="black"/>
<path d="M117.581 149.121C118.936 149.121 120.02 150.205 120.02 151.56C120.02 152.915 118.936 153.999 117.581 153.999C116.226 153.999 115.142 152.915 115.142 151.56C115.142 150.205 116.226 149.121 117.581 149.121Z" fill="black"/>
<path d="M127.311 149.121C128.666 149.121 129.75 150.205 129.75 151.56C129.75 152.915 128.666 153.999 127.311 153.999C125.956 153.999 124.873 152.915 124.873 151.56C124.873 150.205 125.956 149.121 127.311 149.121Z" fill="black"/>
<path d="M137.042 149.121C138.397 149.121 139.48 150.205 139.48 151.56C139.48 152.915 138.397 153.999 137.042 153.999C135.687 153.999 134.603 152.915 134.603 151.56C134.603 150.205 135.687 149.121 137.042 149.121Z" fill="black"/>
<path d="M146.772 149.121C148.127 149.121 149.211 150.205 149.211 151.56C149.211 152.915 148.127 153.999 146.772 153.999C145.417 153.999 144.333 152.915 144.333 151.56C144.333 150.205 145.417 149.121 146.772 149.121Z" fill="black"/>
<path d="M35.3532 12.8203H24.539C19.2673 12.8203 14.8086 16.2937 13.3798 21.048C13.232 21.5407 13.1089 22.058 13.035 22.5507C12.9364 23.1173 12.9118 23.7085 12.9118 24.2997V35.3603C12.9118 41.7158 18.1342 46.8643 24.539 46.8643H29.9338H35.3286C41.7334 46.8643 46.9557 41.7158 46.9557 35.3603V24.2997C46.9804 17.9934 41.758 12.8203 35.3532 12.8203ZM41.8812 35.3849C41.8812 38.9075 38.9498 41.7897 35.3532 41.7897H29.9584H24.5636C20.9671 41.7897 18.0356 38.9322 18.0356 35.4095V24.3489C18.0356 23.2404 18.3312 22.2058 18.8239 21.2943C19.3166 20.4322 19.9817 19.6685 20.8193 19.1019C21.8785 18.3629 23.1595 17.9441 24.5636 17.9441H35.3778C38.9744 17.9441 41.9058 20.8017 41.9058 24.3243V35.3849H41.8812Z" fill="black"/>
<path d="M142.461 12.8203H131.647C126.375 12.8203 121.917 16.2937 120.488 21.048C120.34 21.5407 120.217 22.058 120.143 22.5507C120.044 23.1173 120.02 23.7085 120.02 24.2997V35.3603C120.02 41.7158 125.242 46.8643 131.647 46.8643H137.042H142.437C148.841 46.8643 154.064 41.7158 154.064 35.3603V24.2997C154.088 17.9934 148.866 12.8203 142.461 12.8203ZM148.964 35.3849C148.964 38.9075 146.033 41.7897 142.437 41.7897H137.042H131.647C128.05 41.7897 125.119 38.9322 125.119 35.4095V24.3489C125.119 23.2404 125.415 22.2058 125.907 21.2943C126.4 20.4322 127.065 19.6685 127.903 19.1019C128.962 18.3629 130.243 17.9441 131.647 17.9441H142.461C146.058 17.9441 148.989 20.8017 148.989 24.3243V35.3849H148.964Z" fill="black"/>
<path d="M35.3532 119.931H24.539C19.2673 119.931 14.8086 123.404 13.3798 128.159C13.232 128.651 13.1089 129.169 13.035 129.661C12.9364 130.228 12.9118 130.819 12.9118 131.41V142.471C12.9118 148.826 18.1342 153.975 24.539 153.975H29.9338H35.3286C41.7334 153.975 46.9557 148.826 46.9557 142.471V131.41C46.9557 125.079 41.7334 119.906 35.3286 119.906L35.3532 119.931ZM41.8812 142.495C41.8812 146.018 38.9498 148.9 35.3532 148.9H29.9584H24.5636C20.9671 148.9 18.0356 146.043 18.0356 142.52V131.46C18.0356 130.351 18.3312 129.316 18.8239 128.405C19.3166 127.543 19.9817 126.779 20.8193 126.213C21.8785 125.473 23.1595 125.055 24.5636 125.055H35.3778C38.9744 125.055 41.9058 127.912 41.9058 131.435V142.495H41.8812Z" fill="black"/>
<path d="M26.6328 37.1625C24.4404 37.1625 22.6422 35.4135 22.6422 33.2458V26.4715C22.6422 25.8064 22.8146 25.1659 23.1348 24.5993C23.4304 24.0574 23.8492 23.6139 24.3665 23.2691C25.007 22.8257 25.7953 22.5547 26.6575 22.5547H33.284C35.4764 22.5547 37.2747 24.3037 37.2747 26.4715V33.2458C37.2747 35.4135 35.4764 37.1625 33.284 37.1625H26.6575H26.6328Z" fill="black"/>
<path d="M133.741 37.1625C131.548 37.1625 129.75 35.4135 129.75 33.2458V26.4715C129.75 25.8064 129.922 25.1659 130.243 24.5993C130.538 24.0574 130.957 23.6139 131.474 23.2691C132.115 22.8257 132.903 22.5547 133.765 22.5547H140.392C142.584 22.5547 144.383 24.3037 144.383 26.4715V33.2458C144.383 35.4135 142.584 37.1625 140.392 37.1625H133.765H133.741Z" fill="black"/>
<path d="M26.6328 144.268C24.4404 144.268 22.6422 142.519 22.6422 140.351V133.577C22.6422 132.912 22.8146 132.271 23.1348 131.705C23.4304 131.163 23.8492 130.719 24.3665 130.375C25.007 129.931 25.7953 129.66 26.6575 129.66H33.284C35.4764 129.66 37.2747 131.409 37.2747 133.577V140.351C37.2747 142.519 35.4764 144.268 33.284 144.268H26.6575H26.6328Z" fill="black"/>
</g>
<defs>
<clipPath id="clip0_4133_30872">
<rect width="141.176" height="141.176" fill="white" transform="translate(12.9118 12.8242)"/>
</clipPath>
</defs>
</svg>
