<svg width="143" height="142" viewBox="0 0 143 142" fill="none" xmlns="http://www.w3.org/2000/svg">
<g id="Layer_1" clip-path="url(#clip0_3403_11280)">
<path id="Vector" d="M42.2966 0.821289C43.6514 0.821289 44.7353 1.90518 44.7353 3.26004C44.7353 4.6149 43.6514 5.69879 42.2966 5.69879C40.9417 5.69879 39.8578 4.6149 39.8578 3.26004C39.8578 1.90518 40.9417 0.821289 42.2966 0.821289Z" fill="black"/>
<path id="Vector_2" d="M56.9045 0.821289C58.2593 0.821289 59.3432 1.90518 59.3432 3.26004C59.3432 4.6149 58.2593 5.69879 56.9045 5.69879C55.5496 5.69879 54.4657 4.6149 54.4657 3.26004C54.4657 1.90518 55.5496 0.821289 56.9045 0.821289Z" fill="black"/>
<path id="Vector_3" d="M61.7573 0.821289C63.1122 0.821289 64.1961 1.90518 64.1961 3.26004C64.1961 4.6149 63.1122 5.69879 61.7573 5.69879C60.4025 5.69879 59.3186 4.6149 59.3186 3.26004C59.3186 1.90518 60.4025 0.821289 61.7573 0.821289Z" fill="black"/>
<path id="Vector_4" d="M66.6348 0.821289C67.9897 0.821289 69.0736 1.90518 69.0736 3.26004C69.0736 4.6149 67.9897 5.69879 66.6348 5.69879C65.28 5.69879 64.1961 4.6149 64.1961 3.26004C64.1961 1.90518 65.28 0.821289 66.6348 0.821289Z" fill="black"/>
<path id="Vector_5" d="M71.4877 0.821289C72.8426 0.821289 73.9265 1.90518 73.9265 3.26004C73.9265 4.6149 72.8426 5.69879 71.4877 5.69879C70.1329 5.69879 69.049 4.6149 69.049 3.26004C69.049 1.90518 70.1329 0.821289 71.4877 0.821289Z" fill="black"/>
<path id="Vector_6" d="M81.2427 0.821289C82.5975 0.821289 83.6814 1.90518 83.6814 3.26004C83.6814 4.6149 82.5975 5.69879 81.2427 5.69879C79.8878 5.69879 78.8039 4.6149 78.8039 3.26004C78.8039 1.90518 79.8878 0.821289 81.2427 0.821289Z" fill="black"/>
<path id="Vector_7" d="M90.9731 0.821289C92.3279 0.821289 93.4118 1.90518 93.4118 3.26004C93.4118 4.6149 92.3279 5.69879 90.9731 5.69879C89.6182 5.69879 88.5343 4.6149 88.5343 3.26004C88.5343 1.90518 89.6182 0.821289 90.9731 0.821289Z" fill="black"/>
<path id="Vector_8" d="M47.1494 5.70117C48.5043 5.70117 49.5882 6.78506 49.5882 8.13992C49.5882 9.49478 48.5043 10.5787 47.1494 10.5787C45.7946 10.5787 44.7107 9.49478 44.7107 8.13992C44.7107 6.78506 45.7946 5.70117 47.1494 5.70117Z" fill="black"/>
<path id="Vector_9" d="M52.027 5.70117C53.3819 5.70117 54.4658 6.78506 54.4658 8.13992C54.4658 9.49478 53.3819 10.5787 52.027 10.5787C50.6722 10.5787 49.5883 9.49478 49.5883 8.13992C49.5883 6.78506 50.6722 5.70117 52.027 5.70117Z" fill="black"/>
<path id="Vector_10" d="M61.7573 5.70117C63.1122 5.70117 64.1961 6.78506 64.1961 8.13992C64.1961 9.49478 63.1122 10.5787 61.7573 10.5787C60.4025 10.5787 59.3186 9.49478 59.3186 8.13992C59.3186 6.78506 60.4025 5.70117 61.7573 5.70117Z" fill="black"/>
<path id="Vector_11" d="M66.6348 5.70117C67.9897 5.70117 69.0736 6.78506 69.0736 8.13992C69.0736 9.49478 67.9897 10.5787 66.6348 10.5787C65.2799 10.5787 64.1961 9.49478 64.1961 8.13992C64.1961 6.78506 65.2799 5.70117 66.6348 5.70117Z" fill="black"/>
<path id="Vector_12" d="M71.4877 5.70117C72.8425 5.70117 73.9264 6.78506 73.9264 8.13992C73.9264 9.49478 72.8425 10.5787 71.4877 10.5787C70.1328 10.5787 69.0489 9.49478 69.0489 8.13992C69.0489 6.78506 70.1328 5.70117 71.4877 5.70117Z" fill="black"/>
<path id="Vector_13" d="M76.3652 5.70117C77.7201 5.70117 78.804 6.78506 78.804 8.13992C78.804 9.49478 77.7201 10.5787 76.3652 10.5787C75.0104 10.5787 73.9265 9.49478 73.9265 8.13992C73.9265 6.78506 75.0104 5.70117 76.3652 5.70117Z" fill="black"/>
<path id="Vector_14" d="M95.8259 5.70117C97.1808 5.70117 98.2647 6.78506 98.2647 8.13992C98.2647 9.49478 97.1808 10.5787 95.8259 10.5787C94.4711 10.5787 93.3872 9.49478 93.3872 8.13992C93.3872 6.78506 94.4711 5.70117 95.8259 5.70117Z" fill="black"/>
<path id="Vector_15" d="M100.703 5.70117C102.058 5.70117 103.142 6.78506 103.142 8.13992C103.142 9.49478 102.058 10.5787 100.703 10.5787C99.3485 10.5787 98.2647 9.49478 98.2647 8.13992C98.2647 6.78506 99.3485 5.70117 100.703 5.70117Z" fill="black"/>
<path id="Vector_16" d="M52.027 10.5527C53.3819 10.5527 54.4658 11.6366 54.4658 12.9915C54.4658 14.3463 53.3819 15.4302 52.027 15.4302C50.6722 15.4302 49.5883 14.3463 49.5883 12.9915C49.5883 11.6366 50.6722 10.5527 52.027 10.5527Z" fill="black"/>
<path id="Vector_17" d="M61.7573 10.5527C63.1122 10.5527 64.1961 11.6366 64.1961 12.9915C64.1961 14.3463 63.1122 15.4302 61.7573 15.4302C60.4025 15.4302 59.3186 14.3463 59.3186 12.9915C59.3186 11.6366 60.4025 10.5527 61.7573 10.5527Z" fill="black"/>
<path id="Vector_18" d="M71.4878 10.5527C72.8426 10.5527 73.9265 11.6366 73.9265 12.9915C73.9265 14.3463 72.8426 15.4302 71.4878 15.4302C70.1329 15.4302 69.049 14.3463 69.049 12.9915C69.049 11.6366 70.1329 10.5527 71.4878 10.5527Z" fill="black"/>
<path id="Vector_19" d="M86.0956 10.5527C87.4504 10.5527 88.5343 11.6366 88.5343 12.9915C88.5343 14.3463 87.4504 15.4302 86.0956 15.4302C84.7407 15.4302 83.6568 14.3463 83.6568 12.9915C83.6568 11.6366 84.7407 10.5527 86.0956 10.5527Z" fill="black"/>
<path id="Vector_20" d="M90.973 10.5527C92.3279 10.5527 93.4118 11.6366 93.4118 12.9915C93.4118 14.3463 92.3279 15.4302 90.973 15.4302C89.6182 15.4302 88.5343 14.3463 88.5343 12.9915C88.5343 11.6366 89.6182 10.5527 90.973 10.5527Z" fill="black"/>
<path id="Vector_21" d="M95.826 10.5527C97.1808 10.5527 98.2647 11.6366 98.2647 12.9915C98.2647 14.3463 97.1808 15.4302 95.826 15.4302C94.4711 15.4302 93.3872 14.3463 93.3872 12.9915C93.3872 11.6366 94.4711 10.5527 95.826 10.5527Z" fill="black"/>
<path id="Vector_22" d="M100.703 10.5527C102.058 10.5527 103.142 11.6366 103.142 12.9915C103.142 14.3463 102.058 15.4302 100.703 15.4302C99.3485 15.4302 98.2647 14.3463 98.2647 12.9915C98.2647 11.6366 99.3485 10.5527 100.703 10.5527Z" fill="black"/>
<path id="Vector_23" d="M42.2966 15.4287C43.6514 15.4287 44.7353 16.5126 44.7353 17.8675C44.7353 19.2223 43.6514 20.3062 42.2966 20.3062C40.9417 20.3062 39.8578 19.2223 39.8578 17.8675C39.8578 16.5126 40.9417 15.4287 42.2966 15.4287Z" fill="black"/>
<path id="Vector_24" d="M47.1495 15.4287C48.5044 15.4287 49.5883 16.5126 49.5883 17.8675C49.5883 19.2223 48.5044 20.3062 47.1495 20.3062C45.7947 20.3062 44.7108 19.2223 44.7108 17.8675C44.7108 16.5126 45.7947 15.4287 47.1495 15.4287Z" fill="black"/>
<path id="Vector_25" d="M90.973 15.4287C92.3279 15.4287 93.4118 16.5126 93.4118 17.8675C93.4118 19.2223 92.3279 20.3062 90.973 20.3062C89.6182 20.3062 88.5343 19.2223 88.5343 17.8675C88.5343 16.5126 89.6182 15.4287 90.973 15.4287Z" fill="black"/>
<path id="Vector_26" d="M95.826 15.4287C97.1808 15.4287 98.2647 16.5126 98.2647 17.8675C98.2647 19.2223 97.1808 20.3062 95.826 20.3062C94.4711 20.3062 93.3872 19.2223 93.3872 17.8675C93.3872 16.5126 94.4711 15.4287 95.826 15.4287Z" fill="black"/>
<path id="Vector_27" d="M42.2966 20.2842C43.6514 20.2842 44.7353 21.3681 44.7353 22.7229C44.7353 24.0778 43.6514 25.1617 42.2966 25.1617C40.9417 25.1617 39.8578 24.0778 39.8578 22.7229C39.8578 21.3681 40.9417 20.2842 42.2966 20.2842Z" fill="black"/>
<path id="Vector_28" d="M52.027 20.2842C53.3819 20.2842 54.4658 21.3681 54.4658 22.7229C54.4658 24.0778 53.3819 25.1617 52.027 25.1617C50.6722 25.1617 49.5883 24.0778 49.5883 22.7229C49.5883 21.3681 50.6722 20.2842 52.027 20.2842Z" fill="black"/>
<path id="Vector_29" d="M61.7573 20.2842C63.1122 20.2842 64.1961 21.3681 64.1961 22.7229C64.1961 24.0778 63.1122 25.1617 61.7573 25.1617C60.4025 25.1617 59.3186 24.0778 59.3186 22.7229C59.3186 21.3681 60.4025 20.2842 61.7573 20.2842Z" fill="black"/>
<path id="Vector_30" d="M90.973 20.2842C92.3279 20.2842 93.4118 21.3681 93.4118 22.7229C93.4118 24.0778 92.3279 25.1617 90.973 25.1617C89.6182 25.1617 88.5343 24.0778 88.5343 22.7229C88.5343 21.3681 89.6182 20.2842 90.973 20.2842Z" fill="black"/>
<path id="Vector_31" d="M100.703 20.2842C102.058 20.2842 103.142 21.3681 103.142 22.7229C103.142 24.0778 102.058 25.1617 100.703 25.1617C99.3485 25.1617 98.2647 24.0778 98.2647 22.7229C98.2647 21.3681 99.3485 20.2842 100.703 20.2842Z" fill="black"/>
<path id="Vector_32" d="M42.2966 25.1602C43.6514 25.1602 44.7353 26.244 44.7353 27.5989C44.7353 28.9538 43.6514 30.0377 42.2966 30.0377C40.9417 30.0377 39.8578 28.9538 39.8578 27.5989C39.8578 26.244 40.9417 25.1602 42.2966 25.1602Z" fill="black"/>
<path id="Vector_33" d="M56.9044 25.1602C58.2593 25.1602 59.3432 26.244 59.3432 27.5989C59.3432 28.9538 58.2593 30.0377 56.9044 30.0377C55.5496 30.0377 54.4657 28.9538 54.4657 27.5989C54.4657 26.244 55.5496 25.1602 56.9044 25.1602Z" fill="black"/>
<path id="Vector_34" d="M61.7573 25.1602C63.1122 25.1602 64.1961 26.244 64.1961 27.5989C64.1961 28.9538 63.1122 30.0377 61.7573 30.0377C60.4025 30.0377 59.3186 28.9538 59.3186 27.5989C59.3186 26.244 60.4025 25.1602 61.7573 25.1602Z" fill="black"/>
<path id="Vector_35" d="M81.2427 25.1602C82.5975 25.1602 83.6814 26.244 83.6814 27.5989C83.6814 28.9538 82.5975 30.0377 81.2427 30.0377C79.8878 30.0377 78.8039 28.9538 78.8039 27.5989C78.8039 26.244 79.8878 25.1602 81.2427 25.1602Z" fill="black"/>
<path id="Vector_36" d="M90.973 25.1602C92.3279 25.1602 93.4118 26.244 93.4118 27.5989C93.4118 28.9538 92.3279 30.0377 90.973 30.0377C89.6182 30.0377 88.5343 28.9538 88.5343 27.5989C88.5343 26.244 89.6182 25.1602 90.973 25.1602Z" fill="black"/>
<path id="Vector_37" d="M95.826 25.1602C97.1808 25.1602 98.2647 26.244 98.2647 27.5989C98.2647 28.9538 97.1808 30.0377 95.826 30.0377C94.4711 30.0377 93.3872 28.9538 93.3872 27.5989C93.3872 26.244 94.4711 25.1602 95.826 25.1602Z" fill="black"/>
<path id="Vector_38" d="M42.2966 30.0381C43.6514 30.0381 44.7353 31.122 44.7353 32.4768C44.7353 33.8317 43.6514 34.9156 42.2966 34.9156C40.9417 34.9156 39.8578 33.8317 39.8578 32.4768C39.8578 31.122 40.9417 30.0381 42.2966 30.0381Z" fill="black"/>
<path id="Vector_39" d="M52.027 30.0381C53.3819 30.0381 54.4658 31.122 54.4658 32.4768C54.4658 33.8317 53.3819 34.9156 52.027 34.9156C50.6722 34.9156 49.5883 33.8317 49.5883 32.4768C49.5883 31.122 50.6722 30.0381 52.027 30.0381Z" fill="black"/>
<path id="Vector_40" d="M61.7573 30.0381C63.1122 30.0381 64.1961 31.122 64.1961 32.4768C64.1961 33.8317 63.1122 34.9156 61.7573 34.9156C60.4025 34.9156 59.3186 33.8317 59.3186 32.4768C59.3186 31.122 60.4025 30.0381 61.7573 30.0381Z" fill="black"/>
<path id="Vector_41" d="M71.4878 30.0381C72.8426 30.0381 73.9265 31.122 73.9265 32.4768C73.9265 33.8317 72.8426 34.9156 71.4878 34.9156C70.1329 34.9156 69.049 33.8317 69.049 32.4768C69.049 31.122 70.1329 30.0381 71.4878 30.0381Z" fill="black"/>
<path id="Vector_42" d="M81.2427 30.0381C82.5975 30.0381 83.6814 31.122 83.6814 32.4768C83.6814 33.8317 82.5975 34.9156 81.2427 34.9156C79.8878 34.9156 78.8039 33.8317 78.8039 32.4768C78.8039 31.122 79.8878 30.0381 81.2427 30.0381Z" fill="black"/>
<path id="Vector_43" d="M90.973 30.0381C92.3279 30.0381 93.4118 31.122 93.4118 32.4768C93.4118 33.8317 92.3279 34.9156 90.973 34.9156C89.6182 34.9156 88.5343 33.8317 88.5343 32.4768C88.5343 31.122 89.6182 30.0381 90.973 30.0381Z" fill="black"/>
<path id="Vector_44" d="M100.703 30.0381C102.058 30.0381 103.142 31.122 103.142 32.4768C103.142 33.8317 102.058 34.9156 100.703 34.9156C99.3485 34.9156 98.2647 33.8317 98.2647 32.4768C98.2647 31.122 99.3485 30.0381 100.703 30.0381Z" fill="black"/>
<path id="Vector_45" d="M42.2966 34.8906C43.6514 34.8906 44.7353 35.9745 44.7353 37.3294C44.7353 38.6842 43.6514 39.7681 42.2966 39.7681C40.9417 39.7681 39.8578 38.6842 39.8578 37.3294C39.8578 35.9745 40.9417 34.8906 42.2966 34.8906Z" fill="black"/>
<path id="Vector_46" d="M47.1495 34.8906C48.5043 34.8906 49.5882 35.9745 49.5882 37.3294C49.5882 38.6842 48.5043 39.7681 47.1495 39.7681C45.7946 39.7681 44.7107 38.6842 44.7107 37.3294C44.7107 35.9745 45.7946 34.8906 47.1495 34.8906Z" fill="black"/>
<path id="Vector_47" d="M52.027 34.8906C53.3819 34.8906 54.4658 35.9745 54.4658 37.3294C54.4658 38.6842 53.3819 39.7681 52.027 39.7681C50.6722 39.7681 49.5883 38.6842 49.5883 37.3294C49.5883 35.9745 50.6722 34.8906 52.027 34.8906Z" fill="black"/>
<path id="Vector_48" d="M56.9045 34.8906C58.2593 34.8906 59.3432 35.9745 59.3432 37.3294C59.3432 38.6842 58.2593 39.7681 56.9045 39.7681C55.5496 39.7681 54.4657 38.6842 54.4657 37.3294C54.4657 35.9745 55.5496 34.8906 56.9045 34.8906Z" fill="black"/>
<path id="Vector_49" d="M61.7573 34.8906C63.1122 34.8906 64.1961 35.9745 64.1961 37.3294C64.1961 38.6842 63.1122 39.7681 61.7573 39.7681C60.4025 39.7681 59.3186 38.6842 59.3186 37.3294C59.3186 35.9745 60.4025 34.8906 61.7573 34.8906Z" fill="black"/>
<path id="Vector_50" d="M66.6348 34.8906C67.9897 34.8906 69.0736 35.9745 69.0736 37.3294C69.0736 38.6842 67.9897 39.7681 66.6348 39.7681C65.28 39.7681 64.1961 38.6842 64.1961 37.3294C64.1961 35.9745 65.28 34.8906 66.6348 34.8906Z" fill="black"/>
<path id="Vector_51" d="M76.3652 34.8906C77.7201 34.8906 78.804 35.9745 78.804 37.3294C78.804 38.6842 77.7201 39.7681 76.3652 39.7681C75.0104 39.7681 73.9265 38.6842 73.9265 37.3294C73.9265 35.9745 75.0104 34.8906 76.3652 34.8906Z" fill="black"/>
<path id="Vector_52" d="M81.2427 34.8906C82.5975 34.8906 83.6814 35.9745 83.6814 37.3294C83.6814 38.6842 82.5975 39.7681 81.2427 39.7681C79.8878 39.7681 78.8039 38.6842 78.8039 37.3294C78.8039 35.9745 79.8878 34.8906 81.2427 34.8906Z" fill="black"/>
<path id="Vector_53" d="M86.0956 34.8906C87.4504 34.8906 88.5343 35.9745 88.5343 37.3294C88.5343 38.6842 87.4504 39.7681 86.0956 39.7681C84.7407 39.7681 83.6568 38.6842 83.6568 37.3294C83.6568 35.9745 84.7407 34.8906 86.0956 34.8906Z" fill="black"/>
<path id="Vector_54" d="M90.9731 34.8906C92.3279 34.8906 93.4118 35.9745 93.4118 37.3294C93.4118 38.6842 92.3279 39.7681 90.9731 39.7681C89.6182 39.7681 88.5343 38.6842 88.5343 37.3294C88.5343 35.9745 89.6182 34.8906 90.9731 34.8906Z" fill="black"/>
<path id="Vector_55" d="M95.8259 34.8906C97.1808 34.8906 98.2647 35.9745 98.2647 37.3294C98.2647 38.6842 97.1808 39.7681 95.8259 39.7681C94.4711 39.7681 93.3872 38.6842 93.3872 37.3294C93.3872 35.9745 94.4711 34.8906 95.8259 34.8906Z" fill="black"/>
<path id="Vector_56" d="M3.35051 39.7666C4.70538 39.7666 5.78926 40.8505 5.78926 42.2053C5.78926 43.5602 4.70538 44.6441 3.35051 44.6441C1.99565 44.6441 0.911766 43.5602 0.911766 42.2053C0.911766 40.8505 1.99565 39.7666 3.35051 39.7666Z" fill="black"/>
<path id="Vector_57" d="M22.8113 39.7666C24.1661 39.7666 25.25 40.8505 25.25 42.2053C25.25 43.5602 24.1661 44.6441 22.8113 44.6441C21.4564 44.6441 20.3725 43.5602 20.3725 42.2053C20.3725 40.8505 21.4564 39.7666 22.8113 39.7666Z" fill="black"/>
<path id="Vector_58" d="M32.5417 39.7666C33.8965 39.7666 34.9804 40.8505 34.9804 42.2053C34.9804 43.5602 33.8965 44.6441 32.5417 44.6441C31.1868 44.6441 30.1029 43.5602 30.1029 42.2053C30.1029 40.8505 31.1868 39.7666 32.5417 39.7666Z" fill="black"/>
<path id="Vector_59" d="M37.4191 39.7666C38.7739 39.7666 39.8578 40.8505 39.8578 42.2053C39.8578 43.5602 38.7739 44.6441 37.4191 44.6441C36.0642 44.6441 34.9803 43.5602 34.9803 42.2053C34.9803 40.8505 36.0642 39.7666 37.4191 39.7666Z" fill="black"/>
<path id="Vector_60" d="M42.2966 39.7666C43.6514 39.7666 44.7353 40.8505 44.7353 42.2053C44.7353 43.5602 43.6514 44.6441 42.2966 44.6441C40.9417 44.6441 39.8578 43.5602 39.8578 42.2053C39.8578 40.8505 40.9417 39.7666 42.2966 39.7666Z" fill="black"/>
<path id="Vector_61" d="M47.1495 39.7666C48.5044 39.7666 49.5883 40.8505 49.5883 42.2053C49.5883 43.5602 48.5044 44.6441 47.1495 44.6441C45.7947 44.6441 44.7108 43.5602 44.7108 42.2053C44.7108 40.8505 45.7947 39.7666 47.1495 39.7666Z" fill="black"/>
<path id="Vector_62" d="M56.9045 39.7666C58.2593 39.7666 59.3432 40.8505 59.3432 42.2053C59.3432 43.5602 58.2593 44.6441 56.9045 44.6441C55.5496 44.6441 54.4657 43.5602 54.4657 42.2053C54.4657 40.8505 55.5496 39.7666 56.9045 39.7666Z" fill="black"/>
<path id="Vector_63" d="M66.6348 39.7666C67.9897 39.7666 69.0736 40.8505 69.0736 42.2053C69.0736 43.5602 67.9897 44.6441 66.6348 44.6441C65.28 44.6441 64.1961 43.5602 64.1961 42.2053C64.1961 40.8505 65.28 39.7666 66.6348 39.7666Z" fill="black"/>
<path id="Vector_64" d="M86.0956 39.7666C87.4504 39.7666 88.5343 40.8505 88.5343 42.2053C88.5343 43.5602 87.4504 44.6441 86.0956 44.6441C84.7407 44.6441 83.6568 43.5602 83.6568 42.2053C83.6568 40.8505 84.7407 39.7666 86.0956 39.7666Z" fill="black"/>
<path id="Vector_65" d="M100.703 39.7666C102.058 39.7666 103.142 40.8505 103.142 42.2053C103.142 43.5602 102.058 44.6441 100.703 44.6441C99.3486 44.6441 98.2647 43.5602 98.2647 42.2053C98.2647 40.8505 99.3486 39.7666 100.703 39.7666Z" fill="black"/>
<path id="Vector_66" d="M105.581 39.7666C106.936 39.7666 108.02 40.8505 108.02 42.2053C108.02 43.5602 106.936 44.6441 105.581 44.6441C104.226 44.6441 103.142 43.5602 103.142 42.2053C103.142 40.8505 104.226 39.7666 105.581 39.7666Z" fill="black"/>
<path id="Vector_67" d="M110.434 39.7666C111.789 39.7666 112.873 40.8505 112.873 42.2053C112.873 43.5602 111.789 44.6441 110.434 44.6441C109.079 44.6441 107.995 43.5602 107.995 42.2053C107.995 40.8505 109.079 39.7666 110.434 39.7666Z" fill="black"/>
<path id="Vector_68" d="M115.311 39.7666C116.666 39.7666 117.75 40.8505 117.75 42.2053C117.75 43.5602 116.666 44.6441 115.311 44.6441C113.956 44.6441 112.873 43.5602 112.873 42.2053C112.873 40.8505 113.956 39.7666 115.311 39.7666Z" fill="black"/>
<path id="Vector_69" d="M120.189 39.7666C121.544 39.7666 122.628 40.8505 122.628 42.2053C122.628 43.5602 121.544 44.6441 120.189 44.6441C118.834 44.6441 117.75 43.5602 117.75 42.2053C117.75 40.8505 118.834 39.7666 120.189 39.7666Z" fill="black"/>
<path id="Vector_70" d="M125.042 39.7666C126.397 39.7666 127.48 40.8505 127.48 42.2053C127.48 43.5602 126.397 44.6441 125.042 44.6441C123.687 44.6441 122.603 43.5602 122.603 42.2053C122.603 40.8505 123.687 39.7666 125.042 39.7666Z" fill="black"/>
<path id="Vector_71" d="M139.65 39.7666C141.004 39.7666 142.088 40.8505 142.088 42.2053C142.088 43.5602 141.004 44.6441 139.65 44.6441C138.295 44.6441 137.211 43.5602 137.211 42.2053C137.211 40.8505 138.295 39.7666 139.65 39.7666Z" fill="black"/>
<path id="Vector_72" d="M8.20342 44.6455C9.55828 44.6455 10.6422 45.7294 10.6422 47.0843C10.6422 48.4391 9.55828 49.523 8.20342 49.523C6.84856 49.523 5.76467 48.4391 5.76467 47.0843C5.76467 45.7294 6.84856 44.6455 8.20342 44.6455Z" fill="black"/>
<path id="Vector_73" d="M13.0809 44.6455C14.4358 44.6455 15.5197 45.7294 15.5197 47.0843C15.5197 48.4391 14.4358 49.523 13.0809 49.523C11.7261 49.523 10.6422 48.4391 10.6422 47.0843C10.6422 45.7294 11.7261 44.6455 13.0809 44.6455Z" fill="black"/>
<path id="Vector_74" d="M22.8113 44.6455C24.1661 44.6455 25.25 45.7294 25.25 47.0843C25.25 48.4391 24.1661 49.523 22.8113 49.523C21.4564 49.523 20.3725 48.4391 20.3725 47.0843C20.3725 45.7294 21.4564 44.6455 22.8113 44.6455Z" fill="black"/>
<path id="Vector_75" d="M27.6888 44.6455C29.0436 44.6455 30.1275 45.7294 30.1275 47.0843C30.1275 48.4391 29.0436 49.523 27.6888 49.523C26.3339 49.523 25.25 48.4391 25.25 47.0843C25.25 45.7294 26.3339 44.6455 27.6888 44.6455Z" fill="black"/>
<path id="Vector_76" d="M37.4191 44.6455C38.7739 44.6455 39.8578 45.7294 39.8578 47.0843C39.8578 48.4391 38.7739 49.523 37.4191 49.523C36.0642 49.523 34.9803 48.4391 34.9803 47.0843C34.9803 45.7294 36.0642 44.6455 37.4191 44.6455Z" fill="black"/>
<path id="Vector_77" d="M66.6348 44.6455C67.9897 44.6455 69.0736 45.7294 69.0736 47.0843C69.0736 48.4391 67.9897 49.523 66.6348 49.523C65.28 49.523 64.1961 48.4391 64.1961 47.0843C64.1961 45.7294 65.28 44.6455 66.6348 44.6455Z" fill="black"/>
<path id="Vector_78" d="M71.4877 44.6455C72.8426 44.6455 73.9265 45.7294 73.9265 47.0843C73.9265 48.4391 72.8426 49.523 71.4877 49.523C70.1329 49.523 69.049 48.4391 69.049 47.0843C69.049 45.7294 70.1329 44.6455 71.4877 44.6455Z" fill="black"/>
<path id="Vector_79" d="M81.2427 44.6455C82.5975 44.6455 83.6814 45.7294 83.6814 47.0843C83.6814 48.4391 82.5975 49.523 81.2427 49.523C79.8878 49.523 78.8039 48.4391 78.8039 47.0843C78.8039 45.7294 79.8878 44.6455 81.2427 44.6455Z" fill="black"/>
<path id="Vector_80" d="M105.581 44.6455C106.936 44.6455 108.02 45.7294 108.02 47.0843C108.02 48.4391 106.936 49.523 105.581 49.523C104.226 49.523 103.142 48.4391 103.142 47.0843C103.142 45.7294 104.226 44.6455 105.581 44.6455Z" fill="black"/>
<path id="Vector_81" d="M110.434 44.6455C111.789 44.6455 112.873 45.7294 112.873 47.0843C112.873 48.4391 111.789 49.523 110.434 49.523C109.079 49.523 107.995 48.4391 107.995 47.0843C107.995 45.7294 109.079 44.6455 110.434 44.6455Z" fill="black"/>
<path id="Vector_82" d="M115.311 44.6455C116.666 44.6455 117.75 45.7294 117.75 47.0843C117.75 48.4391 116.666 49.523 115.311 49.523C113.956 49.523 112.873 48.4391 112.873 47.0843C112.873 45.7294 113.956 44.6455 115.311 44.6455Z" fill="black"/>
<path id="Vector_83" d="M120.189 44.6455C121.544 44.6455 122.628 45.7294 122.628 47.0843C122.628 48.4391 121.544 49.523 120.189 49.523C118.834 49.523 117.75 48.4391 117.75 47.0843C117.75 45.7294 118.834 44.6455 120.189 44.6455Z" fill="black"/>
<path id="Vector_84" d="M125.042 44.6455C126.397 44.6455 127.48 45.7294 127.48 47.0843C127.48 48.4391 126.397 49.523 125.042 49.523C123.687 49.523 122.603 48.4391 122.603 47.0843C122.603 45.7294 123.687 44.6455 125.042 44.6455Z" fill="black"/>
<path id="Vector_85" d="M129.919 44.6455C131.274 44.6455 132.358 45.7294 132.358 47.0843C132.358 48.4391 131.274 49.523 129.919 49.523C128.564 49.523 127.48 48.4391 127.48 47.0843C127.48 45.7294 128.564 44.6455 129.919 44.6455Z" fill="black"/>
<path id="Vector_86" d="M134.772 44.6455C136.127 44.6455 137.211 45.7294 137.211 47.0843C137.211 48.4391 136.127 49.523 134.772 49.523C133.417 49.523 132.333 48.4391 132.333 47.0843C132.333 45.7294 133.417 44.6455 134.772 44.6455Z" fill="black"/>
<path id="Vector_87" d="M139.65 44.6455C141.004 44.6455 142.088 45.7294 142.088 47.0843C142.088 48.4391 141.004 49.523 139.65 49.523C138.295 49.523 137.211 48.4391 137.211 47.0843C137.211 45.7294 138.295 44.6455 139.65 44.6455Z" fill="black"/>
<path id="Vector_88" d="M3.35055 49.498C4.70541 49.498 5.78929 50.5819 5.78929 51.9368C5.78929 53.2917 4.70541 54.3755 3.35055 54.3755C1.99568 54.3755 0.911797 53.2917 0.911797 51.9368C0.911797 50.5819 1.99568 49.498 3.35055 49.498Z" fill="black"/>
<path id="Vector_89" d="M8.20341 49.498C9.55827 49.498 10.6422 50.5819 10.6422 51.9368C10.6422 53.2917 9.55827 54.3755 8.20341 54.3755C6.84855 54.3755 5.76466 53.2917 5.76466 51.9368C5.76466 50.5819 6.84855 49.498 8.20341 49.498Z" fill="black"/>
<path id="Vector_90" d="M13.0809 49.498C14.4358 49.498 15.5197 50.5819 15.5197 51.9368C15.5197 53.2917 14.4358 54.3755 13.0809 54.3755C11.7261 54.3755 10.6422 53.2917 10.6422 51.9368C10.6422 50.5819 11.7261 49.498 13.0809 49.498Z" fill="black"/>
<path id="Vector_91" d="M22.8112 49.498C24.1661 49.498 25.25 50.5819 25.25 51.9368C25.25 53.2917 24.1661 54.3755 22.8112 54.3755C21.4563 54.3755 20.3725 53.2917 20.3725 51.9368C20.3725 50.5819 21.4563 49.498 22.8112 49.498Z" fill="black"/>
<path id="Vector_92" d="M32.5416 49.498C33.8965 49.498 34.9804 50.5819 34.9804 51.9368C34.9804 53.2917 33.8965 54.3755 32.5416 54.3755C31.1868 54.3755 30.1029 53.2917 30.1029 51.9368C30.1029 50.5819 31.1868 49.498 32.5416 49.498Z" fill="black"/>
<path id="Vector_93" d="M56.9044 49.498C58.2593 49.498 59.3432 50.5819 59.3432 51.9368C59.3432 53.2917 58.2593 54.3755 56.9044 54.3755C55.5496 54.3755 54.4657 53.2917 54.4657 51.9368C54.4657 50.5819 55.5496 49.498 56.9044 49.498Z" fill="black"/>
<path id="Vector_94" d="M81.2427 49.498C82.5975 49.498 83.6814 50.5819 83.6814 51.9368C83.6814 53.2917 82.5975 54.3755 81.2427 54.3755C79.8878 54.3755 78.8039 53.2917 78.8039 51.9368C78.8039 50.5819 79.8878 49.498 81.2427 49.498Z" fill="black"/>
<path id="Vector_95" d="M100.703 49.498C102.058 49.498 103.142 50.5819 103.142 51.9368C103.142 53.2917 102.058 54.3755 100.703 54.3755C99.3485 54.3755 98.2647 53.2917 98.2647 51.9368C98.2647 50.5819 99.3485 49.498 100.703 49.498Z" fill="black"/>
<path id="Vector_96" d="M110.434 49.498C111.789 49.498 112.873 50.5819 112.873 51.9368C112.873 53.2917 111.789 54.3755 110.434 54.3755C109.079 54.3755 107.995 53.2917 107.995 51.9368C107.995 50.5819 109.079 49.498 110.434 49.498Z" fill="black"/>
<path id="Vector_97" d="M120.189 49.498C121.544 49.498 122.628 50.5819 122.628 51.9368C122.628 53.2917 121.544 54.3755 120.189 54.3755C118.834 54.3755 117.75 53.2917 117.75 51.9368C117.75 50.5819 118.834 49.498 120.189 49.498Z" fill="black"/>
<path id="Vector_98" d="M139.65 49.498C141.004 49.498 142.088 50.5819 142.088 51.9368C142.088 53.2917 141.004 54.3755 139.65 54.3755C138.295 54.3755 137.211 53.2917 137.211 51.9368C137.211 50.5819 138.295 49.498 139.65 49.498Z" fill="black"/>
<path id="Vector_99" d="M3.35051 54.376C4.70538 54.376 5.78926 55.4599 5.78926 56.8147C5.78926 58.1696 4.70538 59.2535 3.35051 59.2535C1.99565 59.2535 0.911766 58.1696 0.911766 56.8147C0.911766 55.4599 1.99565 54.376 3.35051 54.376Z" fill="black"/>
<path id="Vector_100" d="M8.20342 54.376C9.55828 54.376 10.6422 55.4599 10.6422 56.8147C10.6422 58.1696 9.55828 59.2535 8.20342 59.2535C6.84856 59.2535 5.76467 58.1696 5.76467 56.8147C5.76467 55.4599 6.84856 54.376 8.20342 54.376Z" fill="black"/>
<path id="Vector_101" d="M22.8113 54.376C24.1661 54.376 25.25 55.4599 25.25 56.8147C25.25 58.1696 24.1661 59.2535 22.8113 59.2535C21.4564 59.2535 20.3725 58.1696 20.3725 56.8147C20.3725 55.4599 21.4564 54.376 22.8113 54.376Z" fill="black"/>
<path id="Vector_102" d="M37.4191 54.376C38.7739 54.376 39.8578 55.4599 39.8578 56.8147C39.8578 58.1696 38.7739 59.2535 37.4191 59.2535C36.0642 59.2535 34.9803 58.1696 34.9803 56.8147C34.9803 55.4599 36.0642 54.376 37.4191 54.376Z" fill="black"/>
<path id="Vector_103" d="M47.1495 54.376C48.5044 54.376 49.5883 55.4599 49.5883 56.8147C49.5883 58.1696 48.5044 59.2535 47.1495 59.2535C45.7947 59.2535 44.7108 58.1696 44.7108 56.8147C44.7108 55.4599 45.7947 54.376 47.1495 54.376Z" fill="black"/>
<path id="Vector_104" d="M61.7573 54.376C63.1122 54.376 64.1961 55.4599 64.1961 56.8147C64.1961 58.1696 63.1122 59.2535 61.7573 59.2535C60.4025 59.2535 59.3186 58.1696 59.3186 56.8147C59.3186 55.4599 60.4025 54.376 61.7573 54.376Z" fill="black"/>
<path id="Vector_105" d="M71.4877 54.376C72.8426 54.376 73.9265 55.4599 73.9265 56.8147C73.9265 58.1696 72.8426 59.2535 71.4877 59.2535C70.1329 59.2535 69.049 58.1696 69.049 56.8147C69.049 55.4599 70.1329 54.376 71.4877 54.376Z" fill="black"/>
<path id="Vector_106" d="M86.0956 54.376C87.4504 54.376 88.5343 55.4599 88.5343 56.8147C88.5343 58.1696 87.4504 59.2535 86.0956 59.2535C84.7407 59.2535 83.6568 58.1696 83.6568 56.8147C83.6568 55.4599 84.7407 54.376 86.0956 54.376Z" fill="black"/>
<path id="Vector_107" d="M100.703 54.376C102.058 54.376 103.142 55.4599 103.142 56.8147C103.142 58.1696 102.058 59.2535 100.703 59.2535C99.3486 59.2535 98.2647 58.1696 98.2647 56.8147C98.2647 55.4599 99.3486 54.376 100.703 54.376Z" fill="black"/>
<path id="Vector_108" d="M105.581 54.376C106.936 54.376 108.02 55.4599 108.02 56.8147C108.02 58.1696 106.936 59.2535 105.581 59.2535C104.226 59.2535 103.142 58.1696 103.142 56.8147C103.142 55.4599 104.226 54.376 105.581 54.376Z" fill="black"/>
<path id="Vector_109" d="M110.434 54.376C111.789 54.376 112.873 55.4599 112.873 56.8147C112.873 58.1696 111.789 59.2535 110.434 59.2535C109.079 59.2535 107.995 58.1696 107.995 56.8147C107.995 55.4599 109.079 54.376 110.434 54.376Z" fill="black"/>
<path id="Vector_110" d="M115.311 54.376C116.666 54.376 117.75 55.4599 117.75 56.8147C117.75 58.1696 116.666 59.2535 115.311 59.2535C113.956 59.2535 112.873 58.1696 112.873 56.8147C112.873 55.4599 113.956 54.376 115.311 54.376Z" fill="black"/>
<path id="Vector_111" d="M120.189 54.376C121.544 54.376 122.628 55.4599 122.628 56.8147C122.628 58.1696 121.544 59.2535 120.189 59.2535C118.834 59.2535 117.75 58.1696 117.75 56.8147C117.75 55.4599 118.834 54.376 120.189 54.376Z" fill="black"/>
<path id="Vector_112" d="M125.042 54.376C126.397 54.376 127.48 55.4599 127.48 56.8147C127.48 58.1696 126.397 59.2535 125.042 59.2535C123.687 59.2535 122.603 58.1696 122.603 56.8147C122.603 55.4599 123.687 54.376 125.042 54.376Z" fill="black"/>
<path id="Vector_113" d="M134.772 54.376C136.127 54.376 137.211 55.4599 137.211 56.8147C137.211 58.1696 136.127 59.2535 134.772 59.2535C133.417 59.2535 132.333 58.1696 132.333 56.8147C132.333 55.4599 133.417 54.376 134.772 54.376Z" fill="black"/>
<path id="Vector_114" d="M139.65 54.376C141.004 54.376 142.088 55.4599 142.088 56.8147C142.088 58.1696 141.004 59.2535 139.65 59.2535C138.295 59.2535 137.211 58.1696 137.211 56.8147C137.211 55.4599 138.295 54.376 139.65 54.376Z" fill="black"/>
<path id="Vector_115" d="M3.35051 59.2285C4.70538 59.2285 5.78926 60.3124 5.78926 61.6673C5.78926 63.0221 4.70538 64.106 3.35051 64.106C1.99565 64.106 0.911766 63.0221 0.911766 61.6673C0.911766 60.3124 1.99565 59.2285 3.35051 59.2285Z" fill="black"/>
<path id="Vector_116" d="M8.20342 59.2285C9.55828 59.2285 10.6422 60.3124 10.6422 61.6673C10.6422 63.0221 9.55828 64.106 8.20342 64.106C6.84856 64.106 5.76467 63.0221 5.76467 61.6673C5.76467 60.3124 6.84856 59.2285 8.20342 59.2285Z" fill="black"/>
<path id="Vector_117" d="M17.9584 59.2285C19.3133 59.2285 20.3972 60.3124 20.3972 61.6673C20.3972 63.0221 19.3133 64.106 17.9584 64.106C16.6036 64.106 15.5197 63.0221 15.5197 61.6673C15.5197 60.3124 16.6036 59.2285 17.9584 59.2285Z" fill="black"/>
<path id="Vector_118" d="M32.5417 59.2285C33.8965 59.2285 34.9804 60.3124 34.9804 61.6673C34.9804 63.0221 33.8965 64.106 32.5417 64.106C31.1868 64.106 30.1029 63.0221 30.1029 61.6673C30.1029 60.3124 31.1868 59.2285 32.5417 59.2285Z" fill="black"/>
<path id="Vector_119" d="M37.4191 59.2285C38.7739 59.2285 39.8578 60.3124 39.8578 61.6673C39.8578 63.0221 38.7739 64.106 37.4191 64.106C36.0642 64.106 34.9803 63.0221 34.9803 61.6673C34.9803 60.3124 36.0642 59.2285 37.4191 59.2285Z" fill="black"/>
<path id="Vector_120" d="M42.2966 59.2285C43.6514 59.2285 44.7353 60.3124 44.7353 61.6673C44.7353 63.0221 43.6514 64.106 42.2966 64.106C40.9417 64.106 39.8578 63.0221 39.8578 61.6673C39.8578 60.3124 40.9417 59.2285 42.2966 59.2285Z" fill="black"/>
<path id="Vector_121" d="M47.1495 59.2285C48.5044 59.2285 49.5883 60.3124 49.5883 61.6673C49.5883 63.0221 48.5044 64.106 47.1495 64.106C45.7947 64.106 44.7108 63.0221 44.7108 61.6673C44.7108 60.3124 45.7947 59.2285 47.1495 59.2285Z" fill="black"/>
<path id="Vector_122" d="M56.9045 59.2285C58.2593 59.2285 59.3432 60.3124 59.3432 61.6673C59.3432 63.0221 58.2593 64.106 56.9045 64.106C55.5496 64.106 54.4657 63.0221 54.4657 61.6673C54.4657 60.3124 55.5496 59.2285 56.9045 59.2285Z" fill="black"/>
<path id="Vector_123" d="M66.6348 59.2285C67.9897 59.2285 69.0736 60.3124 69.0736 61.6673C69.0736 63.0221 67.9897 64.106 66.6348 64.106C65.28 64.106 64.1961 63.0221 64.1961 61.6673C64.1961 60.3124 65.28 59.2285 66.6348 59.2285Z" fill="black"/>
<path id="Vector_124" d="M71.4877 59.2285C72.8426 59.2285 73.9265 60.3124 73.9265 61.6673C73.9265 63.0221 72.8426 64.106 71.4877 64.106C70.1329 64.106 69.049 63.0221 69.049 61.6673C69.049 60.3124 70.1329 59.2285 71.4877 59.2285Z" fill="black"/>
<path id="Vector_125" d="M76.3652 59.2285C77.7201 59.2285 78.804 60.3124 78.804 61.6673C78.804 63.0221 77.7201 64.106 76.3652 64.106C75.0104 64.106 73.9265 63.0221 73.9265 61.6673C73.9265 60.3124 75.0104 59.2285 76.3652 59.2285Z" fill="black"/>
<path id="Vector_126" d="M81.2427 59.2285C82.5975 59.2285 83.6814 60.3124 83.6814 61.6673C83.6814 63.0221 82.5975 64.106 81.2427 64.106C79.8878 64.106 78.8039 63.0221 78.8039 61.6673C78.8039 60.3124 79.8878 59.2285 81.2427 59.2285Z" fill="black"/>
<path id="Vector_127" d="M86.0956 59.2285C87.4504 59.2285 88.5343 60.3124 88.5343 61.6673C88.5343 63.0221 87.4504 64.106 86.0956 64.106C84.7407 64.106 83.6568 63.0221 83.6568 61.6673C83.6568 60.3124 84.7407 59.2285 86.0956 59.2285Z" fill="black"/>
<path id="Vector_128" d="M95.826 59.2285C97.1808 59.2285 98.2647 60.3124 98.2647 61.6673C98.2647 63.0221 97.1808 64.106 95.826 64.106C94.4711 64.106 93.3872 63.0221 93.3872 61.6673C93.3872 60.3124 94.4711 59.2285 95.826 59.2285Z" fill="black"/>
<path id="Vector_129" d="M100.703 59.2285C102.058 59.2285 103.142 60.3124 103.142 61.6673C103.142 63.0221 102.058 64.106 100.703 64.106C99.3486 64.106 98.2647 63.0221 98.2647 61.6673C98.2647 60.3124 99.3486 59.2285 100.703 59.2285Z" fill="black"/>
<path id="Vector_130" d="M105.581 59.2285C106.936 59.2285 108.02 60.3124 108.02 61.6673C108.02 63.0221 106.936 64.106 105.581 64.106C104.226 64.106 103.142 63.0221 103.142 61.6673C103.142 60.3124 104.226 59.2285 105.581 59.2285Z" fill="black"/>
<path id="Vector_131" d="M134.772 59.2285C136.127 59.2285 137.211 60.3124 137.211 61.6673C137.211 63.0221 136.127 64.106 134.772 64.106C133.417 64.106 132.333 63.0221 132.333 61.6673C132.333 60.3124 133.417 59.2285 134.772 59.2285Z" fill="black"/>
<path id="Vector_132" d="M3.35055 64.1074C4.70541 64.1074 5.78929 65.1913 5.78929 66.5462C5.78929 67.901 4.70541 68.9849 3.35055 68.9849C1.99568 68.9849 0.911797 67.901 0.911797 66.5462C0.911797 65.1913 1.99568 64.1074 3.35055 64.1074Z" fill="black"/>
<path id="Vector_133" d="M27.6888 64.1074C29.0436 64.1074 30.1275 65.1913 30.1275 66.5462C30.1275 67.901 29.0436 68.9849 27.6888 68.9849C26.3339 68.9849 25.25 67.901 25.25 66.5462C25.25 65.1913 26.3339 64.1074 27.6888 64.1074Z" fill="black"/>
<path id="Vector_134" d="M52.027 64.1074C53.3819 64.1074 54.4658 65.1913 54.4658 66.5462C54.4658 67.901 53.3819 68.9849 52.027 68.9849C50.6722 68.9849 49.5883 67.901 49.5883 66.5462C49.5883 65.1913 50.6722 64.1074 52.027 64.1074Z" fill="black"/>
<path id="Vector_135" d="M105.581 64.1074C106.936 64.1074 108.02 65.1913 108.02 66.5462C108.02 67.901 106.936 68.9849 105.581 68.9849C104.226 68.9849 103.142 67.901 103.142 66.5462C103.142 65.1913 104.226 64.1074 105.581 64.1074Z" fill="black"/>
<path id="Vector_136" d="M110.434 64.1074C111.789 64.1074 112.873 65.1913 112.873 66.5462C112.873 67.901 111.789 68.9849 110.434 68.9849C109.079 68.9849 107.995 67.901 107.995 66.5462C107.995 65.1913 109.079 64.1074 110.434 64.1074Z" fill="black"/>
<path id="Vector_137" d="M115.311 64.1074C116.666 64.1074 117.75 65.1913 117.75 66.5462C117.75 67.901 116.666 68.9849 115.311 68.9849C113.956 68.9849 112.873 67.901 112.873 66.5462C112.873 65.1913 113.956 64.1074 115.311 64.1074Z" fill="black"/>
<path id="Vector_138" d="M120.189 64.1074C121.544 64.1074 122.628 65.1913 122.628 66.5462C122.628 67.901 121.544 68.9849 120.189 68.9849C118.834 68.9849 117.75 67.901 117.75 66.5462C117.75 65.1913 118.834 64.1074 120.189 64.1074Z" fill="black"/>
<path id="Vector_139" d="M125.042 64.1074C126.397 64.1074 127.48 65.1913 127.48 66.5462C127.48 67.901 126.397 68.9849 125.042 68.9849C123.687 68.9849 122.603 67.901 122.603 66.5462C122.603 65.1913 123.687 64.1074 125.042 64.1074Z" fill="black"/>
<path id="Vector_140" d="M129.919 64.1074C131.274 64.1074 132.358 65.1913 132.358 66.5462C132.358 67.901 131.274 68.9849 129.919 68.9849C128.564 68.9849 127.48 67.901 127.48 66.5462C127.48 65.1913 128.564 64.1074 129.919 64.1074Z" fill="black"/>
<path id="Vector_141" d="M134.772 64.1074C136.127 64.1074 137.211 65.1913 137.211 66.5462C137.211 67.901 136.127 68.9849 134.772 68.9849C133.417 68.9849 132.333 67.901 132.333 66.5462C132.333 65.1913 133.417 64.1074 134.772 64.1074Z" fill="black"/>
<path id="Vector_142" d="M139.65 64.1074C141.004 64.1074 142.088 65.1913 142.088 66.5462C142.088 67.901 141.004 68.9849 139.65 68.9849C138.295 68.9849 137.211 67.901 137.211 66.5462C137.211 65.1913 138.295 64.1074 139.65 64.1074Z" fill="black"/>
<path id="Vector_143" d="M3.35055 68.9834C4.70541 68.9834 5.78929 70.0673 5.78929 71.4221C5.78929 72.777 4.70541 73.8609 3.35055 73.8609C1.99568 73.8609 0.911797 72.777 0.911797 71.4221C0.911797 70.0673 1.99568 68.9834 3.35055 68.9834Z" fill="black"/>
<path id="Vector_144" d="M13.0809 68.9834C14.4358 68.9834 15.5197 70.0673 15.5197 71.4221C15.5197 72.777 14.4358 73.8609 13.0809 73.8609C11.7261 73.8609 10.6422 72.777 10.6422 71.4221C10.6422 70.0673 11.7261 68.9834 13.0809 68.9834Z" fill="black"/>
<path id="Vector_145" d="M17.9584 68.9834C19.3133 68.9834 20.3972 70.0673 20.3972 71.4221C20.3972 72.777 19.3133 73.8609 17.9584 73.8609C16.6035 73.8609 15.5197 72.777 15.5197 71.4221C15.5197 70.0673 16.6035 68.9834 17.9584 68.9834Z" fill="black"/>
<path id="Vector_146" d="M32.5416 68.9834C33.8965 68.9834 34.9804 70.0673 34.9804 71.4221C34.9804 72.777 33.8965 73.8609 32.5416 73.8609C31.1868 73.8609 30.1029 72.777 30.1029 71.4221C30.1029 70.0673 31.1868 68.9834 32.5416 68.9834Z" fill="black"/>
<path id="Vector_147" d="M37.4191 68.9834C38.7739 68.9834 39.8578 70.0673 39.8578 71.4221C39.8578 72.777 38.7739 73.8609 37.4191 73.8609C36.0642 73.8609 34.9803 72.777 34.9803 71.4221C34.9803 70.0673 36.0642 68.9834 37.4191 68.9834Z" fill="black"/>
<path id="Vector_148" d="M47.1495 68.9834C48.5044 68.9834 49.5883 70.0673 49.5883 71.4221C49.5883 72.777 48.5044 73.8609 47.1495 73.8609C45.7947 73.8609 44.7108 72.777 44.7108 71.4221C44.7108 70.0673 45.7947 68.9834 47.1495 68.9834Z" fill="black"/>
<path id="Vector_149" d="M52.027 68.9834C53.3819 68.9834 54.4658 70.0673 54.4658 71.4221C54.4658 72.777 53.3819 73.8609 52.027 73.8609C50.6722 73.8609 49.5883 72.777 49.5883 71.4221C49.5883 70.0673 50.6722 68.9834 52.027 68.9834Z" fill="black"/>
<path id="Vector_150" d="M56.9044 68.9834C58.2593 68.9834 59.3432 70.0673 59.3432 71.4221C59.3432 72.777 58.2593 73.8609 56.9044 73.8609C55.5496 73.8609 54.4657 72.777 54.4657 71.4221C54.4657 70.0673 55.5496 68.9834 56.9044 68.9834Z" fill="black"/>
<path id="Vector_151" d="M61.7573 68.9834C63.1122 68.9834 64.1961 70.0673 64.1961 71.4221C64.1961 72.777 63.1122 73.8609 61.7573 73.8609C60.4025 73.8609 59.3186 72.777 59.3186 71.4221C59.3186 70.0673 60.4025 68.9834 61.7573 68.9834Z" fill="black"/>
<path id="Vector_152" d="M66.6348 68.9834C67.9897 68.9834 69.0736 70.0673 69.0736 71.4221C69.0736 72.777 67.9897 73.8609 66.6348 73.8609C65.2799 73.8609 64.1961 72.777 64.1961 71.4221C64.1961 70.0673 65.2799 68.9834 66.6348 68.9834Z" fill="black"/>
<path id="Vector_153" d="M71.4878 68.9834C72.8426 68.9834 73.9265 70.0673 73.9265 71.4221C73.9265 72.777 72.8426 73.8609 71.4878 73.8609C70.1329 73.8609 69.049 72.777 69.049 71.4221C69.049 70.0673 70.1329 68.9834 71.4878 68.9834Z" fill="black"/>
<path id="Vector_154" d="M76.3652 68.9834C77.7201 68.9834 78.804 70.0673 78.804 71.4221C78.804 72.777 77.7201 73.8609 76.3652 73.8609C75.0104 73.8609 73.9265 72.777 73.9265 71.4221C73.9265 70.0673 75.0104 68.9834 76.3652 68.9834Z" fill="black"/>
<path id="Vector_155" d="M86.0956 68.9834C87.4504 68.9834 88.5343 70.0673 88.5343 71.4221C88.5343 72.777 87.4504 73.8609 86.0956 73.8609C84.7407 73.8609 83.6568 72.777 83.6568 71.4221C83.6568 70.0673 84.7407 68.9834 86.0956 68.9834Z" fill="black"/>
<path id="Vector_156" d="M90.973 68.9834C92.3279 68.9834 93.4118 70.0673 93.4118 71.4221C93.4118 72.777 92.3279 73.8609 90.973 73.8609C89.6182 73.8609 88.5343 72.777 88.5343 71.4221C88.5343 70.0673 89.6182 68.9834 90.973 68.9834Z" fill="black"/>
<path id="Vector_157" d="M105.581 68.9834C106.936 68.9834 108.02 70.0673 108.02 71.4221C108.02 72.777 106.936 73.8609 105.581 73.8609C104.226 73.8609 103.142 72.777 103.142 71.4221C103.142 70.0673 104.226 68.9834 105.581 68.9834Z" fill="black"/>
<path id="Vector_158" d="M110.434 68.9834C111.789 68.9834 112.873 70.0673 112.873 71.4221C112.873 72.777 111.789 73.8609 110.434 73.8609C109.079 73.8609 107.995 72.777 107.995 71.4221C107.995 70.0673 109.079 68.9834 110.434 68.9834Z" fill="black"/>
<path id="Vector_159" d="M115.311 68.9834C116.666 68.9834 117.75 70.0673 117.75 71.4221C117.75 72.777 116.666 73.8609 115.311 73.8609C113.956 73.8609 112.873 72.777 112.873 71.4221C112.873 70.0673 113.956 68.9834 115.311 68.9834Z" fill="black"/>
<path id="Vector_160" d="M120.189 68.9834C121.544 68.9834 122.628 70.0673 122.628 71.4221C122.628 72.777 121.544 73.8609 120.189 73.8609C118.834 73.8609 117.75 72.777 117.75 71.4221C117.75 70.0673 118.834 68.9834 120.189 68.9834Z" fill="black"/>
<path id="Vector_161" d="M125.042 68.9834C126.397 68.9834 127.48 70.0673 127.48 71.4221C127.48 72.777 126.397 73.8609 125.042 73.8609C123.687 73.8609 122.603 72.777 122.603 71.4221C122.603 70.0673 123.687 68.9834 125.042 68.9834Z" fill="black"/>
<path id="Vector_162" d="M129.919 68.9834C131.274 68.9834 132.358 70.0673 132.358 71.4221C132.358 72.777 131.274 73.8609 129.919 73.8609C128.564 73.8609 127.48 72.777 127.48 71.4221C127.48 70.0673 128.564 68.9834 129.919 68.9834Z" fill="black"/>
<path id="Vector_163" d="M139.65 68.9834C141.004 68.9834 142.088 70.0673 142.088 71.4221C142.088 72.777 141.004 73.8609 139.65 73.8609C138.295 73.8609 137.211 72.777 137.211 71.4221C137.211 70.0673 138.295 68.9834 139.65 68.9834Z" fill="black"/>
<path id="Vector_164" d="M3.35051 73.8359C4.70538 73.8359 5.78926 74.9198 5.78926 76.2747C5.78926 77.6295 4.70538 78.7134 3.35051 78.7134C1.99565 78.7134 0.911766 77.6295 0.911766 76.2747C0.911766 74.9198 1.99565 73.8359 3.35051 73.8359Z" fill="black"/>
<path id="Vector_165" d="M22.8112 73.8359C24.1661 73.8359 25.25 74.9198 25.25 76.2747C25.25 77.6295 24.1661 78.7134 22.8112 78.7134C21.4563 78.7134 20.3725 77.6295 20.3725 76.2747C20.3725 74.9198 21.4563 73.8359 22.8112 73.8359Z" fill="black"/>
<path id="Vector_166" d="M37.4191 73.8359C38.7739 73.8359 39.8578 74.9198 39.8578 76.2747C39.8578 77.6295 38.7739 78.7134 37.4191 78.7134C36.0642 78.7134 34.9803 77.6295 34.9803 76.2747C34.9803 74.9198 36.0642 73.8359 37.4191 73.8359Z" fill="black"/>
<path id="Vector_167" d="M47.1495 73.8359C48.5043 73.8359 49.5882 74.9198 49.5882 76.2747C49.5882 77.6295 48.5043 78.7134 47.1495 78.7134C45.7946 78.7134 44.7107 77.6295 44.7107 76.2747C44.7107 74.9198 45.7946 73.8359 47.1495 73.8359Z" fill="black"/>
<path id="Vector_168" d="M52.027 73.8359C53.3819 73.8359 54.4658 74.9198 54.4658 76.2747C54.4658 77.6295 53.3819 78.7134 52.027 78.7134C50.6722 78.7134 49.5883 77.6295 49.5883 76.2747C49.5883 74.9198 50.6722 73.8359 52.027 73.8359Z" fill="black"/>
<path id="Vector_169" d="M61.7573 73.8359C63.1122 73.8359 64.1961 74.9198 64.1961 76.2747C64.1961 77.6295 63.1122 78.7134 61.7573 78.7134C60.4025 78.7134 59.3186 77.6295 59.3186 76.2747C59.3186 74.9198 60.4025 73.8359 61.7573 73.8359Z" fill="black"/>
<path id="Vector_170" d="M66.6348 73.8359C67.9897 73.8359 69.0736 74.9198 69.0736 76.2747C69.0736 77.6295 67.9897 78.7134 66.6348 78.7134C65.28 78.7134 64.1961 77.6295 64.1961 76.2747C64.1961 74.9198 65.28 73.8359 66.6348 73.8359Z" fill="black"/>
<path id="Vector_171" d="M76.3652 73.8359C77.7201 73.8359 78.804 74.9198 78.804 76.2747C78.804 77.6295 77.7201 78.7134 76.3652 78.7134C75.0104 78.7134 73.9265 77.6295 73.9265 76.2747C73.9265 74.9198 75.0104 73.8359 76.3652 73.8359Z" fill="black"/>
<path id="Vector_172" d="M81.2427 73.8359C82.5975 73.8359 83.6814 74.9198 83.6814 76.2747C83.6814 77.6295 82.5975 78.7134 81.2427 78.7134C79.8878 78.7134 78.8039 77.6295 78.8039 76.2747C78.8039 74.9198 79.8878 73.8359 81.2427 73.8359Z" fill="black"/>
<path id="Vector_173" d="M86.0956 73.8359C87.4504 73.8359 88.5343 74.9198 88.5343 76.2747C88.5343 77.6295 87.4504 78.7134 86.0956 78.7134C84.7407 78.7134 83.6568 77.6295 83.6568 76.2747C83.6568 74.9198 84.7407 73.8359 86.0956 73.8359Z" fill="black"/>
<path id="Vector_174" d="M100.703 73.8359C102.058 73.8359 103.142 74.9198 103.142 76.2747C103.142 77.6295 102.058 78.7134 100.703 78.7134C99.3486 78.7134 98.2647 77.6295 98.2647 76.2747C98.2647 74.9198 99.3486 73.8359 100.703 73.8359Z" fill="black"/>
<path id="Vector_175" d="M105.581 73.8359C106.936 73.8359 108.02 74.9198 108.02 76.2747C108.02 77.6295 106.936 78.7134 105.581 78.7134C104.226 78.7134 103.142 77.6295 103.142 76.2747C103.142 74.9198 104.226 73.8359 105.581 73.8359Z" fill="black"/>
<path id="Vector_176" d="M120.189 73.8359C121.544 73.8359 122.628 74.9198 122.628 76.2747C122.628 77.6295 121.544 78.7134 120.189 78.7134C118.834 78.7134 117.75 77.6295 117.75 76.2747C117.75 74.9198 118.834 73.8359 120.189 73.8359Z" fill="black"/>
<path id="Vector_177" d="M134.772 73.8359C136.127 73.8359 137.211 74.9198 137.211 76.2747C137.211 77.6295 136.127 78.7134 134.772 78.7134C133.417 78.7134 132.333 77.6295 132.333 76.2747C132.333 74.9198 133.417 73.8359 134.772 73.8359Z" fill="black"/>
<path id="Vector_178" d="M139.65 73.8359C141.004 73.8359 142.088 74.9198 142.088 76.2747C142.088 77.6295 141.004 78.7134 139.65 78.7134C138.295 78.7134 137.211 77.6295 137.211 76.2747C137.211 74.9198 138.295 73.8359 139.65 73.8359Z" fill="black"/>
<path id="Vector_179" d="M3.35055 78.7148C4.70541 78.7148 5.78929 79.7987 5.78929 81.1536C5.78929 82.5085 4.70541 83.5923 3.35055 83.5923C1.99568 83.5923 0.911797 82.5085 0.911797 81.1536C0.911797 79.7987 1.99568 78.7148 3.35055 78.7148Z" fill="black"/>
<path id="Vector_180" d="M8.20341 78.7148C9.55827 78.7148 10.6422 79.7987 10.6422 81.1536C10.6422 82.5085 9.55827 83.5923 8.20341 83.5923C6.84855 83.5923 5.76466 82.5085 5.76466 81.1536C5.76466 79.7987 6.84855 78.7148 8.20341 78.7148Z" fill="black"/>
<path id="Vector_181" d="M13.0809 78.7148C14.4358 78.7148 15.5197 79.7987 15.5197 81.1536C15.5197 82.5085 14.4358 83.5923 13.0809 83.5923C11.7261 83.5923 10.6422 82.5085 10.6422 81.1536C10.6422 79.7987 11.7261 78.7148 13.0809 78.7148Z" fill="black"/>
<path id="Vector_182" d="M17.9583 78.7148C19.3132 78.7148 20.3971 79.7987 20.3971 81.1536C20.3971 82.5085 19.3132 83.5923 17.9583 83.5923C16.6035 83.5923 15.5196 82.5085 15.5196 81.1536C15.5196 79.7987 16.6035 78.7148 17.9583 78.7148Z" fill="black"/>
<path id="Vector_183" d="M22.8112 78.7148C24.1661 78.7148 25.25 79.7987 25.25 81.1536C25.25 82.5085 24.1661 83.5923 22.8112 83.5923C21.4563 83.5923 20.3725 82.5085 20.3725 81.1536C20.3725 79.7987 21.4563 78.7148 22.8112 78.7148Z" fill="black"/>
<path id="Vector_184" d="M27.6888 78.7148C29.0436 78.7148 30.1275 79.7987 30.1275 81.1536C30.1275 82.5085 29.0436 83.5923 27.6888 83.5923C26.3339 83.5923 25.25 82.5085 25.25 81.1536C25.25 79.7987 26.3339 78.7148 27.6888 78.7148Z" fill="black"/>
<path id="Vector_185" d="M32.5416 78.7148C33.8965 78.7148 34.9804 79.7987 34.9804 81.1536C34.9804 82.5085 33.8965 83.5923 32.5416 83.5923C31.1868 83.5923 30.1029 82.5085 30.1029 81.1536C30.1029 79.7987 31.1868 78.7148 32.5416 78.7148Z" fill="black"/>
<path id="Vector_186" d="M37.4191 78.7148C38.7739 78.7148 39.8578 79.7987 39.8578 81.1536C39.8578 82.5085 38.7739 83.5923 37.4191 83.5923C36.0642 83.5923 34.9803 82.5085 34.9803 81.1536C34.9803 79.7987 36.0642 78.7148 37.4191 78.7148Z" fill="black"/>
<path id="Vector_187" d="M42.2966 78.7148C43.6514 78.7148 44.7353 79.7987 44.7353 81.1536C44.7353 82.5085 43.6514 83.5923 42.2966 83.5923C40.9417 83.5923 39.8578 82.5085 39.8578 81.1536C39.8578 79.7987 40.9417 78.7148 42.2966 78.7148Z" fill="black"/>
<path id="Vector_188" d="M47.1494 78.7148C48.5043 78.7148 49.5882 79.7987 49.5882 81.1536C49.5882 82.5085 48.5043 83.5923 47.1494 83.5923C45.7946 83.5923 44.7107 82.5085 44.7107 81.1536C44.7107 79.7987 45.7946 78.7148 47.1494 78.7148Z" fill="black"/>
<path id="Vector_189" d="M52.027 78.7148C53.3819 78.7148 54.4658 79.7987 54.4658 81.1536C54.4658 82.5085 53.3819 83.5923 52.027 83.5923C50.6722 83.5923 49.5883 82.5085 49.5883 81.1536C49.5883 79.7987 50.6722 78.7148 52.027 78.7148Z" fill="black"/>
<path id="Vector_190" d="M66.6348 78.7148C67.9897 78.7148 69.0736 79.7987 69.0736 81.1536C69.0736 82.5085 67.9897 83.5923 66.6348 83.5923C65.2799 83.5923 64.1961 82.5085 64.1961 81.1536C64.1961 79.7987 65.2799 78.7148 66.6348 78.7148Z" fill="black"/>
<path id="Vector_191" d="M86.0956 78.7148C87.4504 78.7148 88.5343 79.7987 88.5343 81.1536C88.5343 82.5085 87.4504 83.5923 86.0956 83.5923C84.7407 83.5923 83.6568 82.5085 83.6568 81.1536C83.6568 79.7987 84.7407 78.7148 86.0956 78.7148Z" fill="black"/>
<path id="Vector_192" d="M95.8259 78.7148C97.1808 78.7148 98.2647 79.7987 98.2647 81.1536C98.2647 82.5085 97.1808 83.5923 95.8259 83.5923C94.4711 83.5923 93.3872 82.5085 93.3872 81.1536C93.3872 79.7987 94.4711 78.7148 95.8259 78.7148Z" fill="black"/>
<path id="Vector_193" d="M134.772 78.7148C136.127 78.7148 137.211 79.7987 137.211 81.1536C137.211 82.5085 136.127 83.5923 134.772 83.5923C133.417 83.5923 132.333 82.5085 132.333 81.1536C132.333 79.7987 133.417 78.7148 134.772 78.7148Z" fill="black"/>
<path id="Vector_194" d="M3.35055 83.5664C4.70541 83.5664 5.78929 84.6503 5.78929 86.0052C5.78929 87.36 4.70541 88.4439 3.35055 88.4439C1.99568 88.4439 0.911797 87.36 0.911797 86.0052C0.911797 84.6503 1.99568 83.5664 3.35055 83.5664Z" fill="black"/>
<path id="Vector_195" d="M13.0809 83.5664C14.4358 83.5664 15.5197 84.6503 15.5197 86.0052C15.5197 87.36 14.4358 88.4439 13.0809 88.4439C11.7261 88.4439 10.6422 87.36 10.6422 86.0052C10.6422 84.6503 11.7261 83.5664 13.0809 83.5664Z" fill="black"/>
<path id="Vector_196" d="M17.9584 83.5664C19.3133 83.5664 20.3972 84.6503 20.3972 86.0052C20.3972 87.36 19.3133 88.4439 17.9584 88.4439C16.6035 88.4439 15.5197 87.36 15.5197 86.0052C15.5197 84.6503 16.6035 83.5664 17.9584 83.5664Z" fill="black"/>
<path id="Vector_197" d="M22.8113 83.5664C24.1661 83.5664 25.25 84.6503 25.25 86.0052C25.25 87.36 24.1661 88.4439 22.8113 88.4439C21.4564 88.4439 20.3725 87.36 20.3725 86.0052C20.3725 84.6503 21.4564 83.5664 22.8113 83.5664Z" fill="black"/>
<path id="Vector_198" d="M37.4191 83.5664C38.7739 83.5664 39.8578 84.6503 39.8578 86.0052C39.8578 87.36 38.7739 88.4439 37.4191 88.4439C36.0642 88.4439 34.9803 87.36 34.9803 86.0052C34.9803 84.6503 36.0642 83.5664 37.4191 83.5664Z" fill="black"/>
<path id="Vector_199" d="M52.027 83.5664C53.3819 83.5664 54.4658 84.6503 54.4658 86.0052C54.4658 87.36 53.3819 88.4439 52.027 88.4439C50.6722 88.4439 49.5883 87.36 49.5883 86.0052C49.5883 84.6503 50.6722 83.5664 52.027 83.5664Z" fill="black"/>
<path id="Vector_200" d="M66.6348 83.5664C67.9897 83.5664 69.0736 84.6503 69.0736 86.0052C69.0736 87.36 67.9897 88.4439 66.6348 88.4439C65.2799 88.4439 64.1961 87.36 64.1961 86.0052C64.1961 84.6503 65.2799 83.5664 66.6348 83.5664Z" fill="black"/>
<path id="Vector_201" d="M71.4878 83.5664C72.8426 83.5664 73.9265 84.6503 73.9265 86.0052C73.9265 87.36 72.8426 88.4439 71.4878 88.4439C70.1329 88.4439 69.049 87.36 69.049 86.0052C69.049 84.6503 70.1329 83.5664 71.4878 83.5664Z" fill="black"/>
<path id="Vector_202" d="M81.2427 83.5664C82.5975 83.5664 83.6814 84.6503 83.6814 86.0052C83.6814 87.36 82.5975 88.4439 81.2427 88.4439C79.8878 88.4439 78.8039 87.36 78.8039 86.0052C78.8039 84.6503 79.8878 83.5664 81.2427 83.5664Z" fill="black"/>
<path id="Vector_203" d="M86.0956 83.5664C87.4504 83.5664 88.5343 84.6503 88.5343 86.0052C88.5343 87.36 87.4504 88.4439 86.0956 88.4439C84.7407 88.4439 83.6568 87.36 83.6568 86.0052C83.6568 84.6503 84.7407 83.5664 86.0956 83.5664Z" fill="black"/>
<path id="Vector_204" d="M90.973 83.5664C92.3279 83.5664 93.4118 84.6503 93.4118 86.0052C93.4118 87.36 92.3279 88.4439 90.973 88.4439C89.6182 88.4439 88.5343 87.36 88.5343 86.0052C88.5343 84.6503 89.6182 83.5664 90.973 83.5664Z" fill="black"/>
<path id="Vector_205" d="M110.434 83.5664C111.789 83.5664 112.873 84.6503 112.873 86.0052C112.873 87.36 111.789 88.4439 110.434 88.4439C109.079 88.4439 107.995 87.36 107.995 86.0052C107.995 84.6503 109.079 83.5664 110.434 83.5664Z" fill="black"/>
<path id="Vector_206" d="M115.311 83.5664C116.666 83.5664 117.75 84.6503 117.75 86.0052C117.75 87.36 116.666 88.4439 115.311 88.4439C113.956 88.4439 112.873 87.36 112.873 86.0052C112.873 84.6503 113.956 83.5664 115.311 83.5664Z" fill="black"/>
<path id="Vector_207" d="M120.189 83.5664C121.544 83.5664 122.628 84.6503 122.628 86.0052C122.628 87.36 121.544 88.4439 120.189 88.4439C118.834 88.4439 117.75 87.36 117.75 86.0052C117.75 84.6503 118.834 83.5664 120.189 83.5664Z" fill="black"/>
<path id="Vector_208" d="M125.042 83.5664C126.397 83.5664 127.48 84.6503 127.48 86.0052C127.48 87.36 126.397 88.4439 125.042 88.4439C123.687 88.4439 122.603 87.36 122.603 86.0052C122.603 84.6503 123.687 83.5664 125.042 83.5664Z" fill="black"/>
<path id="Vector_209" d="M134.772 83.5664C136.127 83.5664 137.211 84.6503 137.211 86.0052C137.211 87.36 136.127 88.4439 134.772 88.4439C133.417 88.4439 132.333 87.36 132.333 86.0052C132.333 84.6503 133.417 83.5664 134.772 83.5664Z" fill="black"/>
<path id="Vector_210" d="M139.65 83.5664C141.004 83.5664 142.088 84.6503 142.088 86.0052C142.088 87.36 141.004 88.4439 139.65 88.4439C138.295 88.4439 137.211 87.36 137.211 86.0052C137.211 84.6503 138.295 83.5664 139.65 83.5664Z" fill="black"/>
<path id="Vector_211" d="M22.8112 88.4453C24.1661 88.4453 25.25 89.5292 25.25 90.8841C25.25 92.2389 24.1661 93.3228 22.8112 93.3228C21.4563 93.3228 20.3725 92.2389 20.3725 90.8841C20.3725 89.5292 21.4563 88.4453 22.8112 88.4453Z" fill="black"/>
<path id="Vector_212" d="M27.6888 88.4453C29.0436 88.4453 30.1275 89.5292 30.1275 90.8841C30.1275 92.2389 29.0436 93.3228 27.6888 93.3228C26.3339 93.3228 25.25 92.2389 25.25 90.8841C25.25 89.5292 26.3339 88.4453 27.6888 88.4453Z" fill="black"/>
<path id="Vector_213" d="M32.5417 88.4453C33.8965 88.4453 34.9804 89.5292 34.9804 90.8841C34.9804 92.2389 33.8965 93.3228 32.5417 93.3228C31.1868 93.3228 30.1029 92.2389 30.1029 90.8841C30.1029 89.5292 31.1868 88.4453 32.5417 88.4453Z" fill="black"/>
<path id="Vector_214" d="M37.4191 88.4453C38.7739 88.4453 39.8578 89.5292 39.8578 90.8841C39.8578 92.2389 38.7739 93.3228 37.4191 93.3228C36.0642 93.3228 34.9803 92.2389 34.9803 90.8841C34.9803 89.5292 36.0642 88.4453 37.4191 88.4453Z" fill="black"/>
<path id="Vector_215" d="M42.2966 88.4453C43.6514 88.4453 44.7353 89.5292 44.7353 90.8841C44.7353 92.2389 43.6514 93.3228 42.2966 93.3228C40.9417 93.3228 39.8578 92.2389 39.8578 90.8841C39.8578 89.5292 40.9417 88.4453 42.2966 88.4453Z" fill="black"/>
<path id="Vector_216" d="M47.1495 88.4453C48.5043 88.4453 49.5882 89.5292 49.5882 90.8841C49.5882 92.2389 48.5043 93.3228 47.1495 93.3228C45.7946 93.3228 44.7107 92.2389 44.7107 90.8841C44.7107 89.5292 45.7946 88.4453 47.1495 88.4453Z" fill="black"/>
<path id="Vector_217" d="M52.027 88.4453C53.3819 88.4453 54.4658 89.5292 54.4658 90.8841C54.4658 92.2389 53.3819 93.3228 52.027 93.3228C50.6722 93.3228 49.5883 92.2389 49.5883 90.8841C49.5883 89.5292 50.6722 88.4453 52.027 88.4453Z" fill="black"/>
<path id="Vector_218" d="M81.2427 88.4453C82.5975 88.4453 83.6814 89.5292 83.6814 90.8841C83.6814 92.2389 82.5975 93.3228 81.2427 93.3228C79.8878 93.3228 78.8039 92.2389 78.8039 90.8841C78.8039 89.5292 79.8878 88.4453 81.2427 88.4453Z" fill="black"/>
<path id="Vector_219" d="M86.0956 88.4453C87.4504 88.4453 88.5343 89.5292 88.5343 90.8841C88.5343 92.2389 87.4504 93.3228 86.0956 93.3228C84.7407 93.3228 83.6568 92.2389 83.6568 90.8841C83.6568 89.5292 84.7407 88.4453 86.0956 88.4453Z" fill="black"/>
<path id="Vector_220" d="M100.703 88.4453C102.058 88.4453 103.142 89.5292 103.142 90.8841C103.142 92.2389 102.058 93.3228 100.703 93.3228C99.3486 93.3228 98.2647 92.2389 98.2647 90.8841C98.2647 89.5292 99.3486 88.4453 100.703 88.4453Z" fill="black"/>
<path id="Vector_221" d="M129.919 88.4453C131.274 88.4453 132.358 89.5292 132.358 90.8841C132.358 92.2389 131.274 93.3228 129.919 93.3228C128.564 93.3228 127.48 92.2389 127.48 90.8841C127.48 89.5292 128.564 88.4453 129.919 88.4453Z" fill="black"/>
<path id="Vector_222" d="M139.65 88.4453C141.004 88.4453 142.088 89.5292 142.088 90.8841C142.088 92.2389 141.004 93.3228 139.65 93.3228C138.295 93.3228 137.211 92.2389 137.211 90.8841C137.211 89.5292 138.295 88.4453 139.65 88.4453Z" fill="black"/>
<path id="Vector_223" d="M13.0809 93.3213C14.4358 93.3213 15.5197 94.4052 15.5197 95.76C15.5197 97.1149 14.4358 98.1988 13.0809 98.1988C11.7261 98.1988 10.6422 97.1149 10.6422 95.76C10.6422 94.4052 11.7261 93.3213 13.0809 93.3213Z" fill="black"/>
<path id="Vector_224" d="M27.6888 93.3213C29.0436 93.3213 30.1275 94.4052 30.1275 95.76C30.1275 97.1149 29.0436 98.1988 27.6888 98.1988C26.3339 98.1988 25.25 97.1149 25.25 95.76C25.25 94.4052 26.3339 93.3213 27.6888 93.3213Z" fill="black"/>
<path id="Vector_225" d="M42.2966 93.3213C43.6514 93.3213 44.7353 94.4052 44.7353 95.76C44.7353 97.1149 43.6514 98.1988 42.2966 98.1988C40.9417 98.1988 39.8578 97.1149 39.8578 95.76C39.8578 94.4052 40.9417 93.3213 42.2966 93.3213Z" fill="black"/>
<path id="Vector_226" d="M52.027 93.3213C53.3819 93.3213 54.4658 94.4052 54.4658 95.76C54.4658 97.1149 53.3819 98.1988 52.027 98.1988C50.6722 98.1988 49.5883 97.1149 49.5883 95.76C49.5883 94.4052 50.6722 93.3213 52.027 93.3213Z" fill="black"/>
<path id="Vector_227" d="M56.9045 93.3213C58.2593 93.3213 59.3432 94.4052 59.3432 95.76C59.3432 97.1149 58.2593 98.1988 56.9045 98.1988C55.5496 98.1988 54.4657 97.1149 54.4657 95.76C54.4657 94.4052 55.5496 93.3213 56.9045 93.3213Z" fill="black"/>
<path id="Vector_228" d="M61.7573 93.3213C63.1122 93.3213 64.1961 94.4052 64.1961 95.76C64.1961 97.1149 63.1122 98.1988 61.7573 98.1988C60.4025 98.1988 59.3186 97.1149 59.3186 95.76C59.3186 94.4052 60.4025 93.3213 61.7573 93.3213Z" fill="black"/>
<path id="Vector_229" d="M71.4877 93.3213C72.8425 93.3213 73.9264 94.4052 73.9264 95.76C73.9264 97.1149 72.8425 98.1988 71.4877 98.1988C70.1328 98.1988 69.0489 97.1149 69.0489 95.76C69.0489 94.4052 70.1328 93.3213 71.4877 93.3213Z" fill="black"/>
<path id="Vector_230" d="M86.0956 93.3213C87.4504 93.3213 88.5343 94.4052 88.5343 95.76C88.5343 97.1149 87.4504 98.1988 86.0956 98.1988C84.7407 98.1988 83.6568 97.1149 83.6568 95.76C83.6568 94.4052 84.7407 93.3213 86.0956 93.3213Z" fill="black"/>
<path id="Vector_231" d="M95.8259 93.3213C97.1808 93.3213 98.2647 94.4052 98.2647 95.76C98.2647 97.1149 97.1808 98.1988 95.8259 98.1988C94.4711 98.1988 93.3872 97.1149 93.3872 95.76C93.3872 94.4052 94.4711 93.3213 95.8259 93.3213Z" fill="black"/>
<path id="Vector_232" d="M100.703 93.3213C102.058 93.3213 103.142 94.4052 103.142 95.76C103.142 97.1149 102.058 98.1988 100.703 98.1988C99.3486 98.1988 98.2647 97.1149 98.2647 95.76C98.2647 94.4052 99.3486 93.3213 100.703 93.3213Z" fill="black"/>
<path id="Vector_233" d="M105.581 93.3213C106.936 93.3213 108.02 94.4052 108.02 95.76C108.02 97.1149 106.936 98.1988 105.581 98.1988C104.226 98.1988 103.142 97.1149 103.142 95.76C103.142 94.4052 104.226 93.3213 105.581 93.3213Z" fill="black"/>
<path id="Vector_234" d="M115.311 93.3213C116.666 93.3213 117.75 94.4052 117.75 95.76C117.75 97.1149 116.666 98.1988 115.311 98.1988C113.956 98.1988 112.873 97.1149 112.873 95.76C112.873 94.4052 113.956 93.3213 115.311 93.3213Z" fill="black"/>
<path id="Vector_235" d="M120.189 93.3213C121.544 93.3213 122.628 94.4052 122.628 95.76C122.628 97.1149 121.544 98.1988 120.189 98.1988C118.834 98.1988 117.75 97.1149 117.75 95.76C117.75 94.4052 118.834 93.3213 120.189 93.3213Z" fill="black"/>
<path id="Vector_236" d="M134.772 93.3213C136.127 93.3213 137.211 94.4052 137.211 95.76C137.211 97.1149 136.127 98.1988 134.772 98.1988C133.417 98.1988 132.333 97.1149 132.333 95.76C132.333 94.4052 133.417 93.3213 134.772 93.3213Z" fill="black"/>
<path id="Vector_237" d="M139.65 93.3213C141.004 93.3213 142.088 94.4052 142.088 95.76C142.088 97.1149 141.004 98.1988 139.65 98.1988C138.295 98.1988 137.211 97.1149 137.211 95.76C137.211 94.4052 138.295 93.3213 139.65 93.3213Z" fill="black"/>
<path id="Vector_238" d="M3.35051 98.1738C4.70538 98.1738 5.78926 99.2577 5.78926 100.613C5.78926 101.967 4.70538 103.051 3.35051 103.051C1.99565 103.051 0.911766 101.967 0.911766 100.613C0.911766 99.2577 1.99565 98.1738 3.35051 98.1738Z" fill="black"/>
<path id="Vector_239" d="M8.20342 98.1738C9.55828 98.1738 10.6422 99.2577 10.6422 100.613C10.6422 101.967 9.55828 103.051 8.20342 103.051C6.84856 103.051 5.76467 101.967 5.76467 100.613C5.76467 99.2577 6.84856 98.1738 8.20342 98.1738Z" fill="black"/>
<path id="Vector_240" d="M32.5417 98.1738C33.8965 98.1738 34.9804 99.2577 34.9804 100.613C34.9804 101.967 33.8965 103.051 32.5417 103.051C31.1868 103.051 30.1029 101.967 30.1029 100.613C30.1029 99.2577 31.1868 98.1738 32.5417 98.1738Z" fill="black"/>
<path id="Vector_241" d="M42.2966 98.1738C43.6514 98.1738 44.7353 99.2577 44.7353 100.613C44.7353 101.967 43.6514 103.051 42.2966 103.051C40.9417 103.051 39.8578 101.967 39.8578 100.613C39.8578 99.2577 40.9417 98.1738 42.2966 98.1738Z" fill="black"/>
<path id="Vector_242" d="M47.1495 98.1738C48.5044 98.1738 49.5883 99.2577 49.5883 100.613C49.5883 101.967 48.5044 103.051 47.1495 103.051C45.7947 103.051 44.7108 101.967 44.7108 100.613C44.7108 99.2577 45.7947 98.1738 47.1495 98.1738Z" fill="black"/>
<path id="Vector_243" d="M52.027 98.1738C53.3819 98.1738 54.4658 99.2577 54.4658 100.613C54.4658 101.967 53.3819 103.051 52.027 103.051C50.6722 103.051 49.5883 101.967 49.5883 100.613C49.5883 99.2577 50.6722 98.1738 52.027 98.1738Z" fill="black"/>
<path id="Vector_244" d="M61.7573 98.1738C63.1122 98.1738 64.1961 99.2577 64.1961 100.613C64.1961 101.967 63.1122 103.051 61.7573 103.051C60.4025 103.051 59.3186 101.967 59.3186 100.613C59.3186 99.2577 60.4025 98.1738 61.7573 98.1738Z" fill="black"/>
<path id="Vector_245" d="M66.6348 98.1738C67.9897 98.1738 69.0736 99.2577 69.0736 100.613C69.0736 101.967 67.9897 103.051 66.6348 103.051C65.28 103.051 64.1961 101.967 64.1961 100.613C64.1961 99.2577 65.28 98.1738 66.6348 98.1738Z" fill="black"/>
<path id="Vector_246" d="M71.4877 98.1738C72.8426 98.1738 73.9265 99.2577 73.9265 100.613C73.9265 101.967 72.8426 103.051 71.4877 103.051C70.1329 103.051 69.049 101.967 69.049 100.613C69.049 99.2577 70.1329 98.1738 71.4877 98.1738Z" fill="black"/>
<path id="Vector_247" d="M76.3652 98.1738C77.7201 98.1738 78.804 99.2577 78.804 100.613C78.804 101.967 77.7201 103.051 76.3652 103.051C75.0104 103.051 73.9265 101.967 73.9265 100.613C73.9265 99.2577 75.0104 98.1738 76.3652 98.1738Z" fill="black"/>
<path id="Vector_248" d="M81.2427 98.1738C82.5975 98.1738 83.6814 99.2577 83.6814 100.613C83.6814 101.967 82.5975 103.051 81.2427 103.051C79.8878 103.051 78.8039 101.967 78.8039 100.613C78.8039 99.2577 79.8878 98.1738 81.2427 98.1738Z" fill="black"/>
<path id="Vector_249" d="M90.9731 98.1738C92.3279 98.1738 93.4118 99.2577 93.4118 100.613C93.4118 101.967 92.3279 103.051 90.9731 103.051C89.6182 103.051 88.5343 101.967 88.5343 100.613C88.5343 99.2577 89.6182 98.1738 90.9731 98.1738Z" fill="black"/>
<path id="Vector_250" d="M100.703 98.1738C102.058 98.1738 103.142 99.2577 103.142 100.613C103.142 101.967 102.058 103.051 100.703 103.051C99.3486 103.051 98.2647 101.967 98.2647 100.613C98.2647 99.2577 99.3486 98.1738 100.703 98.1738Z" fill="black"/>
<path id="Vector_251" d="M105.581 98.1738C106.936 98.1738 108.02 99.2577 108.02 100.613C108.02 101.967 106.936 103.051 105.581 103.051C104.226 103.051 103.142 101.967 103.142 100.613C103.142 99.2577 104.226 98.1738 105.581 98.1738Z" fill="black"/>
<path id="Vector_252" d="M110.434 98.1738C111.789 98.1738 112.873 99.2577 112.873 100.613C112.873 101.967 111.789 103.051 110.434 103.051C109.079 103.051 107.995 101.967 107.995 100.613C107.995 99.2577 109.079 98.1738 110.434 98.1738Z" fill="black"/>
<path id="Vector_253" d="M115.311 98.1738C116.666 98.1738 117.75 99.2577 117.75 100.613C117.75 101.967 116.666 103.051 115.311 103.051C113.956 103.051 112.873 101.967 112.873 100.613C112.873 99.2577 113.956 98.1738 115.311 98.1738Z" fill="black"/>
<path id="Vector_254" d="M120.189 98.1738C121.544 98.1738 122.628 99.2577 122.628 100.613C122.628 101.967 121.544 103.051 120.189 103.051C118.834 103.051 117.75 101.967 117.75 100.613C117.75 99.2577 118.834 98.1738 120.189 98.1738Z" fill="black"/>
<path id="Vector_255" d="M125.042 98.1738C126.397 98.1738 127.48 99.2577 127.48 100.613C127.48 101.967 126.397 103.051 125.042 103.051C123.687 103.051 122.603 101.967 122.603 100.613C122.603 99.2577 123.687 98.1738 125.042 98.1738Z" fill="black"/>
<path id="Vector_256" d="M139.65 98.1738C141.004 98.1738 142.088 99.2577 142.088 100.613C142.088 101.967 141.004 103.051 139.65 103.051C138.295 103.051 137.211 101.967 137.211 100.613C137.211 99.2577 138.295 98.1738 139.65 98.1738Z" fill="black"/>
<path id="Vector_257" d="M42.2966 103.053C43.6514 103.053 44.7353 104.137 44.7353 105.491C44.7353 106.846 43.6514 107.93 42.2966 107.93C40.9417 107.93 39.8578 106.846 39.8578 105.491C39.8578 104.137 40.9417 103.053 42.2966 103.053Z" fill="black"/>
<path id="Vector_258" d="M47.1494 103.053C48.5043 103.053 49.5882 104.137 49.5882 105.491C49.5882 106.846 48.5043 107.93 47.1494 107.93C45.7946 107.93 44.7107 106.846 44.7107 105.491C44.7107 104.137 45.7946 103.053 47.1494 103.053Z" fill="black"/>
<path id="Vector_259" d="M86.0956 103.053C87.4504 103.053 88.5343 104.137 88.5343 105.491C88.5343 106.846 87.4504 107.93 86.0956 107.93C84.7407 107.93 83.6568 106.846 83.6568 105.491C83.6568 104.137 84.7407 103.053 86.0956 103.053Z" fill="black"/>
<path id="Vector_260" d="M90.973 103.053C92.3279 103.053 93.4118 104.137 93.4118 105.491C93.4118 106.846 92.3279 107.93 90.973 107.93C89.6182 107.93 88.5343 106.846 88.5343 105.491C88.5343 104.137 89.6182 103.053 90.973 103.053Z" fill="black"/>
<path id="Vector_261" d="M95.8259 103.053C97.1808 103.053 98.2647 104.137 98.2647 105.491C98.2647 106.846 97.1808 107.93 95.8259 107.93C94.4711 107.93 93.3872 106.846 93.3872 105.491C93.3872 104.137 94.4711 103.053 95.8259 103.053Z" fill="black"/>
<path id="Vector_262" d="M100.703 103.053C102.058 103.053 103.142 104.137 103.142 105.491C103.142 106.846 102.058 107.93 100.703 107.93C99.3485 107.93 98.2647 106.846 98.2647 105.491C98.2647 104.137 99.3485 103.053 100.703 103.053Z" fill="black"/>
<path id="Vector_263" d="M120.189 103.053C121.544 103.053 122.628 104.137 122.628 105.491C122.628 106.846 121.544 107.93 120.189 107.93C118.834 107.93 117.75 106.846 117.75 105.491C117.75 104.137 118.834 103.053 120.189 103.053Z" fill="black"/>
<path id="Vector_264" d="M139.65 103.053C141.004 103.053 142.088 104.137 142.088 105.491C142.088 106.846 141.004 107.93 139.65 107.93C138.295 107.93 137.211 106.846 137.211 105.491C137.211 104.137 138.295 103.053 139.65 103.053Z" fill="black"/>
<path id="Vector_265" d="M42.2966 107.904C43.6514 107.904 44.7353 108.988 44.7353 110.343C44.7353 111.698 43.6514 112.782 42.2966 112.782C40.9417 112.782 39.8578 111.698 39.8578 110.343C39.8578 108.988 40.9417 107.904 42.2966 107.904Z" fill="black"/>
<path id="Vector_266" d="M47.1495 107.904C48.5044 107.904 49.5883 108.988 49.5883 110.343C49.5883 111.698 48.5044 112.782 47.1495 112.782C45.7947 112.782 44.7108 111.698 44.7108 110.343C44.7108 108.988 45.7947 107.904 47.1495 107.904Z" fill="black"/>
<path id="Vector_267" d="M52.027 107.904C53.3819 107.904 54.4658 108.988 54.4658 110.343C54.4658 111.698 53.3819 112.782 52.027 112.782C50.6722 112.782 49.5883 111.698 49.5883 110.343C49.5883 108.988 50.6722 107.904 52.027 107.904Z" fill="black"/>
<path id="Vector_268" d="M56.9045 107.904C58.2593 107.904 59.3432 108.988 59.3432 110.343C59.3432 111.698 58.2593 112.782 56.9045 112.782C55.5496 112.782 54.4657 111.698 54.4657 110.343C54.4657 108.988 55.5496 107.904 56.9045 107.904Z" fill="black"/>
<path id="Vector_269" d="M61.7573 107.904C63.1122 107.904 64.1961 108.988 64.1961 110.343C64.1961 111.698 63.1122 112.782 61.7573 112.782C60.4025 112.782 59.3186 111.698 59.3186 110.343C59.3186 108.988 60.4025 107.904 61.7573 107.904Z" fill="black"/>
<path id="Vector_270" d="M66.6348 107.904C67.9897 107.904 69.0736 108.988 69.0736 110.343C69.0736 111.698 67.9897 112.782 66.6348 112.782C65.28 112.782 64.1961 111.698 64.1961 110.343C64.1961 108.988 65.28 107.904 66.6348 107.904Z" fill="black"/>
<path id="Vector_271" d="M71.4877 107.904C72.8426 107.904 73.9265 108.988 73.9265 110.343C73.9265 111.698 72.8426 112.782 71.4877 112.782C70.1329 112.782 69.049 111.698 69.049 110.343C69.049 108.988 70.1329 107.904 71.4877 107.904Z" fill="black"/>
<path id="Vector_272" d="M76.3652 107.904C77.7201 107.904 78.804 108.988 78.804 110.343C78.804 111.698 77.7201 112.782 76.3652 112.782C75.0104 112.782 73.9265 111.698 73.9265 110.343C73.9265 108.988 75.0104 107.904 76.3652 107.904Z" fill="black"/>
<path id="Vector_273" d="M90.9731 107.904C92.3279 107.904 93.4118 108.988 93.4118 110.343C93.4118 111.698 92.3279 112.782 90.9731 112.782C89.6182 112.782 88.5343 111.698 88.5343 110.343C88.5343 108.988 89.6182 107.904 90.9731 107.904Z" fill="black"/>
<path id="Vector_274" d="M95.826 107.904C97.1808 107.904 98.2647 108.988 98.2647 110.343C98.2647 111.698 97.1808 112.782 95.826 112.782C94.4711 112.782 93.3872 111.698 93.3872 110.343C93.3872 108.988 94.4711 107.904 95.826 107.904Z" fill="black"/>
<path id="Vector_275" d="M100.703 107.904C102.058 107.904 103.142 108.988 103.142 110.343C103.142 111.698 102.058 112.782 100.703 112.782C99.3486 112.782 98.2647 111.698 98.2647 110.343C98.2647 108.988 99.3486 107.904 100.703 107.904Z" fill="black"/>
<path id="Vector_276" d="M110.434 107.904C111.789 107.904 112.873 108.988 112.873 110.343C112.873 111.698 111.789 112.782 110.434 112.782C109.079 112.782 107.995 111.698 107.995 110.343C107.995 108.988 109.079 107.904 110.434 107.904Z" fill="black"/>
<path id="Vector_277" d="M120.189 107.904C121.544 107.904 122.628 108.988 122.628 110.343C122.628 111.698 121.544 112.782 120.189 112.782C118.834 112.782 117.75 111.698 117.75 110.343C117.75 108.988 118.834 107.904 120.189 107.904Z" fill="black"/>
<path id="Vector_278" d="M125.042 107.904C126.397 107.904 127.48 108.988 127.48 110.343C127.48 111.698 126.397 112.782 125.042 112.782C123.687 112.782 122.603 111.698 122.603 110.343C122.603 108.988 123.687 107.904 125.042 107.904Z" fill="black"/>
<path id="Vector_279" d="M129.919 107.904C131.274 107.904 132.358 108.988 132.358 110.343C132.358 111.698 131.274 112.782 129.919 112.782C128.564 112.782 127.48 111.698 127.48 110.343C127.48 108.988 128.564 107.904 129.919 107.904Z" fill="black"/>
<path id="Vector_280" d="M139.65 107.904C141.004 107.904 142.088 108.988 142.088 110.343C142.088 111.698 141.004 112.782 139.65 112.782C138.295 112.782 137.211 111.698 137.211 110.343C137.211 108.988 138.295 107.904 139.65 107.904Z" fill="black"/>
<path id="Vector_281" d="M47.1495 112.783C48.5044 112.783 49.5883 113.867 49.5883 115.222C49.5883 116.577 48.5044 117.661 47.1495 117.661C45.7947 117.661 44.7108 116.577 44.7108 115.222C44.7108 113.867 45.7947 112.783 47.1495 112.783Z" fill="black"/>
<path id="Vector_282" d="M52.027 112.783C53.3819 112.783 54.4658 113.867 54.4658 115.222C54.4658 116.577 53.3819 117.661 52.027 117.661C50.6722 117.661 49.5883 116.577 49.5883 115.222C49.5883 113.867 50.6722 112.783 52.027 112.783Z" fill="black"/>
<path id="Vector_283" d="M56.9045 112.783C58.2593 112.783 59.3432 113.867 59.3432 115.222C59.3432 116.577 58.2593 117.661 56.9045 117.661C55.5496 117.661 54.4657 116.577 54.4657 115.222C54.4657 113.867 55.5496 112.783 56.9045 112.783Z" fill="black"/>
<path id="Vector_284" d="M66.6348 112.783C67.9897 112.783 69.0736 113.867 69.0736 115.222C69.0736 116.577 67.9897 117.661 66.6348 117.661C65.28 117.661 64.1961 116.577 64.1961 115.222C64.1961 113.867 65.28 112.783 66.6348 112.783Z" fill="black"/>
<path id="Vector_285" d="M76.3652 112.783C77.7201 112.783 78.804 113.867 78.804 115.222C78.804 116.577 77.7201 117.661 76.3652 117.661C75.0104 117.661 73.9265 116.577 73.9265 115.222C73.9265 113.867 75.0104 112.783 76.3652 112.783Z" fill="black"/>
<path id="Vector_286" d="M81.2427 112.783C82.5975 112.783 83.6814 113.867 83.6814 115.222C83.6814 116.577 82.5975 117.661 81.2427 117.661C79.8878 117.661 78.8039 116.577 78.8039 115.222C78.8039 113.867 79.8878 112.783 81.2427 112.783Z" fill="black"/>
<path id="Vector_287" d="M100.703 112.783C102.058 112.783 103.142 113.867 103.142 115.222C103.142 116.577 102.058 117.661 100.703 117.661C99.3486 117.661 98.2647 116.577 98.2647 115.222C98.2647 113.867 99.3486 112.783 100.703 112.783Z" fill="black"/>
<path id="Vector_288" d="M120.189 112.783C121.544 112.783 122.628 113.867 122.628 115.222C122.628 116.577 121.544 117.661 120.189 117.661C118.834 117.661 117.75 116.577 117.75 115.222C117.75 113.867 118.834 112.783 120.189 112.783Z" fill="black"/>
<path id="Vector_289" d="M42.2966 117.66C43.6514 117.66 44.7353 118.744 44.7353 120.099C44.7353 121.454 43.6514 122.538 42.2966 122.538C40.9417 122.538 39.8578 121.454 39.8578 120.099C39.8578 118.744 40.9417 117.66 42.2966 117.66Z" fill="black"/>
<path id="Vector_290" d="M52.027 117.66C53.3819 117.66 54.4658 118.744 54.4658 120.099C54.4658 121.454 53.3819 122.538 52.027 122.538C50.6722 122.538 49.5883 121.454 49.5883 120.099C49.5883 118.744 50.6722 117.66 52.027 117.66Z" fill="black"/>
<path id="Vector_291" d="M66.6348 117.66C67.9897 117.66 69.0736 118.744 69.0736 120.099C69.0736 121.454 67.9897 122.538 66.6348 122.538C65.2799 122.538 64.1961 121.454 64.1961 120.099C64.1961 118.744 65.2799 117.66 66.6348 117.66Z" fill="black"/>
<path id="Vector_292" d="M95.8259 117.66C97.1808 117.66 98.2647 118.744 98.2647 120.099C98.2647 121.454 97.1808 122.538 95.8259 122.538C94.4711 122.538 93.3872 121.454 93.3872 120.099C93.3872 118.744 94.4711 117.66 95.8259 117.66Z" fill="black"/>
<path id="Vector_293" d="M100.703 117.66C102.058 117.66 103.142 118.744 103.142 120.099C103.142 121.454 102.058 122.538 100.703 122.538C99.3485 122.538 98.2647 121.454 98.2647 120.099C98.2647 118.744 99.3485 117.66 100.703 117.66Z" fill="black"/>
<path id="Vector_294" d="M105.581 117.66C106.936 117.66 108.02 118.744 108.02 120.099C108.02 121.454 106.936 122.538 105.581 122.538C104.226 122.538 103.142 121.454 103.142 120.099C103.142 118.744 104.226 117.66 105.581 117.66Z" fill="black"/>
<path id="Vector_295" d="M110.434 117.66C111.789 117.66 112.873 118.744 112.873 120.099C112.873 121.454 111.789 122.538 110.434 122.538C109.079 122.538 107.995 121.454 107.995 120.099C107.995 118.744 109.079 117.66 110.434 117.66Z" fill="black"/>
<path id="Vector_296" d="M115.311 117.66C116.666 117.66 117.75 118.744 117.75 120.099C117.75 121.454 116.666 122.538 115.311 122.538C113.956 122.538 112.873 121.454 112.873 120.099C112.873 118.744 113.956 117.66 115.311 117.66Z" fill="black"/>
<path id="Vector_297" d="M120.189 117.66C121.544 117.66 122.628 118.744 122.628 120.099C122.628 121.454 121.544 122.538 120.189 122.538C118.834 122.538 117.75 121.454 117.75 120.099C117.75 118.744 118.834 117.66 120.189 117.66Z" fill="black"/>
<path id="Vector_298" d="M125.042 117.66C126.397 117.66 127.48 118.744 127.48 120.099C127.48 121.454 126.397 122.538 125.042 122.538C123.687 122.538 122.603 121.454 122.603 120.099C122.603 118.744 123.687 117.66 125.042 117.66Z" fill="black"/>
<path id="Vector_299" d="M139.65 117.66C141.004 117.66 142.088 118.744 142.088 120.099C142.088 121.454 141.004 122.538 139.65 122.538C138.295 122.538 137.211 121.454 137.211 120.099C137.211 118.744 138.295 117.66 139.65 117.66Z" fill="black"/>
<path id="Vector_300" d="M47.1495 122.514C48.5044 122.514 49.5883 123.598 49.5883 124.952C49.5883 126.307 48.5044 127.391 47.1495 127.391C45.7947 127.391 44.7108 126.307 44.7108 124.952C44.7108 123.598 45.7947 122.514 47.1495 122.514Z" fill="black"/>
<path id="Vector_301" d="M52.027 122.514C53.3819 122.514 54.4658 123.598 54.4658 124.952C54.4658 126.307 53.3819 127.391 52.027 127.391C50.6722 127.391 49.5883 126.307 49.5883 124.952C49.5883 123.598 50.6722 122.514 52.027 122.514Z" fill="black"/>
<path id="Vector_302" d="M56.9045 122.514C58.2593 122.514 59.3432 123.598 59.3432 124.952C59.3432 126.307 58.2593 127.391 56.9045 127.391C55.5496 127.391 54.4657 126.307 54.4657 124.952C54.4657 123.598 55.5496 122.514 56.9045 122.514Z" fill="black"/>
<path id="Vector_303" d="M61.7573 122.514C63.1122 122.514 64.1961 123.598 64.1961 124.952C64.1961 126.307 63.1122 127.391 61.7573 127.391C60.4025 127.391 59.3186 126.307 59.3186 124.952C59.3186 123.598 60.4025 122.514 61.7573 122.514Z" fill="black"/>
<path id="Vector_304" d="M66.6348 122.514C67.9897 122.514 69.0736 123.598 69.0736 124.952C69.0736 126.307 67.9897 127.391 66.6348 127.391C65.28 127.391 64.1961 126.307 64.1961 124.952C64.1961 123.598 65.28 122.514 66.6348 122.514Z" fill="black"/>
<path id="Vector_305" d="M71.4877 122.514C72.8426 122.514 73.9265 123.598 73.9265 124.952C73.9265 126.307 72.8426 127.391 71.4877 127.391C70.1329 127.391 69.049 126.307 69.049 124.952C69.049 123.598 70.1329 122.514 71.4877 122.514Z" fill="black"/>
<path id="Vector_306" d="M81.2427 122.514C82.5975 122.514 83.6814 123.598 83.6814 124.952C83.6814 126.307 82.5975 127.391 81.2427 127.391C79.8878 127.391 78.8039 126.307 78.8039 124.952C78.8039 123.598 79.8878 122.514 81.2427 122.514Z" fill="black"/>
<path id="Vector_307" d="M90.9731 122.514C92.3279 122.514 93.4118 123.598 93.4118 124.952C93.4118 126.307 92.3279 127.391 90.9731 127.391C89.6182 127.391 88.5343 126.307 88.5343 124.952C88.5343 123.598 89.6182 122.514 90.9731 122.514Z" fill="black"/>
<path id="Vector_308" d="M100.703 122.514C102.058 122.514 103.142 123.598 103.142 124.952C103.142 126.307 102.058 127.391 100.703 127.391C99.3486 127.391 98.2647 126.307 98.2647 124.952C98.2647 123.598 99.3486 122.514 100.703 122.514Z" fill="black"/>
<path id="Vector_309" d="M105.581 122.514C106.936 122.514 108.02 123.598 108.02 124.952C108.02 126.307 106.936 127.391 105.581 127.391C104.226 127.391 103.142 126.307 103.142 124.952C103.142 123.598 104.226 122.514 105.581 122.514Z" fill="black"/>
<path id="Vector_310" d="M134.772 122.514C136.127 122.514 137.211 123.598 137.211 124.952C137.211 126.307 136.127 127.391 134.772 127.391C133.417 127.391 132.333 126.307 132.333 124.952C132.333 123.598 133.417 122.514 134.772 122.514Z" fill="black"/>
<path id="Vector_311" d="M47.1495 127.39C48.5044 127.39 49.5883 128.474 49.5883 129.828C49.5883 131.183 48.5044 132.267 47.1495 132.267C45.7947 132.267 44.7108 131.183 44.7108 129.828C44.7108 128.474 45.7947 127.39 47.1495 127.39Z" fill="black"/>
<path id="Vector_312" d="M52.027 127.39C53.3819 127.39 54.4658 128.474 54.4658 129.828C54.4658 131.183 53.3819 132.267 52.027 132.267C50.6722 132.267 49.5883 131.183 49.5883 129.828C49.5883 128.474 50.6722 127.39 52.027 127.39Z" fill="black"/>
<path id="Vector_313" d="M81.2427 127.39C82.5975 127.39 83.6814 128.474 83.6814 129.828C83.6814 131.183 82.5975 132.267 81.2427 132.267C79.8878 132.267 78.8039 131.183 78.8039 129.828C78.8039 128.474 79.8878 127.39 81.2427 127.39Z" fill="black"/>
<path id="Vector_314" d="M86.0956 127.39C87.4504 127.39 88.5343 128.474 88.5343 129.828C88.5343 131.183 87.4504 132.267 86.0956 132.267C84.7407 132.267 83.6568 131.183 83.6568 129.828C83.6568 128.474 84.7407 127.39 86.0956 127.39Z" fill="black"/>
<path id="Vector_315" d="M95.826 127.39C97.1808 127.39 98.2647 128.474 98.2647 129.828C98.2647 131.183 97.1808 132.267 95.826 132.267C94.4711 132.267 93.3872 131.183 93.3872 129.828C93.3872 128.474 94.4711 127.39 95.826 127.39Z" fill="black"/>
<path id="Vector_316" d="M105.581 127.39C106.936 127.39 108.02 128.474 108.02 129.828C108.02 131.183 106.936 132.267 105.581 132.267C104.226 132.267 103.142 131.183 103.142 129.828C103.142 128.474 104.226 127.39 105.581 127.39Z" fill="black"/>
<path id="Vector_317" d="M125.042 127.39C126.397 127.39 127.48 128.474 127.48 129.828C127.48 131.183 126.397 132.267 125.042 132.267C123.687 132.267 122.603 131.183 122.603 129.828C122.603 128.474 123.687 127.39 125.042 127.39Z" fill="black"/>
<path id="Vector_318" d="M129.919 127.39C131.274 127.39 132.358 128.474 132.358 129.828C132.358 131.183 131.274 132.267 129.919 132.267C128.564 132.267 127.48 131.183 127.48 129.828C127.48 128.474 128.564 127.39 129.919 127.39Z" fill="black"/>
<path id="Vector_319" d="M134.772 127.39C136.127 127.39 137.211 128.474 137.211 129.828C137.211 131.183 136.127 132.267 134.772 132.267C133.417 132.267 132.333 131.183 132.333 129.828C132.333 128.474 133.417 127.39 134.772 127.39Z" fill="black"/>
<path id="Vector_320" d="M139.65 127.39C141.004 127.39 142.088 128.474 142.088 129.828C142.088 131.183 141.004 132.267 139.65 132.267C138.295 132.267 137.211 131.183 137.211 129.828C137.211 128.474 138.295 127.39 139.65 127.39Z" fill="black"/>
<path id="Vector_321" d="M52.027 132.27C53.3819 132.27 54.4658 133.353 54.4658 134.708C54.4658 136.063 53.3819 137.147 52.027 137.147C50.6722 137.147 49.5883 136.063 49.5883 134.708C49.5883 133.353 50.6722 132.27 52.027 132.27Z" fill="black"/>
<path id="Vector_322" d="M56.9044 132.27C58.2593 132.27 59.3432 133.353 59.3432 134.708C59.3432 136.063 58.2593 137.147 56.9044 137.147C55.5496 137.147 54.4657 136.063 54.4657 134.708C54.4657 133.353 55.5496 132.27 56.9044 132.27Z" fill="black"/>
<path id="Vector_323" d="M61.7573 132.27C63.1122 132.27 64.1961 133.353 64.1961 134.708C64.1961 136.063 63.1122 137.147 61.7573 137.147C60.4025 137.147 59.3186 136.063 59.3186 134.708C59.3186 133.353 60.4025 132.27 61.7573 132.27Z" fill="black"/>
<path id="Vector_324" d="M66.6348 132.27C67.9897 132.27 69.0736 133.353 69.0736 134.708C69.0736 136.063 67.9897 137.147 66.6348 137.147C65.2799 137.147 64.1961 136.063 64.1961 134.708C64.1961 133.353 65.2799 132.27 66.6348 132.27Z" fill="black"/>
<path id="Vector_325" d="M71.4877 132.27C72.8425 132.27 73.9264 133.353 73.9264 134.708C73.9264 136.063 72.8425 137.147 71.4877 137.147C70.1328 137.147 69.0489 136.063 69.0489 134.708C69.0489 133.353 70.1328 132.27 71.4877 132.27Z" fill="black"/>
<path id="Vector_326" d="M86.0956 132.27C87.4504 132.27 88.5343 133.353 88.5343 134.708C88.5343 136.063 87.4504 137.147 86.0956 137.147C84.7407 137.147 83.6568 136.063 83.6568 134.708C83.6568 133.353 84.7407 132.27 86.0956 132.27Z" fill="black"/>
<path id="Vector_327" d="M90.973 132.27C92.3279 132.27 93.4118 133.353 93.4118 134.708C93.4118 136.063 92.3279 137.147 90.973 137.147C89.6182 137.147 88.5343 136.063 88.5343 134.708C88.5343 133.353 89.6182 132.27 90.973 132.27Z" fill="black"/>
<path id="Vector_328" d="M100.703 132.27C102.058 132.27 103.142 133.353 103.142 134.708C103.142 136.063 102.058 137.147 100.703 137.147C99.3485 137.147 98.2647 136.063 98.2647 134.708C98.2647 133.353 99.3485 132.27 100.703 132.27Z" fill="black"/>
<path id="Vector_329" d="M110.434 132.27C111.789 132.27 112.873 133.353 112.873 134.708C112.873 136.063 111.789 137.147 110.434 137.147C109.079 137.147 107.995 136.063 107.995 134.708C107.995 133.353 109.079 132.27 110.434 132.27Z" fill="black"/>
<path id="Vector_330" d="M115.311 132.27C116.666 132.27 117.75 133.353 117.75 134.708C117.75 136.063 116.666 137.147 115.311 137.147C113.956 137.147 112.873 136.063 112.873 134.708C112.873 133.353 113.956 132.27 115.311 132.27Z" fill="black"/>
<path id="Vector_331" d="M125.042 132.27C126.397 132.27 127.48 133.353 127.48 134.708C127.48 136.063 126.397 137.147 125.042 137.147C123.687 137.147 122.603 136.063 122.603 134.708C122.603 133.353 123.687 132.27 125.042 132.27Z" fill="black"/>
<path id="Vector_332" d="M134.772 132.27C136.127 132.27 137.211 133.353 137.211 134.708C137.211 136.063 136.127 137.147 134.772 137.147C133.417 137.147 132.333 136.063 132.333 134.708C132.333 133.353 133.417 132.27 134.772 132.27Z" fill="black"/>
<path id="Vector_333" d="M139.65 132.27C141.004 132.27 142.088 133.353 142.088 134.708C142.088 136.063 141.004 137.147 139.65 137.147C138.295 137.147 137.211 136.063 137.211 134.708C137.211 133.353 138.295 132.27 139.65 132.27Z" fill="black"/>
<path id="Vector_334" d="M42.2966 137.121C43.6514 137.121 44.7353 138.205 44.7353 139.56C44.7353 140.915 43.6514 141.999 42.2966 141.999C40.9417 141.999 39.8578 140.915 39.8578 139.56C39.8578 138.205 40.9417 137.121 42.2966 137.121Z" fill="black"/>
<path id="Vector_335" d="M56.9044 137.121C58.2593 137.121 59.3432 138.205 59.3432 139.56C59.3432 140.915 58.2593 141.999 56.9044 141.999C55.5496 141.999 54.4657 140.915 54.4657 139.56C54.4657 138.205 55.5496 137.121 56.9044 137.121Z" fill="black"/>
<path id="Vector_336" d="M61.7573 137.121C63.1122 137.121 64.1961 138.205 64.1961 139.56C64.1961 140.915 63.1122 141.999 61.7573 141.999C60.4025 141.999 59.3186 140.915 59.3186 139.56C59.3186 138.205 60.4025 137.121 61.7573 137.121Z" fill="black"/>
<path id="Vector_337" d="M66.6348 137.121C67.9897 137.121 69.0736 138.205 69.0736 139.56C69.0736 140.915 67.9897 141.999 66.6348 141.999C65.2799 141.999 64.1961 140.915 64.1961 139.56C64.1961 138.205 65.2799 137.121 66.6348 137.121Z" fill="black"/>
<path id="Vector_338" d="M71.4878 137.121C72.8426 137.121 73.9265 138.205 73.9265 139.56C73.9265 140.915 72.8426 141.999 71.4878 141.999C70.1329 141.999 69.049 140.915 69.049 139.56C69.049 138.205 70.1329 137.121 71.4878 137.121Z" fill="black"/>
<path id="Vector_339" d="M76.3652 137.121C77.7201 137.121 78.804 138.205 78.804 139.56C78.804 140.915 77.7201 141.999 76.3652 141.999C75.0104 141.999 73.9265 140.915 73.9265 139.56C73.9265 138.205 75.0104 137.121 76.3652 137.121Z" fill="black"/>
<path id="Vector_340" d="M81.2427 137.121C82.5975 137.121 83.6814 138.205 83.6814 139.56C83.6814 140.915 82.5975 141.999 81.2427 141.999C79.8878 141.999 78.8039 140.915 78.8039 139.56C78.8039 138.205 79.8878 137.121 81.2427 137.121Z" fill="black"/>
<path id="Vector_341" d="M90.973 137.121C92.3279 137.121 93.4118 138.205 93.4118 139.56C93.4118 140.915 92.3279 141.999 90.973 141.999C89.6182 141.999 88.5343 140.915 88.5343 139.56C88.5343 138.205 89.6182 137.121 90.973 137.121Z" fill="black"/>
<path id="Vector_342" d="M100.703 137.121C102.058 137.121 103.142 138.205 103.142 139.56C103.142 140.915 102.058 141.999 100.703 141.999C99.3485 141.999 98.2647 140.915 98.2647 139.56C98.2647 138.205 99.3485 137.121 100.703 137.121Z" fill="black"/>
<path id="Vector_343" d="M105.581 137.121C106.936 137.121 108.02 138.205 108.02 139.56C108.02 140.915 106.936 141.999 105.581 141.999C104.226 141.999 103.142 140.915 103.142 139.56C103.142 138.205 104.226 137.121 105.581 137.121Z" fill="black"/>
<path id="Vector_344" d="M115.311 137.121C116.666 137.121 117.75 138.205 117.75 139.56C117.75 140.915 116.666 141.999 115.311 141.999C113.956 141.999 112.873 140.915 112.873 139.56C112.873 138.205 113.956 137.121 115.311 137.121Z" fill="black"/>
<path id="Vector_345" d="M125.042 137.121C126.397 137.121 127.48 138.205 127.48 139.56C127.48 140.915 126.397 141.999 125.042 141.999C123.687 141.999 122.603 140.915 122.603 139.56C122.603 138.205 123.687 137.121 125.042 137.121Z" fill="black"/>
<path id="Vector_346" d="M134.772 137.121C136.127 137.121 137.211 138.205 137.211 139.56C137.211 140.915 136.127 141.999 134.772 141.999C133.417 141.999 132.333 140.915 132.333 139.56C132.333 138.205 133.417 137.121 134.772 137.121Z" fill="black"/>
<g id="Group">
<path id="Vector_347" d="M23.3532 0.820312H12.539C7.26732 0.820312 2.8086 4.29368 1.37984 9.04801C1.23204 9.54069 1.10887 10.058 1.03497 10.5507C0.93643 11.1173 0.911797 11.7085 0.911797 12.2997V23.3603C0.911797 29.7158 6.13417 34.8643 12.539 34.8643H17.9338H23.3286C29.7334 34.8643 34.9557 29.7158 34.9557 23.3603V12.2997C34.9804 5.99342 29.758 0.820312 23.3532 0.820312ZM29.8812 23.3849C29.8812 26.9075 26.9498 29.7897 23.3532 29.7897H17.9584H12.5636C8.96706 29.7897 6.03563 26.9322 6.03563 23.4095V12.3489C6.03563 11.2404 6.33124 10.2058 6.82392 9.29435C7.31659 8.43217 7.98171 7.66852 8.81926 7.10194C9.87851 6.36292 11.1595 5.94415 12.5636 5.94415H23.3778C26.9744 5.94415 29.9058 8.80167 29.9058 12.3243V23.3849H29.8812Z" fill="black"/>
</g>
<g id="Group_2">
<path id="Vector_348" d="M130.461 0.820312H119.647C114.375 0.820312 109.917 4.29368 108.488 9.04801C108.34 9.54069 108.217 10.058 108.143 10.5507C108.044 11.1173 108.02 11.7085 108.02 12.2997V23.3603C108.02 29.7158 113.242 34.8643 119.647 34.8643H125.042H130.437C136.841 34.8643 142.064 29.7158 142.064 23.3603V12.2997C142.088 5.99342 136.866 0.820312 130.461 0.820312ZM136.964 23.3849C136.964 26.9075 134.033 29.7897 130.437 29.7897H125.042H119.647C116.05 29.7897 113.119 26.9322 113.119 23.4095V12.3489C113.119 11.2404 113.415 10.2058 113.907 9.29435C114.4 8.43217 115.065 7.66852 115.903 7.10194C116.962 6.36292 118.243 5.94415 119.647 5.94415H130.461C134.058 5.94415 136.989 8.80167 136.989 12.3243V23.3849H136.964Z" fill="black"/>
</g>
<g id="Group_3">
<path id="Vector_349" d="M23.3532 107.928H12.539C7.26732 107.928 2.8086 111.401 1.37984 116.156C1.23204 116.648 1.10887 117.166 1.03497 117.658C0.93643 118.225 0.911797 118.816 0.911797 119.407V130.468C0.911797 136.823 6.13417 141.972 12.539 141.972H17.9338H23.3286C29.7334 141.972 34.9557 136.823 34.9557 130.468V119.407C34.9557 113.076 29.7334 107.903 23.3286 107.903L23.3532 107.928ZM29.8812 130.493C29.8812 134.015 26.9498 136.897 23.3532 136.897H17.9584H12.5636C8.96706 136.897 6.03563 134.04 6.03563 130.517V119.457C6.03563 118.348 6.33124 117.313 6.82392 116.402C7.31659 115.54 7.98171 114.776 8.81926 114.21C9.87851 113.471 11.1595 113.052 12.5636 113.052H23.3778C26.9744 113.052 29.9058 115.909 29.9058 119.432V130.493H29.8812Z" fill="black"/>
</g>
<path id="Vector_350" d="M14.6328 25.1606C12.4404 25.1606 10.6422 23.4116 10.6422 21.2438V14.4695C10.6422 13.8044 10.8146 13.1639 11.1348 12.5973C11.4304 12.0554 11.8492 11.612 12.3665 11.2671C13.007 10.8237 13.7953 10.5527 14.6575 10.5527H21.284C23.4764 10.5527 25.2747 12.3017 25.2747 14.4695V21.2438C25.2747 23.4116 23.4764 25.1606 21.284 25.1606H14.6575H14.6328Z" fill="black"/>
<path id="Vector_351" d="M121.741 25.1606C119.548 25.1606 117.75 23.4116 117.75 21.2438V14.4695C117.75 13.8044 117.922 13.1639 118.243 12.5973C118.538 12.0554 118.957 11.612 119.474 11.2671C120.115 10.8237 120.903 10.5527 121.765 10.5527H128.392C130.584 10.5527 132.383 12.3017 132.383 14.4695V21.2438C132.383 23.4116 130.584 25.1606 128.392 25.1606H121.765H121.741Z" fill="black"/>
<path id="Vector_352" d="M14.6328 132.268C12.4404 132.268 10.6422 130.519 10.6422 128.351V121.577C10.6422 120.912 10.8146 120.271 11.1348 119.705C11.4304 119.163 11.8492 118.719 12.3665 118.375C13.007 117.931 13.7953 117.66 14.6575 117.66H21.284C23.4764 117.66 25.2747 119.409 25.2747 121.577V128.351C25.2747 130.519 23.4764 132.268 21.284 132.268H14.6575H14.6328Z" fill="black"/>
</g>
<defs>
<clipPath id="clip0_3403_11280">
<rect width="141.176" height="141.176" fill="white" transform="translate(0.911766 0.823242)"/>
</clipPath>
</defs>
</svg>
