<svg width="16" height="16" viewBox="0 0 16 16" fill="none" xmlns="http://www.w3.org/2000/svg">
<g id="Capa_1" clip-path="url(#clip0_5045_23064)">
<g id="Group">
<path id="Vector" d="M1.48765 14.3248C1.61321 14.4619 1.80796 14.5119 1.98409 14.4521L3.99084 13.7707L4.82979 15.7168C4.9036 15.888 5.07188 15.9993 5.25832 16H5.26026C5.44595 16 5.6142 15.8904 5.68917 15.7203L7.25301 12.1731C7.49789 12.2032 7.74711 12.2189 7.99999 12.2189C8.25287 12.2189 8.50209 12.2032 8.74697 12.1731L10.3108 15.7203C10.3857 15.8904 10.554 16 10.7397 16H10.7417C10.9282 15.9993 11.0964 15.888 11.1702 15.7168L12.0092 13.7707L14.0159 14.4521C14.1919 14.5119 14.3868 14.4619 14.5124 14.3248C14.638 14.1876 14.6706 13.9892 14.5955 13.819L12.8353 9.8292C13.6241 8.8019 14.0939 7.51742 14.0939 6.12508C14.0939 2.74769 11.3602 0 8.00002 0C4.63988 0 1.90618 2.74769 1.90618 6.12508C1.90618 7.51742 2.37591 8.80193 3.16473 9.8292L1.40452 13.819C1.32946 13.9892 1.36205 14.1876 1.48765 14.3248ZM13.3071 13.2213L11.9008 12.7438C11.6693 12.6652 11.4164 12.7777 11.3196 13.0021L10.7349 14.3583L9.68698 11.9812C10.6163 11.7131 11.4549 11.2291 12.1451 10.5875L13.3071 13.2213ZM2.8437 6.12508C2.8437 3.26464 5.15682 0.937513 8.00002 0.937513C10.8432 0.937513 13.1563 3.26464 13.1563 6.12508C13.1563 8.96828 10.8432 11.2814 8.00002 11.2814C5.15682 11.2814 2.8437 8.96828 2.8437 6.12508ZM3.85487 10.5875C4.54513 11.2291 5.3837 11.7131 6.31306 11.9812L5.26507 14.3583L4.68044 13.0021C4.58366 12.7776 4.33069 12.6652 4.09928 12.7438L2.69291 13.2213L3.85487 10.5875Z" fill="black"/>
<path id="Vector_2" d="M6.1589 6.72324L5.8848 8.32117C5.85465 8.49702 5.92693 8.67477 6.07127 8.77964C6.21537 8.88433 6.40675 8.89849 6.56494 8.81533L7.99999 8.06088L9.43501 8.81533C9.59298 8.89836 9.78439 8.88452 9.92867 8.77964C10.073 8.67477 10.1453 8.49705 10.1152 8.32117L9.84111 6.72324L11.0021 5.59157C11.1298 5.46704 11.1758 5.28075 11.1207 5.11106C11.0655 4.94137 10.9188 4.81768 10.7423 4.79203L9.13785 4.5589L8.42034 3.10507C8.34137 2.94506 8.1784 2.84375 7.99999 2.84375C7.82158 2.84375 7.65861 2.94503 7.57964 3.10507L6.86213 4.5589L5.2577 4.79203C5.08114 4.81768 4.93441 4.94137 4.87929 5.11106C4.82413 5.28075 4.87013 5.46704 4.99788 5.5916L6.1589 6.72324ZM7.24082 5.45119C7.39351 5.429 7.52548 5.33313 7.59376 5.19475L7.99999 4.37165L8.40621 5.19475C8.47449 5.3331 8.6065 5.429 8.75915 5.45119L9.66751 5.58319L9.01022 6.22389C8.89975 6.33158 8.84934 6.48674 8.87544 6.6388L9.0306 7.5435L8.21812 7.11637C8.08158 7.04459 7.91842 7.04456 7.78186 7.11637L6.96938 7.5435L7.12454 6.6388C7.1506 6.48674 7.10019 6.33158 6.98972 6.22389L6.3324 5.58319L7.24082 5.45119Z" fill="black"/>
</g>
</g>
<defs>
<clipPath id="clip0_5045_23064">
<rect width="16" height="16" fill="white"/>
</clipPath>
</defs>
</svg>
