<svg width="25" height="24" viewBox="0 0 25 24" fill="none" xmlns="http://www.w3.org/2000/svg">
<g id="Capa_1" clip-path="url(#clip0_5257_14966)">
<g id="Group">
<g id="Group_2">
<path id="Vector" d="M10.5557 5.19922C7.5122 5.19922 4.92892 7.20673 4.06005 9.96702C3.67094 9.70714 3.20392 9.55527 2.70194 9.55527C1.34992 9.55531 0.25 10.6552 0.25 12.0073C0.25 13.3593 1.34992 14.4592 2.70194 14.4592C3.20392 14.4592 3.67098 14.3073 4.06005 14.0474C4.92892 16.8078 7.51216 18.8152 10.5557 18.8152C14.133 18.8152 17.0747 16.0421 17.3436 12.5325L24.25 10.4046V5.19922H10.5557ZM2.70194 13.0529C2.12533 13.0529 1.65625 12.5838 1.65625 12.0073C1.65625 11.4306 2.12533 10.9616 2.70194 10.9616C3.27855 10.9616 3.74762 11.4306 3.74762 12.0073C3.74762 12.5838 3.27855 13.0529 2.70194 13.0529ZM22.8438 9.36636L17.3637 11.0548V10.0581C17.3637 9.66977 17.0489 9.35497 16.6606 9.35497C16.2722 9.35497 15.9574 9.66977 15.9574 10.0581V11.4881V12.0073C15.9574 14.9858 13.5342 17.409 10.5557 17.409C7.57708 17.409 5.15387 14.9858 5.15387 12.0073C5.15387 9.02867 7.57708 6.60547 10.5557 6.60547H22.8438V9.36636Z" fill="#DEE1E3"/>
</g>
</g>
<circle id="Ellipse 3" cx="10.75" cy="12" r="1.5" fill="#DEE1E3"/>
</g>
<defs>
<clipPath id="clip0_5257_14966">
<rect width="24" height="24" fill="white" transform="translate(0.25)"/>
</clipPath>
</defs>
</svg>
