<svg width="18" height="16" viewBox="0 0 18 16" fill="none" xmlns="http://www.w3.org/2000/svg">
<g id="refresh-ccw">
<path id="Vector" d="M1.66675 2.66602V6.66602H5.66675" stroke="#545F71" stroke-width="2" stroke-linecap="round" stroke-linejoin="round"/>
<path id="Vector_2" d="M16.3333 13.334V9.33398H12.3333" stroke="#545F71" stroke-width="2" stroke-linecap="round" stroke-linejoin="round"/>
<path id="Vector_3" d="M14.6601 6.00038C14.322 5.0449 13.7473 4.19064 12.9898 3.51732C12.2322 2.844 11.3164 2.37355 10.3279 2.14988C9.33934 1.92621 8.31024 1.9566 7.33662 2.23823C6.363 2.51985 5.47658 3.04352 4.76008 3.76038L1.66675 6.66704M16.3334 9.33371L13.2401 12.2404C12.5236 12.9572 11.6372 13.4809 10.6635 13.7625C9.68992 14.0441 8.66082 14.0745 7.67227 13.8509C6.68372 13.6272 5.76795 13.1568 5.01039 12.4834C4.25284 11.8101 3.67819 10.9559 3.34008 10.0004" stroke="#545F71" stroke-width="2" stroke-linecap="round" stroke-linejoin="round"/>
</g>
</svg>
