<svg width="17" height="17" viewBox="0 0 17 17" fill="none" xmlns="http://www.w3.org/2000/svg">
<g id="user-check" clip-path="url(#clip0_5257_14857)">
<path id="Vector" d="M10.9167 14.5V13.1667C10.9167 12.4594 10.6357 11.7811 10.1356 11.281C9.63554 10.781 8.95726 10.5 8.25002 10.5H3.58335C2.87611 10.5 2.19783 10.781 1.69774 11.281C1.19764 11.7811 0.916687 12.4594 0.916687 13.1667V14.5" stroke="#545F71" stroke-width="1.33333" stroke-linecap="round" stroke-linejoin="round"/>
<path id="Vector_2" d="M5.91667 7.83333C7.38943 7.83333 8.58333 6.63943 8.58333 5.16667C8.58333 3.69391 7.38943 2.5 5.91667 2.5C4.44391 2.5 3.25 3.69391 3.25 5.16667C3.25 6.63943 4.44391 7.83333 5.91667 7.83333Z" stroke="#545F71" stroke-width="1.33333" stroke-linecap="round" stroke-linejoin="round"/>
<path id="Vector_3" d="M11.5833 7.83333L12.9166 9.16667L15.5833 6.5" stroke="#545F71" stroke-width="1.33333" stroke-linecap="round" stroke-linejoin="round"/>
</g>
<defs>
<clipPath id="clip0_5257_14857">
<rect width="16" height="16" fill="white" transform="translate(0.25 0.5)"/>
</clipPath>
</defs>
</svg>
