<svg width="24" height="24" viewBox="0 0 24 24" fill="none" xmlns="http://www.w3.org/2000/svg">
<g id="Layer_1">
<g id="Group">
<g id="Group_2">
<path id="Vector" d="M21.6381 3.17057L12.2467 0.0401133C12.0857 -0.0133711 11.9125 -0.0133711 11.7515 0.0401133L2.36018 3.17057C2.04073 3.27707 1.8252 3.57613 1.8252 3.91297V10.1877C1.82515 19.1684 9.81902 24 11.9991 24C13.5633 24 22.1731 19.7483 22.1731 10.1876V3.91293C22.1731 3.57613 21.9575 3.27702 21.6381 3.17057ZM19.0426 10.1893C19.0426 16.9894 13.1564 20.6423 11.9991 20.6436V3.30749C12.2326 3.30796 18.2855 5.35044 18.5071 5.42408C18.8265 5.5303 19.0426 5.82964 19.0426 6.16668L19.0426 10.1893Z" fill="black"/>
</g>
</g>
</g>
</svg>
