<svg width="17" height="16" viewBox="0 0 17 16" fill="none" xmlns="http://www.w3.org/2000/svg">
<g id="settings" clip-path="url(#clip0_5257_14837)">
<path id="Vector" d="M8.75 10C9.85457 10 10.75 9.10457 10.75 8C10.75 6.89543 9.85457 6 8.75 6C7.64543 6 6.75 6.89543 6.75 8C6.75 9.10457 7.64543 10 8.75 10Z" stroke="#DEE1E3" stroke-width="1.33333" stroke-linecap="round" stroke-linejoin="round"/>
<path id="Vector_2" d="M13.6834 10.0013C13.5946 10.2024 13.5681 10.4254 13.6074 10.6417C13.6466 10.858 13.7497 11.0575 13.9034 11.2146L13.9434 11.2546C14.0673 11.3785 14.1657 11.5255 14.2328 11.6874C14.2999 11.8492 14.3344 12.0227 14.3344 12.198C14.3344 12.3732 14.2999 12.5467 14.2328 12.7086C14.1657 12.8704 14.0673 13.0175 13.9434 13.1413C13.8195 13.2653 13.6725 13.3636 13.5106 13.4307C13.3487 13.4978 13.1752 13.5324 13 13.5324C12.8248 13.5324 12.6513 13.4978 12.4894 13.4307C12.3276 13.3636 12.1805 13.2653 12.0567 13.1413L12.0167 13.1013C11.8596 12.9476 11.66 12.8445 11.4437 12.8053C11.2275 12.7661 11.0044 12.7926 10.8034 12.8813C10.6062 12.9658 10.438 13.1061 10.3196 13.285C10.2011 13.4639 10.1375 13.6734 10.1367 13.888V14.0013C10.1367 14.3549 9.99621 14.6941 9.74616 14.9441C9.49611 15.1942 9.15698 15.3346 8.80335 15.3346C8.44973 15.3346 8.11059 15.1942 7.86055 14.9441C7.6105 14.6941 7.47002 14.3549 7.47002 14.0013V13.9413C7.46486 13.7206 7.39343 13.5066 7.26503 13.3271C7.13662 13.1476 6.95718 13.0108 6.75002 12.9346C6.54894 12.8459 6.32589 12.8194 6.10963 12.8586C5.89336 12.8978 5.69381 13.0009 5.53669 13.1546L5.49669 13.1946C5.37286 13.3186 5.2258 13.4169 5.06394 13.484C4.90208 13.5511 4.72857 13.5857 4.55335 13.5857C4.37813 13.5857 4.20463 13.5511 4.04277 13.484C3.8809 13.4169 3.73385 13.3186 3.61002 13.1946C3.48605 13.0708 3.38771 12.9238 3.32061 12.7619C3.25351 12.6 3.21897 12.4265 3.21897 12.2513C3.21897 12.0761 3.25351 11.9026 3.32061 11.7407C3.38771 11.5789 3.48605 11.4318 3.61002 11.308L3.65002 11.268C3.80371 11.1108 3.90681 10.9113 3.94602 10.695C3.98524 10.4788 3.95876 10.2557 3.87002 10.0546C3.78551 9.85746 3.64519 9.68929 3.46633 9.57084C3.28747 9.45239 3.07788 9.38882 2.86335 9.38797H2.75002C2.3964 9.38797 2.05726 9.24749 1.80721 8.99744C1.55716 8.7474 1.41669 8.40826 1.41669 8.05464C1.41669 7.70101 1.55716 7.36188 1.80721 7.11183C2.05726 6.86178 2.3964 6.7213 2.75002 6.7213H2.81002C3.03068 6.71614 3.24469 6.64471 3.42422 6.51631C3.60375 6.3879 3.7405 6.20846 3.81669 6.0013C3.90543 5.80022 3.9319 5.57717 3.89269 5.36091C3.85348 5.14465 3.75038 4.94509 3.59669 4.78797L3.55669 4.74797C3.43272 4.62414 3.33437 4.47709 3.26727 4.31522C3.20018 4.15336 3.16564 3.97986 3.16564 3.80464C3.16564 3.62941 3.20018 3.45591 3.26727 3.29405C3.33437 3.13218 3.43272 2.98513 3.55669 2.8613C3.68052 2.73733 3.82757 2.63899 3.98943 2.57189C4.1513 2.50479 4.3248 2.47025 4.50002 2.47025C4.67524 2.47025 4.84874 2.50479 5.01061 2.57189C5.17247 2.63899 5.31952 2.73733 5.44335 2.8613L5.48335 2.9013C5.64047 3.05499 5.84003 3.15809 6.05629 3.19731C6.27256 3.23652 6.49561 3.21005 6.69669 3.1213H6.75002C6.9472 3.03679 7.11537 2.89647 7.23382 2.71761C7.35227 2.53875 7.41583 2.32916 7.41669 2.11464V2.0013C7.41669 1.64768 7.55716 1.30854 7.80721 1.05849C8.05726 0.808445 8.3964 0.667969 8.75002 0.667969C9.10364 0.667969 9.44278 0.808445 9.69283 1.05849C9.94288 1.30854 10.0834 1.64768 10.0834 2.0013V2.0613C10.0842 2.27583 10.1478 2.48542 10.2662 2.66428C10.3847 2.84314 10.5528 2.98346 10.75 3.06797C10.9511 3.15671 11.1741 3.18318 11.3904 3.14397C11.6067 3.10476 11.8062 3.00166 11.9634 2.84797L12.0034 2.80797C12.1272 2.684 12.2742 2.58565 12.4361 2.51856C12.598 2.45146 12.7715 2.41692 12.9467 2.41692C13.1219 2.41692 13.2954 2.45146 13.4573 2.51856C13.6191 2.58565 13.7662 2.684 13.89 2.80797C14.014 2.9318 14.1123 3.07885 14.1794 3.24072C14.2465 3.40258 14.2811 3.57608 14.2811 3.7513C14.2811 3.92652 14.2465 4.10003 14.1794 4.26189C14.1123 4.42375 14.014 4.5708 13.89 4.69464L13.85 4.73464C13.6963 4.89175 13.5932 5.09131 13.554 5.30758C13.5148 5.52384 13.5413 5.74689 13.63 5.94797V6.0013C13.7145 6.19848 13.8549 6.36665 14.0337 6.4851C14.2126 6.60355 14.4222 6.66711 14.6367 6.66797H14.75C15.1036 6.66797 15.4428 6.80844 15.6928 7.05849C15.9429 7.30854 16.0834 7.64768 16.0834 8.0013C16.0834 8.35492 15.9429 8.69406 15.6928 8.94411C15.4428 9.19416 15.1036 9.33464 14.75 9.33464H14.69C14.4755 9.33549 14.2659 9.39906 14.087 9.51751C13.9082 9.63596 13.7679 9.80412 13.6834 10.0013Z" stroke="#DEE1E3" stroke-width="1.33333" stroke-linecap="round" stroke-linejoin="round"/>
</g>
<defs>
<clipPath id="clip0_5257_14837">
<rect width="16" height="16" fill="white" transform="translate(0.75)"/>
</clipPath>
</defs>
</svg>
