<svg width="49" height="48" viewBox="0 0 49 48" fill="none" xmlns="http://www.w3.org/2000/svg">
<g id="telegram-svgrepo-com 1" clip-path="url(#clip0_4133_31371)">
<path id="Vector" d="M24.9 48C38.1548 48 48.9 37.2548 48.9 24C48.9 10.7452 38.1548 0 24.9 0C11.6452 0 0.899994 10.7452 0.899994 24C0.899994 37.2548 11.6452 48 24.9 48Z" fill="url(#paint0_linear_4133_31371)"/>
<path id="Vector_2" d="M35.1656 15.3132C35.3525 14.105 34.2038 13.1513 33.1295 13.623L11.7329 23.0172C10.9625 23.3554 11.0189 24.5224 11.8179 24.7768L16.2303 26.182C17.0726 26.4502 17.9844 26.3115 18.7199 25.8034L28.6682 18.9304C28.9682 18.7231 29.2952 19.1497 29.0388 19.4139L21.8778 26.7969C21.1832 27.5131 21.321 28.7268 22.1567 29.2507L30.1742 34.2784C31.0734 34.8423 32.2302 34.2759 32.3984 33.1891L35.1656 15.3132Z" fill="white"/>
</g>
<defs>
<linearGradient id="paint0_linear_4133_31371" x1="24.9" y1="0" x2="24.9" y2="48" gradientUnits="userSpaceOnUse">
<stop stop-color="#37BBFE"/>
<stop offset="1" stop-color="#007DBB"/>
</linearGradient>
<clipPath id="clip0_4133_31371">
<rect width="48" height="48" fill="white" transform="translate(0.899994)"/>
</clipPath>
</defs>
</svg>
