<svg width="16" height="16" viewBox="0 0 16 16" fill="none" xmlns="http://www.w3.org/2000/svg">
<g id="Layer_1" clip-path="url(#clip0_5045_23075)">
<path id="Vector" d="M12.9766 15.0625H12.1438V14.1732C12.1438 13.177 11.342 12.3649 10.3498 12.3473C10.2388 11.8225 9.94482 11.3648 9.53819 11.0433V9.80088C14.9435 7.93367 13.7195 0.134579 7.99892 7.93726e-05C5.14912 -0.015858 2.96022 2.37066 2.98207 5.0169C2.95607 7.14808 4.4295 9.15694 6.46414 9.79566V11.0504C6.06221 11.3715 5.77183 11.8264 5.66162 12.3473C4.66943 12.3649 3.86759 13.177 3.86759 14.1732V15.0625H3.02575C2.76688 15.0625 2.55701 15.2724 2.55701 15.5313C2.55701 15.7901 2.76688 16 3.02575 16H12.9766C13.5952 15.9764 13.6015 15.0889 12.9766 15.0625ZM7.87101 11.4942C8.21226 11.4844 8.55557 11.5012 8.86582 11.7119C9.09585 11.8637 9.27594 12.0853 9.37541 12.3465H6.63596C6.82549 11.8488 7.30761 11.4942 7.87101 11.4942ZM3.91956 5.0164C3.91938 4.70278 3.95453 4.39465 4.02278 4.09637L5.94518 4.0975C5.89633 4.61843 5.89174 5.26177 5.93305 5.79224L3.99406 5.79111C3.9455 5.54018 3.91972 5.28124 3.91956 5.0164ZM6.84224 5.02418C6.84205 4.69165 6.85855 4.38353 6.88739 4.09803L9.13598 4.09934C9.19029 4.61024 9.19554 5.2728 9.14935 5.79405L6.87383 5.79274C6.85377 5.55224 6.84239 5.29649 6.84224 5.02418ZM8.01029 1.10548C8.13851 1.25092 8.29939 1.46267 8.45951 1.7517C8.64013 2.07776 8.83979 2.54141 8.98323 3.16178L7.0403 3.16066C7.18302 2.54372 7.3812 2.08154 7.56073 1.75579C7.72095 1.46504 7.88198 1.25189 8.01029 1.10548ZM12.0827 5.02193C12.0829 5.28458 12.0581 5.54333 12.0101 5.79571L10.0902 5.79461C10.1315 5.26487 10.127 4.62156 10.0783 4.0999L11.9775 4.101C12.0462 4.39706 12.0826 4.70534 12.0827 5.02193ZM9.01523 6.73148C8.78945 7.73392 8.51276 8.33038 8.01301 8.93285C7.88479 8.78741 7.72392 8.57566 7.5638 8.28666C7.3692 7.93545 7.15245 7.42489 7.0078 6.73036L9.01523 6.73148ZM10.8891 7.90704C10.401 8.39507 9.81094 8.74382 9.16685 8.93394C9.47688 8.42648 9.79257 7.70807 9.97116 6.73202L11.7097 6.73302C11.5106 7.16417 11.2348 7.56126 10.8891 7.90704ZM11.6336 3.16328L9.94344 3.16231C9.76157 2.26188 9.46304 1.59104 9.16882 1.10945C10.2412 1.43148 11.1299 2.18294 11.6336 3.16328ZM5.11324 2.13129C5.60768 1.63685 6.2069 1.28542 6.86089 1.09704C6.56514 1.57932 6.26358 2.25354 6.08027 3.1601L4.36375 3.1591C4.55559 2.78422 4.80693 2.4376 5.11324 2.13129ZM4.29747 6.7288L6.05171 6.7298C6.23065 7.70923 6.54771 8.42879 6.85914 8.93654C5.72249 8.60335 4.78953 7.78832 4.29747 6.7288ZM7.40164 10.0017C7.59901 10.0255 7.79976 10.0382 8.00342 10.0382H8.00623C8.20645 10.0382 8.40482 10.0263 8.60067 10.0034V10.604C8.45198 10.5731 8.29804 10.5567 8.14035 10.5567H7.87101C7.71008 10.5567 7.55314 10.574 7.40161 10.6062L7.40164 10.0017ZM4.80509 15.0625V14.1732C4.80509 13.6829 5.20403 13.284 5.69437 13.284H10.317C10.8074 13.284 11.2063 13.6829 11.2063 14.1732V15.0625H4.80509Z" fill="black"/>
</g>
<defs>
<clipPath id="clip0_5045_23075">
<rect width="16" height="16" fill="white"/>
</clipPath>
</defs>
</svg>
