<svg width="16" height="16" viewBox="0 0 16 16" fill="none" xmlns="http://www.w3.org/2000/svg">
<g clip-path="url(#clip0_3953_12556)">
<path d="M8 16C12.4183 16 16 12.4183 16 8C16 3.58172 12.4183 0 8 0C3.58172 0 0 3.58172 0 8C0 12.4183 3.58172 16 8 16Z" fill="#F0F0F0"/>
<path d="M1.65379 3.13281C1.02538 3.95041 0.551541 4.89275 0.275635 5.91647H4.43745L1.65379 3.13281Z" fill="#0052B4"/>
<path d="M15.7245 5.91644C15.4486 4.89275 14.9747 3.95041 14.3463 3.13281L11.5627 5.91644H15.7245Z" fill="#0052B4"/>
<path d="M0.275635 10.0898C0.551572 11.1135 1.02542 12.0559 1.65379 12.8734L4.43735 10.0898H0.275635Z" fill="#0052B4"/>
<path d="M12.8705 1.65553C12.0529 1.02713 11.1106 0.553281 10.0869 0.277344V4.43913L12.8705 1.65553Z" fill="#0052B4"/>
<path d="M3.12939 14.3461C3.94699 14.9745 4.88933 15.4483 5.91302 15.7242V11.5625L3.12939 14.3461Z" fill="#0052B4"/>
<path d="M5.91299 0.277344C4.8893 0.553281 3.94696 1.02712 3.12939 1.6555L5.91299 4.43909V0.277344Z" fill="#0052B4"/>
<path d="M10.0869 15.7242C11.1106 15.4483 12.0529 14.9745 12.8705 14.3461L10.0869 11.5625V15.7242Z" fill="#0052B4"/>
<path d="M11.5627 10.0898L14.3463 12.8735C14.9747 12.0559 15.4486 11.1135 15.7245 10.0898H11.5627Z" fill="#0052B4"/>
<path d="M15.9323 6.95653H9.04353H9.0435V0.0677188C8.70191 0.02325 8.35366 0 8 0C7.64628 0 7.29809 0.02325 6.95653 0.0677188V6.95647V6.9565H0.0677188C0.02325 7.29809 0 7.64634 0 8C0 8.35372 0.02325 8.70191 0.0677188 9.04347H6.95647H6.9565V15.9323C7.29809 15.9768 7.64628 16 8 16C8.35366 16 8.70191 15.9768 9.04347 15.9323V9.04353V9.0435H15.9323C15.9768 8.70191 16 8.35372 16 8C16 7.64634 15.9768 7.29809 15.9323 6.95653Z" fill="#D80027"/>
<path d="M10.0869 10.086L13.6568 13.6558C13.821 13.4917 13.9776 13.3201 14.127 13.1423L11.0707 10.0859H10.0869V10.086Z" fill="#D80027"/>
<path d="M5.91292 10.0859H5.91286L2.34302 13.6558C2.50714 13.82 2.67874 13.9766 2.85661 14.126L5.91292 11.0697V10.0859Z" fill="#D80027"/>
<path d="M5.91293 5.91372V5.91366L2.34305 2.34375C2.17887 2.50787 2.02224 2.67947 1.8728 2.85734L4.92915 5.91369H5.91293V5.91372Z" fill="#D80027"/>
<path d="M10.0869 5.91125L13.6568 2.34131C13.4927 2.17713 13.3211 2.0205 13.1432 1.87109L10.0869 4.92744V5.91125Z" fill="#D80027"/>
</g>
<defs>
<clipPath id="clip0_3953_12556">
<rect width="16" height="16" fill="white"/>
</clipPath>
</defs>
</svg>
