<svg width="65" height="64" viewBox="0 0 65 64" fill="none" xmlns="http://www.w3.org/2000/svg">
<path d="M14.8837 9.255H3.125C2.71125 9.255 2.375 9.59125 2.375 10.005V21.7638C2.375 22.1775 2.71125 22.5138 3.125 22.5138H14.8837C15.2975 22.5138 15.6337 22.1775 15.6337 21.7638V10.005C15.6337 9.59 15.2975 9.255 14.8837 9.255ZM14.1337 21.0138H3.875V10.755H14.1337V21.0138ZM6.95375 18.685H11.055C11.4688 18.685 11.805 18.3487 11.805 17.935V13.8337C11.805 13.42 11.4688 13.0837 11.055 13.0837H6.95375C6.54 13.0837 6.20375 13.42 6.20375 13.8337V17.935C6.20375 18.3487 6.54 18.685 6.95375 18.685ZM7.70375 14.5837H10.305V17.185H7.70375V14.5837ZM14.8837 27.0375H3.125C2.71125 27.0375 2.375 27.3738 2.375 27.7875V39.5462C2.375 39.96 2.71125 40.2962 3.125 40.2962H14.8837C15.2975 40.2962 15.6337 39.96 15.6337 39.5462V27.7875C15.6337 27.3738 15.2975 27.0375 14.8837 27.0375ZM14.1337 38.7975H3.875V28.5375H14.1337V38.7975ZM6.95375 36.4675H11.055C11.4688 36.4675 11.805 36.1312 11.805 35.7175V31.6162C11.805 31.2025 11.4688 30.8662 11.055 30.8662H6.95375C6.54 30.8662 6.20375 31.2025 6.20375 31.6162V35.7175C6.20375 36.1325 6.54 36.4675 6.95375 36.4675ZM7.70375 32.3675H10.305V34.9688H7.70375V32.3675ZM24.7638 10.005C24.7638 10.4187 24.4275 10.755 24.0138 10.755H21.43V21.0138H23.9875C24.4012 21.0138 24.7375 21.35 24.7375 21.7638C24.7375 22.1775 24.4012 22.5138 23.9875 22.5138H20.68C20.2663 22.5138 19.93 22.1775 19.93 21.7638V10.005C19.93 9.59125 20.2663 9.255 20.68 9.255H24.0138C24.4288 9.255 24.7638 9.59 24.7638 10.005ZM21.4788 28.5375V31.115H24.015C24.4287 31.115 24.765 31.4513 24.765 31.865C24.765 32.2787 24.4287 32.615 24.015 32.615H20.7288C20.315 32.615 19.9788 32.2787 19.9788 31.865V27.7875C19.9788 27.3738 20.315 27.0375 20.7288 27.0375H24.015C24.4287 27.0375 24.765 27.3738 24.765 27.7875C24.765 28.2013 24.4287 28.5375 24.015 28.5375H21.4788ZM21.4788 36.22V38.7975H24.015C24.4287 38.7975 24.765 39.1338 24.765 39.5475C24.765 39.9613 24.4287 40.2975 24.015 40.2975H20.7288C20.315 40.2975 19.9788 39.9613 19.9788 39.5475V35.47C19.9788 35.0563 20.315 34.72 20.7288 34.72H24.015C24.4287 34.72 24.765 35.0563 24.765 35.47C24.765 35.8838 24.4287 36.22 24.015 36.22H21.4788ZM61.875 56.11H61.5588V36.9038C61.5588 35.575 61.2588 34.4137 60.6162 33.2513L54.7738 22.6938V5.345C54.7738 3.43125 53.2162 1.875 51.3037 1.875H30.4387C28.525 1.875 26.9688 3.43125 26.9688 5.345V44.8112C26.9688 46.725 28.5262 48.2812 30.4387 48.2812H48.7363C48.7325 48.3713 48.7262 48.4625 48.7137 48.5537C48.6925 48.715 48.6813 48.8787 48.6813 49.0425C48.6813 50.2275 49.2537 51.3525 50.2113 52.0525C50.9212 52.5713 51.2975 53.31 51.2975 54.19V56.11H50.9813C50.5675 56.11 50.2313 56.4463 50.2313 56.86V61.375C50.2313 61.7887 50.5675 62.125 50.9813 62.125H61.875C62.2887 62.125 62.625 61.7887 62.625 61.375V56.86C62.625 56.4463 62.2887 56.11 61.875 56.11ZM46.45 3.375L46.2725 3.92C46.1175 4.39875 45.7075 4.69625 45.205 4.69625H36.535C36.0312 4.69625 35.6225 4.39875 35.4675 3.92L35.2912 3.375H46.45ZM28.4675 44.8112V5.345C28.4675 4.25875 29.3512 3.375 30.4375 3.375H33.7125L34.04 4.38375C34.3975 5.485 35.3763 6.19625 36.535 6.19625H45.205C46.3625 6.19625 47.3413 5.485 47.7 4.38375L48.0275 3.375H51.3025C52.3888 3.375 53.2725 4.25875 53.2725 5.345V22.8862V39.985L48.6037 35.3162C47.8237 34.5363 46.7837 34.1075 45.675 34.1075C44.5662 34.1075 43.525 34.5375 42.7463 35.3162C41.9663 36.0962 41.5375 37.1362 41.5375 38.245C41.5375 39.3537 41.9675 40.395 42.7463 41.1738C43.4675 41.895 44.22 42.6325 44.9463 43.3462C45.95 44.33 46.9875 45.3475 47.9762 46.3537C48.1087 46.4887 48.2238 46.6312 48.3213 46.7812H44.3512L44.2738 46.2225C44.0913 44.9125 42.9987 43.9613 41.6763 43.9613H40.065C38.7425 43.9613 37.6488 44.9125 37.4675 46.2225L37.39 46.7812H30.4387C29.3512 46.7812 28.4675 45.8975 28.4675 44.8112ZM42.8375 46.7812H38.9038L38.9525 46.4287C39.03 45.8675 39.4987 45.46 40.065 45.46H41.6763C42.2425 45.46 42.71 45.8675 42.7887 46.4287L42.8375 46.7812ZM51.0962 50.8413C50.5238 50.4238 50.1813 49.7513 50.1813 49.0438C50.1813 48.945 50.1875 48.8475 50.2 48.7513C50.37 47.4588 49.96 46.2337 49.045 45.3037C48.0462 44.2875 47.0037 43.265 45.995 42.2762C45.27 41.565 44.5213 40.8313 43.805 40.115C43.3088 39.6188 43.035 38.955 43.035 38.2463C43.035 37.5375 43.3088 36.8737 43.805 36.3775C44.835 35.3475 46.5112 35.3475 47.5425 36.3775L52.525 41.36C52.9025 41.7375 53.4662 41.85 53.96 41.645C54.4538 41.44 54.7725 40.9625 54.7725 40.4287V25.7913L59.3025 33.9775C59.825 34.9225 60.0575 35.825 60.0575 36.9038V56.11H52.7975V54.19C52.7975 52.8312 52.1937 51.6425 51.0962 50.8413ZM51.7313 60.625V57.61H61.125V58.3675H56.4287C56.015 58.3675 55.6787 58.7038 55.6787 59.1175C55.6787 59.5312 56.015 59.8675 56.4287 59.8675H61.125V60.625H51.7313ZM35.6063 9.765C35.6063 10.1788 35.27 10.515 34.8563 10.515H31.7288V13.6425C31.7288 14.0562 31.3925 14.3925 30.9788 14.3925C30.565 14.3925 30.2288 14.0562 30.2288 13.6425V9.765C30.2288 9.35125 30.565 9.015 30.9788 9.015H34.8563C35.2713 9.015 35.6063 9.35125 35.6063 9.765ZM46.135 9.765C46.135 9.35125 46.4712 9.015 46.885 9.015H50.7625C51.1763 9.015 51.5125 9.35125 51.5125 9.765V13.6425C51.5125 14.0562 51.1763 14.3925 50.7625 14.3925C50.3488 14.3925 50.0125 14.0562 50.0125 13.6425V10.515H46.885C46.47 10.515 46.135 10.18 46.135 9.765ZM35.6063 40.3913C35.6063 40.805 35.27 41.1413 34.8563 41.1413H30.9788C30.565 41.1413 30.2288 40.805 30.2288 40.3913V36.5137C30.2288 36.1 30.565 35.7637 30.9788 35.7637C31.3925 35.7637 31.7288 36.1 31.7288 36.5137V39.6413H34.8563C35.2713 39.6413 35.6063 39.9775 35.6063 40.3913Z" fill="#23A991"/>
</svg>
