<svg width="16" height="16" viewBox="0 0 16 16" fill="none" xmlns="http://www.w3.org/2000/svg">
<g id="user-headset-outline">
<g id="Vector">
<path d="M6.54901 5.29198C6.72568 5.29198 6.90101 5.22265 7.03301 5.08398C7.52701 4.56332 8.40834 4.54398 8.92301 5.04065C9.18834 5.29665 9.61034 5.28865 9.86567 5.02398C10.1217 4.75865 10.1137 4.33665 9.84901 4.08132C9.34834 3.59865 8.69234 3.33398 7.99967 3.33398C7.27234 3.33398 6.56768 3.63732 6.06567 4.16598C5.81234 4.43265 5.82367 4.85465 6.09034 5.10865C6.21901 5.23132 6.38434 5.29198 6.54901 5.29198Z" fill="#545F71"/>
<path d="M12.6663 6.00065C12.6663 3.42798 10.5723 1.33398 7.99967 1.33398C5.42701 1.33398 3.33301 3.42798 3.33301 6.00065C2.23034 6.00065 1.33301 6.89798 1.33301 8.00065V9.33398C1.33301 10.4367 2.23034 11.334 3.33301 11.334H3.99967C4.36834 11.334 4.66634 11.036 4.66634 10.6673V6.00065C4.66634 4.16265 6.16167 2.66732 7.99967 2.66732C9.83768 2.66732 11.333 4.16265 11.333 6.00065V10.7227C11.333 11.7947 10.4603 12.6673 9.38834 12.6673H9.33301C9.33301 11.932 8.73501 11.334 7.99967 11.334H7.33301C6.59767 11.334 5.99967 11.932 5.99967 12.6673V13.334C5.99967 14.0693 6.59767 14.6673 7.33301 14.6673H7.99967C8.49101 14.6673 8.91634 14.3973 9.14767 14.0007H9.38834C10.9863 14.0007 12.317 12.8493 12.6043 11.334H12.6663C13.769 11.334 14.6663 10.4367 14.6663 9.33398V8.00065C14.6663 6.89798 13.769 6.00065 12.6663 6.00065ZM3.33301 10.0007C2.96501 10.0007 2.66634 9.70198 2.66634 9.33398V8.00065C2.66634 7.63265 2.96501 7.33398 3.33301 7.33398V10.0007ZM7.99967 13.334H7.33301V12.6673H7.99967V13.334ZM13.333 9.33398C13.333 9.70198 13.0343 10.0007 12.6663 10.0007V7.33398C13.0343 7.33398 13.333 7.63265 13.333 8.00065V9.33398Z" fill="#545F71"/>
</g>
</g>
</svg>
