<svg width="16" height="17" viewBox="0 0 16 17" fill="none" xmlns="http://www.w3.org/2000/svg">
<g id="users-group-outline">
<g id="Vector">
<path d="M11 1.83306C10.521 1.83452 10.0513 1.96539 9.6406 2.21183C9.22987 2.45826 8.89336 2.81111 8.66667 3.23305C9.10616 3.32378 9.52261 3.50297 9.89067 3.75972C10.0122 3.57693 10.177 3.42698 10.3705 3.32319C10.5639 3.2194 10.78 3.16497 10.9995 3.16474C11.219 3.16451 11.4352 3.21849 11.6288 3.32187C11.8225 3.42526 11.9876 3.57486 12.1096 3.75739C12.2315 3.93992 12.3065 4.14974 12.3279 4.36822C12.3493 4.58669 12.3164 4.80707 12.2321 5.00978C12.1479 5.21249 12.0149 5.39126 11.845 5.53022C11.675 5.66919 11.4734 5.76405 11.258 5.80638C11.3542 6.24526 11.3577 6.69942 11.268 7.1397C11.9498 7.07485 12.5803 6.74946 13.0281 6.23131C13.476 5.71315 13.7067 5.0422 13.6721 4.3582C13.6376 3.6742 13.3405 3.0299 12.8427 2.55951C12.3449 2.08911 11.6849 1.82889 11 1.83306Z" fill="#ACB4C0"/>
<path d="M8 9.16636C7.47258 9.16636 6.95701 9.00997 6.51848 8.71695C6.07995 8.42393 5.73816 8.00746 5.53632 7.52019C5.33449 7.03292 5.28168 6.49675 5.38457 5.97947C5.48747 5.46219 5.74144 4.98703 6.11438 4.6141C6.48732 4.24116 6.96248 3.98718 7.47976 3.88429C7.99704 3.7814 8.53322 3.8342 9.02049 4.03604C9.50776 4.23787 9.92424 4.57966 10.2173 5.01819C10.5103 5.45672 10.6667 5.97229 10.6667 6.49971C10.6667 7.20695 10.3857 7.88522 9.88562 8.38532C9.38552 8.88541 8.70724 9.16636 8 9.16636ZM8 5.16638C7.73629 5.16638 7.47851 5.24458 7.25924 5.39108C7.03998 5.53759 6.86908 5.74583 6.76816 5.98946C6.66724 6.2331 6.64084 6.50119 6.69229 6.75983C6.74373 7.01847 6.87072 7.25604 7.05719 7.44251C7.24366 7.62898 7.48124 7.75597 7.73988 7.80742C7.99852 7.85886 8.26661 7.83246 8.51025 7.73154C8.75388 7.63063 8.96212 7.45973 9.10863 7.24046C9.25514 7.0212 9.33333 6.76341 9.33333 6.49971C9.33333 6.14609 9.19286 5.80695 8.94281 5.5569C8.69276 5.30685 8.35362 5.16638 8 5.16638Z" fill="#ACB4C0"/>
<path d="M11.3333 15.1663H4.66667C4.48986 15.1663 4.32029 15.0961 4.19526 14.9711C4.07024 14.8461 4 14.6765 4 14.4997V13.1663C4.00106 12.2826 4.35259 11.4354 4.97748 10.8105C5.60237 10.1856 6.4496 9.83409 7.33333 9.83303H8.66667C9.5504 9.83409 10.3976 10.1856 11.0225 10.8105C11.6474 11.4354 11.9989 12.2826 12 13.1663V14.4997C12 14.6765 11.9298 14.8461 11.8047 14.9711C11.6797 15.0961 11.5101 15.1663 11.3333 15.1663ZM5.33333 13.833H10.6667V13.1663C10.6667 12.6359 10.456 12.1272 10.0809 11.7521C9.70581 11.3771 9.1971 11.1664 8.66667 11.1664H7.33333C6.8029 11.1664 6.29419 11.3771 5.91912 11.7521C5.54405 12.1272 5.33333 12.6359 5.33333 13.1663V13.833Z" fill="#ACB4C0"/>
<path d="M4.66667 6.49971C4.66735 6.26685 4.69237 6.0347 4.74133 5.80704C4.52593 5.76471 4.32432 5.66986 4.15438 5.53089C3.98445 5.39192 3.85145 5.21315 3.76721 5.01044C3.68296 4.80773 3.65006 4.58736 3.67144 4.36888C3.69282 4.15041 3.76782 3.94059 3.88976 3.75806C4.01171 3.57552 4.17684 3.42593 4.37049 3.32254C4.56414 3.21915 4.78032 3.16518 4.99984 3.16541C5.21936 3.16564 5.43542 3.22007 5.62886 3.32386C5.82229 3.42765 5.9871 3.5776 6.10867 3.76038C6.47687 3.50332 6.89356 3.3239 7.33333 3.23305C7.11578 2.82881 6.79725 2.48778 6.40877 2.24318C6.02029 1.99858 5.57509 1.85873 5.11652 1.83726C4.65795 1.81579 4.20163 1.91343 3.792 2.12066C3.38236 2.3279 3.03337 2.63767 2.77899 3.01982C2.52461 3.40197 2.37352 3.84348 2.34043 4.30136C2.30734 4.75923 2.39337 5.21788 2.59015 5.63264C2.78693 6.04739 3.08775 6.40413 3.46333 6.66812C3.83891 6.9321 4.27644 7.09434 4.73333 7.13904C4.69046 6.92859 4.66813 6.71447 4.66667 6.49971Z" fill="#ACB4C0"/>
<path d="M11.3333 7.83303H11.0473C10.7747 8.44655 10.325 8.96468 9.756 9.32103C9.784 9.32903 9.80933 9.34303 9.838 9.3517C10.0975 9.23048 10.3803 9.16723 10.6667 9.16636H11.3333C11.8638 9.16636 12.3725 9.37708 12.7475 9.75215C13.1226 10.1272 13.3333 10.6359 13.3333 11.1664V11.833H12.4353C12.588 12.261 12.6662 12.712 12.6667 13.1663H14C14.1768 13.1663 14.3464 13.0961 14.4714 12.9711C14.5964 12.8461 14.6667 12.6765 14.6667 12.4997V11.1664C14.6656 10.2826 14.3141 9.4354 13.6892 8.81051C13.0643 8.18562 12.2171 7.83409 11.3333 7.83303Z" fill="#ACB4C0"/>
<path d="M3.56467 11.833H2.66667V11.1664C2.66667 10.6359 2.87738 10.1272 3.25245 9.75215C3.62753 9.37708 4.13623 9.16636 4.66667 9.16636H5.33333C5.61995 9.16722 5.90295 9.23046 6.16267 9.3517C6.19067 9.34303 6.216 9.32903 6.244 9.32103C5.67499 8.96468 5.22535 8.44655 4.95267 7.83303H4.66667C3.78294 7.83409 2.93571 8.18562 2.31081 8.81051C1.68592 9.4354 1.33439 10.2826 1.33333 11.1664V12.4997C1.33333 12.6765 1.40357 12.8461 1.5286 12.9711C1.65362 13.0961 1.82319 13.1663 2 13.1663H3.33333C3.33377 12.712 3.41201 12.261 3.56467 11.833Z" fill="#ACB4C0"/>
</g>
</g>
</svg>
