<svg width="49" height="48" viewBox="0 0 49 48" fill="none" xmlns="http://www.w3.org/2000/svg">
<g id="Graphics-_x2F_-App-Icons-_x2F_-WhatsApp">
<g id="Icon_6_">
<path id="Background_7_" d="M12.7016 0C12.4328 0 11.8953 0 11.4115 0C10.3365 0.0537514 8.93896 0.107503 8.3477 0.268757C7.38017 0.483763 6.4664 0.752519 5.71388 1.12878C4.85386 1.55879 4.04758 2.15006 3.34882 2.84882C2.65005 3.54759 2.11253 4.30011 1.62877 5.21389C1.25251 5.9664 0.930004 6.88018 0.768749 7.79395C0.661247 8.43897 0.553744 9.83651 0.499992 10.9115C0.499992 11.3415 0.499992 11.9328 0.499992 12.2016V35.7984C0.499992 36.0672 0.499992 36.6047 0.499992 37.0885C0.553744 38.1635 0.607495 39.561 0.768749 40.1523C0.983755 41.1198 1.25251 42.0336 1.62877 42.7861C2.05878 43.6461 2.65005 44.4524 3.34882 45.1512C4.04758 45.8499 4.8001 46.3875 5.71388 46.8712C6.4664 47.2475 7.38017 47.57 8.29395 47.7312C8.93896 47.8387 10.3365 47.9462 11.4115 48C11.8415 48 12.4328 48 12.7016 48H36.2984C36.5672 48 37.1047 48 37.5885 48C38.6635 47.9462 40.061 47.8925 40.6523 47.7312C41.6198 47.5162 42.5336 47.2475 43.2861 46.8712C44.1461 46.4412 44.9524 45.8499 45.6512 45.1512C46.3499 44.4524 46.8875 43.6999 47.3712 42.7861C47.7475 42.0336 48.07 41.1198 48.2312 40.206C48.3387 39.561 48.4462 38.1635 48.5 37.0885C48.5 36.6585 48.5 36.0672 48.5 35.7984V12.2016C48.5 11.9328 48.5 11.3953 48.5 10.9115C48.4462 9.83651 48.3925 8.43897 48.2312 7.8477C48.0162 6.88018 47.7475 5.9664 47.3712 5.21389C46.9412 4.35386 46.3499 3.54759 45.6512 2.84882C44.9524 2.15006 44.1999 1.61254 43.2861 1.12878C42.5336 0.752519 41.6198 0.430011 40.706 0.268757C40.061 0.161254 38.6635 0.0537514 37.5885 0C37.1584 0 36.5672 0 36.2984 0H12.7016Z" fill="url(#paint0_linear_4133_31350)"/>
<path id="WhatsApp-Icon" d="M31.8159 25.2582C31.4899 25.0955 29.8599 24.3224 29.5746 24.2003C29.2894 24.0782 29.0449 24.0376 28.8411 24.3631C28.6374 24.6886 27.9853 25.421 27.8223 25.6244C27.6186 25.8279 27.4556 25.8685 27.1296 25.7058C26.8036 25.543 25.744 25.2175 24.4808 24.1189C23.5027 23.2645 22.8507 22.2066 22.647 21.8811C22.4432 21.5556 22.647 21.3928 22.81 21.23C22.973 21.0673 23.136 20.8638 23.299 20.6604C23.462 20.457 23.5027 20.3349 23.625 20.1315C23.7473 19.928 23.6658 19.7246 23.5842 19.5618C23.5027 19.3991 22.8507 17.8122 22.5655 17.1612C22.2802 16.5509 22.0357 16.6322 21.832 16.5915C21.6282 16.5915 21.4244 16.5915 21.2207 16.5915C21.0169 16.5915 20.6502 16.6729 20.3649 16.9984C20.0797 17.3239 19.2239 18.097 19.2239 19.6839C19.2239 21.2707 20.4057 22.7762 20.5687 23.0203C20.7317 23.2238 22.8915 26.4789 26.1516 27.8623C26.9258 28.1878 27.5371 28.3912 28.0261 28.554C28.8004 28.7981 29.5339 28.7574 30.1044 28.6761C30.7157 28.5947 32.0604 27.903 32.305 27.1706C32.5902 26.4382 32.5902 25.7872 32.5087 25.6651C32.3457 25.5023 32.1419 25.421 31.8159 25.2582ZM25.581 33.6401C23.625 33.6401 21.7505 33.1111 20.0797 32.1346L19.6722 31.8905L15.5971 32.9484L16.6973 29.0016L16.4528 28.5947C15.3933 26.8858 14.8228 24.9327 14.8228 22.8983C14.8228 16.9984 19.6722 12.1972 25.6218 12.1972C28.4336 12.1972 31.1639 13.2958 33.2015 15.3302C35.239 17.3646 36.3393 20.0501 36.3393 22.8983C36.3393 28.7981 31.4899 33.6401 25.581 33.6401ZM34.75 13.784C32.305 11.3427 29.0449 10 25.581 10C18.4496 10 12.6222 15.7778 12.6222 22.8983C12.6222 25.1768 13.2335 27.374 14.3338 29.3271L12.5 36L19.3462 34.2097C21.2207 35.2269 23.3805 35.7966 25.5403 35.7966C32.6717 35.7966 38.4991 30.0188 38.4991 22.8983C38.5398 19.4804 37.1951 16.2254 34.75 13.784Z" fill="white"/>
</g>
</g>
<defs>
<linearGradient id="paint0_linear_4133_31350" x1="24.5193" y1="0.0172004" x2="24.5193" y2="47.9613" gradientUnits="userSpaceOnUse">
<stop stop-color="#62FA7F"/>
<stop offset="0.6865" stop-color="#22CC40"/>
<stop offset="1" stop-color="#05B723"/>
</linearGradient>
</defs>
</svg>
